<?xml version="1.0" encoding="utf-8"?>
<svg xmlns="http://www.w3.org/2000/svg" xmlns:xlink="http://www.w3.org/1999/xlink">

    <symbol  viewBox="0 0 70 70" id="catalog-1-fitting">
        <path fill="#3C3C3B" d="M35.001,36.076c-6.938,0-12.562,5.624-12.562,12.562c0,6.938,5.625,12.562,12.562,12.562
		c6.937,0,12.562-5.625,12.562-12.562C47.557,41.703,41.936,36.084,35.001,36.076z M35.001,58.229c-5.296,0-9.591-4.293-9.591-9.59
		s4.294-9.592,9.591-9.592c5.295,0,9.59,4.295,9.59,9.592C44.584,53.934,40.295,58.225,35.001,58.229z"/>
        <path fill="#3C3C3B" d="M35.001,34.819c0.692,0,1.256-0.562,1.256-1.256v-1.257c0-0.692-0.563-1.256-1.256-1.256
		c-0.694,0-1.257,0.563-1.257,1.256v1.257C33.745,34.257,34.308,34.819,35.001,34.819z"/>
        <path fill="#3C3C3B" d="M45.66,36.201l-0.887,0.89c-0.5,0.481-0.515,1.277-0.031,1.775c0.48,0.499,1.277,0.514,1.775,0.032
		c0.012-0.012,0.021-0.021,0.03-0.032l0.888-0.89c0.481-0.498,0.469-1.293-0.029-1.775C46.918,35.73,46.146,35.73,45.66,36.201z"/>
        <path fill="#3C3C3B" d="M51.332,47.382h-1.256c-0.693,0-1.256,0.563-1.256,1.257c0,0.694,0.562,1.258,1.256,1.258h1.256
		c0.693,0,1.256-0.562,1.256-1.258C52.588,47.945,52.025,47.382,51.332,47.382z"/>
        <path fill="#3C3C3B" d="M46.549,58.409c-0.498-0.481-1.295-0.47-1.775,0.03c-0.471,0.488-0.471,1.26,0,1.746l0.888,0.889
		c0.489,0.49,1.286,0.492,1.776,0.001s0.49-1.286,0-1.777L46.549,58.409z"/>
        <path fill="#3C3C3B" d="M35.001,62.458c-0.694,0-1.257,0.562-1.257,1.257v1.256c0,0.693,0.563,1.256,1.257,1.256
		c0.692,0,1.256-0.562,1.256-1.256v-1.256C36.258,63.02,35.693,62.458,35.001,62.458z"/>
        <path fill="#3C3C3B" d="M23.454,58.409l-0.889,0.889c-0.491,0.49-0.491,1.286,0,1.777c0.491,0.491,1.287,0.491,1.777,0.001
		l0.888-0.889c0.482-0.5,0.469-1.293-0.03-1.777C24.713,57.939,23.941,57.939,23.454,58.409L23.454,58.409z"/>
        <path fill="#3C3C3B" d="M19.927,47.382H18.67c-0.694,0-1.256,0.563-1.256,1.257c0,0.694,0.562,1.258,1.256,1.258h1.257
		c0.693,0,1.255-0.562,1.255-1.258C21.182,47.945,20.62,47.382,19.927,47.382z"/>
        <path fill="#3C3C3B" d="M23.454,38.868c0.499,0.481,1.294,0.469,1.776-0.031c0.47-0.485,0.47-1.26,0-1.746l-0.888-0.887
		c-0.491-0.492-1.286-0.492-1.777-0.002c-0.491,0.491-0.491,1.286-0.001,1.776L23.454,38.868z"/>
        <path fill="#3C3C3B" d="M66.23,34.819c-2.082,0-3.769,1.688-3.769,3.77v1.257h-8.022c-2.146-4.719-5.926-8.5-10.646-10.647v-9.455
		c0-0.693-0.562-1.256-1.256-1.256h-2.513v-7.537H55.1c2.082,0,3.769-1.688,3.769-3.769c0-2.082-1.687-3.77-3.769-3.77H14.9
		c-2.082,0-3.768,1.688-3.768,3.77c0,2.081,1.687,3.769,3.768,3.769h15.075v7.537h-2.513c-0.693,0-1.256,0.562-1.256,1.256v9.455
		c-4.718,2.146-8.499,5.928-10.646,10.647H7.538v-1.258c0-2.081-1.688-3.769-3.768-3.769C1.688,34.82,0,36.507,0,38.589v20.101
		c0,2.082,1.688,3.77,3.77,3.77c2.081,0,3.768-1.688,3.768-3.77v-1.256h8.024c4.837,10.735,17.461,15.517,28.198,10.68
		c4.744-2.139,8.543-5.938,10.68-10.682h8.023v1.256c0,2.082,1.686,3.771,3.768,3.771c2.08,0,3.771-1.688,3.771-3.771v-20.1
		C70,36.507,68.311,34.819,66.23,34.819z M13.645,7.183c0-0.694,0.562-1.257,1.256-1.257h40.201c0.692,0,1.254,0.562,1.254,1.257
		c0,0.693-0.562,1.255-1.254,1.255H14.901C14.207,8.438,13.645,7.876,13.645,7.183z M32.489,10.951h5.025v7.537h-5.025V10.951z
		 M28.72,21.001h12.563v7.228c-4.092-1.262-8.471-1.262-12.563,0V21.001z M5.025,58.688c0,0.693-0.562,1.256-1.255,1.256
		c-0.694,0-1.257-0.562-1.257-1.256v-20.1c0-0.693,0.562-1.256,1.257-1.256c0.693,0,1.255,0.562,1.255,1.256V58.688z M7.538,54.921
		V42.357h7.054c-1.261,4.093-1.261,8.47,0,12.562L7.538,54.921L7.538,54.921z M35.001,67.48c-10.407,0-18.844-8.436-18.844-18.842
		c0-10.408,8.438-18.846,18.844-18.846c10.406,0,18.845,8.438,18.845,18.846C53.834,59.04,45.404,67.473,35.001,67.48z
		 M55.41,54.921c1.262-4.094,1.262-8.471,0-12.562h7.053v12.562H55.41z M67.488,58.688c0,0.693-0.564,1.256-1.258,1.256
		c-0.694,0-1.256-0.562-1.256-1.256v-20.1c0-0.693,0.562-1.256,1.256-1.256c0.693,0,1.258,0.562,1.258,1.256V58.688z"/>
        <path fill="#3C3C3B" d="M38.021,2.529V2.516c0-1.39-1.354-2.517-3.021-2.517c-1.667,0-3.021,1.127-3.021,2.517V2.53L38.021,2.529
		L38.021,2.529z"/>
    </symbol>

    <symbol  viewBox="0 0 70 70" id="catalog-2-VSP">
        <path fill="#3C3C3B" d="M64.941,16.68c0.756,0,1.367-0.612,1.367-1.367V8.75c0-0.755-0.611-1.367-1.367-1.367H60.84V1.367
		C60.84,0.612,60.229,0,59.473,0s-1.367,0.612-1.367,1.367v67.266c0,0.756,0.611,1.367,1.367,1.367s1.367-0.611,1.367-1.367v-6.016
		h4.102c0.756,0,1.367-0.611,1.367-1.367v-6.562c0-0.756-0.611-1.367-1.367-1.367H60.84v-6.016h4.102
		c0.756,0,1.367-0.611,1.367-1.367v-6.562c0-0.756-0.611-1.367-1.367-1.367H60.84v-6.016h4.102c0.756,0,1.367-0.612,1.367-1.367
		v-6.562c0-0.755-0.611-1.367-1.367-1.367H60.84V16.68H64.941z M60.84,10.117h2.734v3.828H60.84V10.117z M63.574,56.055v3.828H60.84
		v-3.828H63.574z M63.574,40.742v3.828H60.84v-3.828H63.574z M63.574,25.43v3.828H60.84V25.43H63.574z"/>
        <path fill="#3C3C3B" d="M52.5,0c-0.756,0-1.367,0.612-1.367,1.367v6.016H28.301c-0.755,0-1.367,0.612-1.367,1.367
		s0.612,1.367,1.367,1.367h22.832v3.828H18.867V1.367C18.867,0.612,18.255,0,17.5,0s-1.367,0.612-1.367,1.367v67.266
		c0,0.756,0.612,1.367,1.367,1.367s1.367-0.611,1.367-1.367v-6.016h21.967c0.754,0,1.367-0.611,1.367-1.367
		s-0.613-1.367-1.367-1.367H18.867v-3.828h32.266v12.578c0,0.756,0.611,1.367,1.367,1.367s1.367-0.611,1.367-1.367V1.367
		C53.867,0.612,53.256,0,52.5,0z M51.133,53.32H18.867v-6.016h32.266V53.32z M51.133,44.57H18.867v-3.828h32.266V44.57z
		 M51.133,38.008H18.867v-6.016h32.266V38.008z M51.133,29.258H18.867V25.43h32.266V29.258z M51.133,22.695H18.867V16.68h32.266
		V22.695z"/>
        <path fill="#3C3C3B" d="M10.527,0C9.772,0,9.16,0.612,9.16,1.367v6.016H5.059c-0.755,0-1.367,0.612-1.367,1.367v6.562
		c0,0.755,0.612,1.367,1.367,1.367H9.16v6.016H5.059c-0.755,0-1.367,0.612-1.367,1.367v6.562c0,0.755,0.612,1.367,1.367,1.367H9.16
		v6.016H5.059c-0.755,0-1.367,0.611-1.367,1.367v6.562c0,0.756,0.612,1.367,1.367,1.367H9.16v6.016H5.059
		c-0.755,0-1.367,0.611-1.367,1.367v6.562c0,0.756,0.612,1.367,1.367,1.367H9.16v6.016C9.16,69.389,9.772,70,10.527,70
		s1.367-0.611,1.367-1.367V1.367C11.895,0.612,11.283,0,10.527,0z M9.16,59.883H6.426v-3.828H9.16V59.883z M9.16,44.57H6.426v-3.828
		H9.16V44.57z M9.16,29.258H6.426V25.43H9.16V29.258z M9.16,13.945H6.426v-3.828H9.16V13.945z"/>

    </symbol>
    <symbol  viewBox="0 0 70 70" id="catalog-3-GSM">
        <path fill="#3C3C3B" d="M56.369,0H24.486c-3.002,0-5.444,2.442-5.444,5.443v6.126h-0.99l-4.879-5.578L1.022,16.624l5.337,6.1
            l-0.248,0.229v37.477c0,5.278,4.129,9.571,9.205,9.571h41.053c5.077,0,9.206-4.293,9.206-9.571V9.572
            C65.575,4.294,61.446,0,56.369,0z M22.186,5.443c0-1.268,1.032-2.299,2.3-2.299h26.118l-7.409,8.426H22.186V5.443z M8.689,20.613
            l-3.231-3.693l7.42-6.494l3.012,3.444l-0.355,0.336c-1.414,1.335-4.132,3.898-6.459,6.052L8.689,20.613z M62.434,60.429
            c0,3.544-2.721,6.428-6.064,6.428H15.316c-3.343,0-6.062-2.884-6.062-6.428V24.356l0.167-0.152
            c3.111-2.829,8.032-7.483,10.004-9.353l0.147-0.14h25.043L54.787,3.144h1.582c3.344,0,6.064,2.884,6.064,6.429V60.429z"/>
        <path fill="#3C3C3B" d="M57.427,21.441c0.634-0.634,0.634-1.663,0-2.297s-1.662-0.634-2.298,0l-5.703,5.705H22.834l-5.05-5.051
            c-0.634-0.634-1.664-0.634-2.297,0c-0.636,0.634-0.636,1.661,0,2.295l5.05,5.052v26.592l-5.189,5.188
            c-0.635,0.637-0.635,1.664,0,2.298c0.317,0.318,0.732,0.476,1.148,0.476c0.415,0,0.831-0.157,1.147-0.476l5.19-5.19h26.591
            l5.446,5.448c0.316,0.315,0.732,0.476,1.148,0.476s0.831-0.16,1.147-0.476c0.635-0.635,0.635-1.663,0-2.3l-5.444-5.443V27.146
            L57.427,21.441z M48.476,52.787h-24.69v-24.69h24.69V52.787z"/>
        <path fill="#3C3C3B" d="M36.151,50.146c4.302,0,7.801-3.501,7.801-7.8c0-1.778-0.612-3.516-1.728-4.896l-4.729-6.087
            c-0.315-0.408-0.803-0.646-1.319-0.648c0,0,0,0-0.002,0c-0.515,0-1,0.237-1.317,0.642l-4.75,6.057
            c-0.014,0.018-0.027,0.035-0.041,0.055c-1.105,1.378-1.714,3.105-1.714,4.878C28.354,46.646,31.854,50.146,36.151,50.146z
             M32.721,39.513c0.03-0.037,0.059-0.072,0.085-0.11l3.363-4.29l3.39,4.367c0.016,0.019,0.029,0.039,0.044,0.058
            c0.654,0.801,0.999,1.771,0.999,2.809c0,2.452-1.996,4.449-4.45,4.449c-2.451,0-4.447-1.997-4.447-4.449
            C31.704,41.298,32.056,40.319,32.721,39.513z"/>

    </symbol>
    <symbol  viewBox="-1 -1 70 72" id="catalog-4-spare">

        <path fill="#3C3C3B" d="M34-1C14.75-1-1,14.75-1,34s15.75,35,35,35s35-15.75,35-35S53.25-1,34-1z M34,66.167
                    C16.308,66.167,1.833,51.691,1.833,34C1.833,16.308,16.308,1.833,34,1.833c17.691,0,32.167,14.475,32.167,32.167
                    C66.167,51.691,51.691,66.167,34,66.167z"/>
        <path fill="#3C3C3B" d="M54.514,14.994c-0.197-0.293-0.424-0.571-0.681-0.827c-0.217-0.195-0.446-0.379-0.685-0.548
                    C48.131,8.901,41.389,6,34,6c-7.525,0-14.382,3.01-19.426,7.884c-0.1,0.091-0.197,0.184-0.291,0.283
                    c-0.003,0.003-0.007,0.008-0.011,0.011C9.17,19.257,6,26.276,6,34c0,15.4,12.6,28,28,28c7.721,0,14.736-3.167,19.814-8.266
                    c0.006-0.006,0.013-0.012,0.019-0.019c0.006-0.006,0.013-0.013,0.019-0.019C58.881,48.629,62,41.661,62,34
                    C62,26.681,59.152,19.996,54.514,14.994z M49.634,46.134c0.933,0,1.866,0.351,2.449,1.05c1.399,1.283,1.399,3.5,0,4.899
                    c-1.283,1.399-3.5,1.284-4.899,0c-1.399-1.283-1.399-3.5,0-4.899C47.884,46.482,48.7,46.134,49.634,46.134z M46.135,44.902
                    c-0.203,0.16-0.4,0.336-0.585,0.531c-0.147,0.155-0.286,0.318-0.415,0.486c-2.923,2.732-6.842,4.412-11.135,4.412
                    c-8.983,0-16.333-7.35-16.333-16.333c0-4.308,1.69-8.239,4.44-11.166c0.156-0.12,0.31-0.248,0.459-0.384
                    c0.142-0.149,0.273-0.304,0.396-0.463c2.912-2.679,6.792-4.32,11.037-4.32c8.983,0,16.333,7.35,16.333,16.333
                    C50.333,38.18,48.741,42.006,46.135,44.902z M21.866,49.634c0,0.933-0.35,1.75-1.05,2.449c-1.283,1.399-3.5,1.399-4.899,0
                    c-0.7-0.583-1.051-1.517-1.051-2.449c0-0.934,0.351-1.75,1.051-2.45c0.583-0.699,1.517-1.05,2.449-1.05
                    c0.934,0,1.75,0.351,2.45,1.05l0,0c0.092,0.092,0.186,0.182,0.278,0.271C21.608,48.035,21.866,48.834,21.866,49.634z
                     M15.917,20.816c-1.4-1.283-1.4-3.5,0-4.899c0.699-0.7,1.517-1.051,2.449-1.051c0.817,0,1.75,0.351,2.45,1.051
                    c1.4,1.283,1.4,3.5,0,4.899c-0.046,0.046-0.09,0.093-0.136,0.139C19.382,22.215,17.269,22.169,15.917,20.816z M47.184,20.816
                    L47.184,20.816c-0.092-0.092-0.185-0.182-0.277-0.271c-0.514-0.58-0.771-1.379-0.771-2.179c0-0.933,0.35-1.75,1.051-2.449
                    c0.582-0.7,1.517-1.051,2.449-1.051c0.934,0,1.866,0.351,2.449,1.051c1.4,1.283,1.4,3.5,0,4.899
                    C50.8,22.1,48.467,22.1,47.184,20.816z M45.55,14.167c-0.997,1.107-1.677,2.531-1.743,3.97c-1.686-1.048-3.547-1.836-5.529-2.305
                    c0.97-1.038,1.557-2.438,1.557-3.999c0-1.104-0.294-2.129-0.811-3.001c3.311,0.663,6.395,1.969,9.117,3.778
                    C47.162,12.869,46.252,13.387,45.55,14.167z M37.5,11.833c0,1.983-1.518,3.5-3.5,3.5c-1.983,0-3.5-1.517-3.5-3.5
                    s1.517-3.5,3.5-3.5C35.982,8.333,37.5,9.85,37.5,11.833z M29.723,15.832c-1.97,0.466-3.82,1.247-5.497,2.285
                    c-0.035-1.452-0.587-2.879-1.659-3.95c-0.78-0.781-1.719-1.3-2.704-1.558c2.723-1.81,5.806-3.114,9.114-3.777
                    c-0.516,0.872-0.81,1.896-0.81,3.001C28.167,13.395,28.754,14.794,29.723,15.832z M14.283,22.45
                    c0.997,1.107,2.415,1.688,3.854,1.744c-1.048,1.685-1.836,3.547-2.305,5.527c-1.038-0.968-2.438-1.555-3.999-1.555
                    c-1.104,0-2.129,0.294-3.001,0.81c0.682-3.4,2.039-6.563,3.928-9.341C12.987,20.678,13.494,21.66,14.283,22.45z M11.833,30.5
                    c1.983,0,3.5,1.517,3.5,3.5c0,1.982-1.517,3.5-3.5,3.5s-3.5-1.518-3.5-3.5C8.333,32.017,9.85,30.5,11.833,30.5z M11.833,39.833
                    c1.562,0,2.961-0.587,3.999-1.556c0.47,1.981,1.257,3.844,2.305,5.529c-1.428,0.065-2.746,0.746-3.854,1.742
                    c-0.813,0.732-1.342,1.691-1.588,2.719c-1.854-2.754-3.189-5.883-3.863-9.244C9.704,39.539,10.729,39.833,11.833,39.833z
                     M22.45,53.833c0.997-1.106,1.677-2.53,1.743-3.97c1.686,1.048,3.547,1.836,5.529,2.305c-0.969,1.038-1.556,2.438-1.556,3.999
                    c0,1.104,0.294,2.129,0.81,3.001c-3.367-0.675-6.502-2.014-9.261-3.873C20.691,55.051,21.652,54.551,22.45,53.833z M30.5,56.167
                    c0-1.983,1.517-3.5,3.5-3.5c1.982,0,3.5,1.517,3.5,3.5s-1.518,3.5-3.5,3.5C32.017,59.667,30.5,58.15,30.5,56.167z M38.277,52.168
                    c2.016-0.479,3.906-1.283,5.613-2.357c0.045,1.437,0.598,2.846,1.658,3.906c0.732,0.812,1.689,1.342,2.719,1.59
                    c-2.754,1.854-5.884,3.188-9.244,3.861c0.516-0.872,0.81-1.896,0.81-3.001C39.833,54.605,39.246,53.206,38.277,52.168z
                     M53.833,45.434c-1.101-1.045-2.511-1.621-3.926-1.697c1.026-1.666,1.798-3.504,2.261-5.457c1.038,0.968,2.438,1.555,3.999,1.555
                    c1.104,0,2.129-0.294,3.001-0.811c-0.668,3.336-1.988,6.441-3.82,9.182C55.116,47.178,54.611,46.212,53.833,45.434z M56.167,37.5
                    c-1.983,0-3.5-1.518-3.5-3.5c0-1.983,1.517-3.5,3.5-3.5s3.5,1.517,3.5,3.5C59.667,35.982,58.15,37.5,56.167,37.5z M56.167,28.167
                    c-1.562,0-2.961,0.587-3.999,1.555c-0.471-1.981-1.257-3.843-2.305-5.528c1.535-0.062,2.857-0.743,3.97-1.743
                    c0.742-0.782,1.235-1.721,1.479-2.706c1.851,2.751,3.183,5.876,3.854,9.231C58.296,28.461,57.271,28.167,56.167,28.167z"/>
        <path fill="#3C3C3B" d="M34,21.167c-7.116,0-12.833,5.716-12.833,12.833c0,7.116,5.716,12.833,12.833,12.833
                    S46.833,41.117,46.833,34S41.116,21.167,34,21.167z M34,44.125c-5.625,0-10.125-4.5-10.125-10.125
                    c0-5.625,4.5-10.125,10.125-10.125c5.625,0,10.125,4.5,10.125,10.125C44.125,39.625,39.625,44.125,34,44.125z"/>
    </symbol>
    <symbol  viewBox="0 0 70 70" id="catalog-5-Inventory">

        <path fill="#3C3C3B" d="M68.35,18.155H52.716v-4.54c0.011-1.083,0.021-2.321,0.024-3.499c0-0.898-0.736-1.63-1.641-1.63h-4.986
		v-6.28c0-0.904-0.734-1.639-1.637-1.639h-18.97c-0.903,0-1.637,0.735-1.637,1.639v6.28h-4.988c-0.903,0-1.637,0.734-1.637,1.637
		l0.011,8.034H1.637C0.734,18.157,0,18.89,0,19.792v46.173c0,0.901,0.734,1.637,1.637,1.637h66.726c0.902,0,1.638-0.734,1.638-1.637
		V19.792C69.991,18.891,69.252,18.155,68.35,18.155z M20.528,11.761h4.98c0.903,0,1.637-0.734,1.637-1.638V3.842H42.84v6.281
		c0,0.903,0.735,1.638,1.639,1.638h4.979v6.38H20.528V11.761z M3.258,21.43h63.438v14.748h-30.09v-3.829
		c0-0.902-0.733-1.636-1.636-1.636c-0.903,0-1.637,0.734-1.637,1.636v3.829H3.258V21.43z M66.729,64.327H3.274V39.454h30.089v4.141
		c0,0.9,0.734,1.636,1.637,1.636c0.902,0,1.639-0.733,1.639-1.636v-4.141h30.09V64.327z"/>
        <rect x="5.438" y="59.433" fill="#3C3C3B" width="59.125" height="3.309"/>
    </symbol>
    <symbol  viewBox="0 0 70 70" id="catalog-6-tools">
        <path fill="#3C3C3B" d="M30.002,48.833l-1.625-1.303l1.303-1.625c0.227-0.283,0.332-0.645,0.292-1.004
		c-0.039-0.36-0.221-0.69-0.503-0.917l-1.625-1.304l1.304-1.625c0.227-0.282,0.332-0.644,0.292-1.004s-0.221-0.69-0.503-0.917
		l-1.626-1.303l1.304-1.625c0.472-0.589,0.378-1.449-0.211-1.921l-1.625-1.304l1.304-1.625c0.472-0.589,0.377-1.448-0.211-1.921
		l-1.626-1.303l1.304-1.625c0.227-0.283,0.332-0.645,0.292-1.004c-0.039-0.36-0.221-0.69-0.503-0.917l-1.625-1.304l1.304-1.625
		c0.227-0.282,0.331-0.644,0.292-1.004c-0.04-0.36-0.221-0.689-0.504-0.916l-1.625-1.304l1.304-1.625
		c0.227-0.283,0.332-0.645,0.292-1.004c-0.039-0.36-0.221-0.69-0.503-0.917l-1.625-1.304l1.304-1.625
		c0.472-0.589,0.377-1.448-0.212-1.92l-1.625-1.304l1.304-1.625c0.227-0.283,0.332-0.645,0.292-1.004
		c-0.039-0.36-0.221-0.69-0.503-0.917l-1.624-1.303l1.341-1.668c0.329-0.41,0.394-0.972,0.166-1.446C24.863,0.301,24.384,0,23.858,0
		H8.512C7.757,0,7.146,0.612,7.146,1.366v67.268C7.146,69.389,7.757,70,8.512,70h20.636c0.754,0,1.365-0.611,1.365-1.366V57.022
		c0-0.008,0-0.016,0-0.023v-7.1C30.513,49.484,30.325,49.093,30.002,48.833z M21.008,2.732l-0.411,0.512
		c-0.228,0.283-0.333,0.645-0.293,1.005c0.039,0.36,0.221,0.69,0.503,0.917l1.625,1.304l-1.303,1.625
		c-0.473,0.589-0.378,1.448,0.211,1.92l1.625,1.304l-1.304,1.625c-0.227,0.283-0.332,0.645-0.292,1.004
		c0.039,0.36,0.221,0.69,0.503,0.917l1.625,1.304l-1.303,1.625c-0.228,0.282-0.332,0.644-0.293,1.004
		c0.04,0.36,0.221,0.689,0.504,0.916l1.625,1.304l-1.304,1.625c-0.227,0.283-0.332,0.645-0.292,1.004
		c0.04,0.36,0.221,0.69,0.503,0.917l1.626,1.304l-1.304,1.625c-0.473,0.589-0.378,1.448,0.211,1.92l1.625,1.304l-1.304,1.625
		c-0.472,0.589-0.377,1.449,0.211,1.921l1.626,1.304l-1.304,1.625c-0.227,0.282-0.332,0.644-0.292,1.004
		c0.039,0.36,0.22,0.689,0.503,0.916l1.625,1.304l-1.304,1.625c-0.227,0.283-0.331,0.645-0.292,1.004
		c0.04,0.36,0.221,0.69,0.503,0.917l1.626,1.304l-1.304,1.625c-0.473,0.589-0.378,1.448,0.211,1.92l2.179,1.748v3.17l-3.132-3.132
		c-0.256-0.257-0.604-0.4-0.966-0.4H9.878V29.98l3.808,3.873c0.267,0.268,0.616,0.4,0.966,0.4s0.699-0.133,0.966-0.4
		c0.533-0.533,0.533-1.398,0-1.932l-5.739-5.806v-5.254l1.484,1.552c0.268,0.267,0.617,0.4,0.967,0.4c0.349,0,0.699-0.134,0.966-0.4
		c0.533-0.533,0.533-1.398,0-1.933l-3.417-3.482V2.732H21.008z M22.891,67.268L22.891,67.268h-8.104v-8.442h6.268l1.837,1.837
		V67.268z M27.781,67.268h-2.158v-7.172c0-0.362-0.145-0.709-0.4-0.966l-2.637-2.637c-0.257-0.256-0.604-0.4-0.966-0.4h-8.2
		c-0.755,0-1.366,0.612-1.366,1.366v9.809H9.878V52.925h13.239l4.664,4.664V67.268z"/>
        <path fill="#3C3C3B" d="M64.81,0h-5.427c-0.487,0-0.937,0.259-1.182,0.679l-0.637,1.096h-0.733L56.598,0.98
		C56.427,0.399,55.893,0,55.287,0H42.555c-6.326,0-11.472,5.146-11.472,11.472v4.088c0,0.754,0.611,1.366,1.366,1.366h3.426
		c0.755,0,1.366-0.612,1.366-1.366c0-1.779,1.447-3.226,3.226-3.226h3.549c1.088,0,1.973,0.885,1.973,1.973v20.239
		c-1.115,0.585-1.878,1.753-1.878,3.098v3.589v4.465v3.294c0,0.001,0,0.002,0,0.002v17.511c0,1.928,1.568,3.496,3.496,3.496h7.429
		c1.928,0,3.496-1.568,3.496-3.496v-28.86c0-1.345-0.764-2.513-1.879-3.098v-20.14l0.336-2.281h0.575l0.638,1.095
		c0.244,0.421,0.694,0.679,1.181,0.679h5.427c0.755,0,1.366-0.611,1.366-1.365V1.366C66.176,0.611,65.563,0,64.81,0z M55.799,66.504
		c0,0.421-0.343,0.764-0.764,0.764h-2.721v-2.721c0-0.755-0.612-1.366-1.366-1.366c-0.755,0-1.366,0.611-1.366,1.366v2.721h-1.976
		c-0.421,0-0.764-0.343-0.764-0.764V51.521v-2.528v-3.294c0-0.001,0-0.001,0-0.002v-8.054c0-0.421,0.343-0.764,0.764-0.764h3.137
		v3.792c0,0.754,0.612,1.366,1.366,1.366c0.755,0,1.366-0.612,1.366-1.366V36.88h1.56c0.421,0,0.764,0.343,0.764,0.764V66.504z
		 M48.722,34.147V15.673h5.199v18.475H48.722z M63.443,11.167h-3.275l-0.637-1.096c-0.245-0.42-0.694-0.679-1.181-0.679h-2.542
		c-0.678,0-1.253,0.497-1.352,1.167l-0.351,2.381h-5.588c-0.586-1.931-2.384-3.339-4.503-3.339h-3.548
		c-2.815,0-5.182,1.962-5.801,4.592h-0.852v-2.722c0-4.819,3.92-8.739,8.739-8.739h11.71l0.233,0.793
		c0.171,0.582,0.704,0.98,1.311,0.98h2.542c0.486,0,0.936-0.259,1.181-0.679l0.637-1.095h3.275V11.167z"/>
    </symbol>
    <symbol  viewBox="0 0 70 70" id="catalog-7-cable">
        <path fill="#3D3D3B" d="M31.658,9.096c-14.297,0.017-25.884,11.604-25.9,25.9c0,14.305,11.595,25.9,25.9,25.9
		c14.304,0,25.9-11.596,25.9-25.9S45.962,9.096,31.658,9.096z M31.658,58.385c-12.916,0-23.388-10.471-23.388-23.389
		c0-12.917,10.472-23.387,23.388-23.387c12.911,0.014,23.374,10.476,23.388,23.387C55.046,47.914,44.575,58.385,31.658,58.385z"/>
        <path fill="#3D3D3B" d="M31.658,14.853c-11.121,0.012-20.132,9.023-20.145,20.144c0,11.126,9.02,20.145,20.145,20.145
		c11.125,0,20.145-9.019,20.145-20.145S42.783,14.853,31.658,14.853z M31.658,52.514c-9.674,0-17.517-7.843-17.517-17.518
		c0-9.674,7.843-17.517,17.517-17.517c9.67,0.011,17.505,7.847,17.517,17.517C49.175,44.671,41.332,52.514,31.658,52.514z"/>
        <path fill="#3D3D3B" d="M31.658,20.607c-7.943,0.01-14.379,6.446-14.389,14.389c0,7.947,6.442,14.39,14.389,14.39
		s14.389-6.442,14.389-14.39C46.047,27.05,39.604,20.607,31.658,20.607z M31.658,46.758c-6.496,0-11.761-5.267-11.761-11.762
		c0-6.495,5.265-11.761,11.761-11.761c6.492,0.007,11.754,5.269,11.762,11.761C43.42,41.491,38.152,46.758,31.658,46.758z"/>
        <path fill="#3D3D3B" d="M70,3.341H31.658C14.396,3.338,0.315,17.166,0.005,34.425c-0.308,17.258,13.268,31.583,30.519,32.198
		l39.468,0.036v-8.662L53.352,58.02c6.357-5.971,9.963-14.303,9.963-23.023c0-8.72-3.605-17.053-9.963-23.021H70V3.341z
		 M64.244,60.896h2.878v2.878h-2.878V60.896z M61.365,60.896v2.878H44.821c1.752-0.805,3.427-1.769,5.003-2.878H61.365z
		 M60.437,34.996c0,15.893-12.886,28.778-28.779,28.778c-15.894,0-28.778-12.886-28.778-28.778
		c0-15.894,12.884-28.777,28.778-28.777C47.545,6.236,60.418,19.11,60.437,34.996z M49.824,9.096
		c-1.576-1.109-3.251-2.073-5.004-2.877h16.545v2.877H49.824z M67.122,9.096h-2.878V6.219h2.878V9.096z"/>
    </symbol>

    <symbol  viewBox="0 0 70 70" id="catalog-8">
        <path fill="#3C3C3B" d="M59.469,56.674c0.706,0,1.277-0.571,1.277-1.278s-0.571-1.278-1.277-1.278h-3.308
				c-0.707,0-1.278,0.571-1.278,1.278s0.571,1.278,1.278,1.278H59.469z"/>
        <path fill="#3C3C3B" d="M55.045,28.769c-0.58-0.152-1.175,0.194-1.328,0.775c-0.152,0.581,0.195,1.175,0.775,1.328
				c2.048,0.538,3.936,1.419,5.605,2.571H48.925c-0.601,0-1.087,0.486-1.087,1.087c0,0.601,0.486,1.087,1.087,1.087h13.763
				c2.981,3.031,4.859,6.65,5.109,11.07H50.342c-0.601,0-1.087,0.929-1.087,1.529c0,0.602,0.486,1.088,1.087,1.088h17.447
				c-0.6,9.112-8.206,16.498-17.473,16.699c-0.026,0.002-0.055,0.002-0.082,0.006H39.146c-0.602,0-1.088,0.486-1.088,1.088
				c0,0.6,0.486,1.086,1.088,1.086h11.195c0.045,0,0.09-0.004,0.133-0.008c5.229-0.143,10.121-2.273,13.789-6.007
				C67.963,58.4,70,53.423,70,48.146C70,39.051,63.852,31.081,55.045,28.769z"/>
        <path fill="#3C3C3B" d="M47.106,61.625c0,0.754,0.61,1.363,1.363,1.363h6.474c0.754,0,1.363-0.609,1.363-1.363
				c0-0.753-0.609-1.361-1.363-1.361H48.47C47.717,60.264,47.106,60.874,47.106,61.625z"/>
        <path fill="#3C3C3B" d="M14.866,48.146c0,2.872,2.34,5.205,5.215,5.205s5.215-2.333,5.215-5.205c0-2.871-2.34-5.206-5.215-5.206
				S14.866,45.276,14.866,48.146z M20.081,45.381c1.531,0,2.778,1.24,2.778,2.766c0,1.526-1.246,2.77-2.778,2.77
				c-1.531,0-2.777-1.241-2.777-2.77C17.304,46.621,18.55,45.381,20.081,45.381z"/>
        <path fill="#3C3C3B" d="M34.925,66.01h-5.751c1.363-0.693,2.636-1.537,3.798-2.51c0.053-0.037,0.104-0.081,0.151-0.128
				c0.003-0.002,0.006-0.007,0.009-0.009c2.291-1.959,4.138-4.424,5.36-7.217h12.543c0.6,0,1.087-0.485,1.087-1.086
				c0-0.602-0.487-1.088-1.087-1.088H39.297c0.562-1.846,0.865-3.802,0.865-5.826c0-1.975-0.287-3.883-0.822-5.687h13.112
				c0.601,0,1.087-0.485,1.087-1.087s-0.486-1.088-1.087-1.088H38.553c-1.855-4.327-5.197-7.875-9.379-10.002h21.092
				c0.024,0.001,0.051,0.002,0.076,0.002c0.602,0,1.088-0.49,1.088-1.09c0-0.6-0.486-1.087-1.088-1.087h-1.504l-5.136-5.19
				c-0.978-0.974-2.433-1.185-3.616-0.633l-2.057-2.052c1.488-1.824,2.383-4.151,2.383-6.682c0-5.407-4.062-9.935-9.447-10.532
				L19.123,1.707c-0.329-0.036-0.655,0.079-0.889,0.312c-0.233,0.234-0.349,0.561-0.312,0.889l1.316,11.814
				c0.598,5.374,5.135,9.426,10.554,9.426c2.537,0,4.869-0.893,6.696-2.379l2.057,2.05c-0.197,0.419-0.302,0.88-0.302,1.357
				c0,0.854,0.334,1.655,0.938,2.259l0.605,0.673H20.364c-0.018,0-0.035,0-0.053,0.001c-0.077-0.001-0.153-0.001-0.23-0.001
				C9.009,28.109,0,37.098,0,48.146c0,11.047,9.009,20.037,20.081,20.037c0.074,0,0.149-0.002,0.223-0.002
				c0.019,0.002,0.037,0.002,0.056,0.002h14.565c0.601,0,1.087-0.486,1.087-1.088C36.012,66.495,35.525,66.01,34.925,66.01z
				 M36.48,18.689L31,13.219c-0.425-0.424-1.113-0.423-1.537,0.002c-0.424,0.425-0.423,1.113,0.002,1.538l5.476,5.466
				c-1.426,1.097-3.212,1.75-5.148,1.75c-4.31,0-7.918-3.221-8.394-7.493L20.233,4.018l10.492,1.163
				c4.283,0.475,7.513,4.073,7.513,8.371C38.238,15.484,37.582,17.266,36.48,18.689z M40.717,25.896
				c-0.191-0.192-0.298-0.448-0.298-0.719c0-0.271,0.104-0.527,0.298-0.719c0.399-0.399,1.051-0.399,1.449,0l3.593,3.651h-2.891
				L40.717,25.896z M21.168,30.315c9.369,0.563,16.82,8.347,16.82,17.832c0,5.098-2.152,9.703-5.597,12.959l-2.407-2.398
				c2.828-2.643,4.597-6.398,4.597-10.561c0-2.319-0.533-4.535-1.586-6.584c-0.273-0.535-0.929-0.746-1.463-0.474
				c-0.534,0.274-0.745,0.931-0.472,1.464c0.894,1.741,1.347,3.623,1.347,5.594c0,3.562-1.527,6.774-3.962,9.022l-1.944-1.938
				c1.938-1.75,3.156-4.278,3.156-7.084c0-4.902-3.719-8.955-8.488-9.494h-0.001v-2.756c2.872,0.25,5.542,1.482,7.608,3.537
				c0.426,0.422,1.114,0.42,1.537-0.006c0.424-0.428,0.421-1.115-0.005-1.537c-2.478-2.461-5.689-3.92-9.141-4.175L21.168,30.315
				L21.168,30.315z M20.081,42.637c0.601,0,1.087-0.486,1.087-1.087v-0.704c3.568,0.524,6.314,3.6,6.314,7.301
				c0,2.207-0.977,4.193-2.522,5.547L24.366,53.1c-0.425-0.422-1.113-0.422-1.537,0.002c-0.424,0.428-0.423,1.114,0.002,1.539
				l0.254,0.252c-0.918,0.408-1.935,0.637-3.004,0.637c-0.621,0-1.237-0.076-1.833-0.229c-0.581-0.146-1.174,0.205-1.321,0.786
				c-0.147,0.582,0.204,1.173,0.786,1.321c0.771,0.195,1.567,0.294,2.368,0.294c1.677,0,3.254-0.433,4.626-1.19l2.002,1.996
				c-1.915,1.225-4.189,1.934-6.628,1.934c-6.43,0-11.725-4.936-12.278-11.207h0.319c0.601,0,1.087-0.486,1.087-1.088
				c0-0.601-0.486-1.086-1.087-1.086H7.803c0.522-5.914,5.262-10.643,11.191-11.162v2.756c-4.771,0.539-8.488,4.591-8.488,9.492
				c0,2.888,1.287,5.59,3.531,7.414c0.466,0.379,1.15,0.307,1.529-0.158s0.309-1.15-0.158-1.529
				c-1.733-1.41-2.729-3.497-2.729-5.727c0-3.701,2.747-6.775,6.314-7.301v0.704C18.994,42.15,19.48,42.637,20.081,42.637z
				 M18.994,30.315v3.402c-7.13,0.529-12.84,6.229-13.372,13.342H2.207C2.751,38.072,9.985,30.856,18.994,30.315z M20.081,66.01
				c-9.508,0-17.309-7.432-17.874-16.775h3.414c0.56,7.473,6.831,13.383,14.46,13.383c3.041,0,5.865-0.938,8.198-2.541l2.438,2.434
				C27.742,64.707,24.062,66.01,20.081,66.01z"/>
    </symbol>

    <symbol  viewBox="0 0 70 70" id="catalog-9">
        <path fill="#3C3C3B" d="M68.833,0H49c-3.866,0-7,3.134-7,7c-0.007,2.122-1.445,3.973-3.5,4.503V7.759
			c1.705-1.934,1.52-4.883-0.413-6.587c-1.934-1.705-4.882-1.52-6.587,0.413c-1.556,1.764-1.556,4.409,0,6.174v3.744
			C29.445,10.973,28.007,9.122,28,7c0-3.866-3.134-7-7-7H1.167C0.522,0,0,0.522,0,1.167c-0.001,3.448,2.509,6.384,5.915,6.918
			c0.471,3.006,2.828,5.363,5.833,5.833c0.535,3.407,3.471,5.917,6.919,5.915H31.5v17.5h-9.333c-1.934,0-3.5-1.566-3.5-3.5
			c0-1.933,1.566-3.5,3.5-3.5H28c0.645,0,1.167-0.522,1.167-1.166v-2.334c0.001-0.31-0.12-0.607-0.339-0.828l-3.5-3.5
			c-0.22-0.218-0.518-0.34-0.828-0.338h-2.333c-6.443,0.016-11.654,5.252-11.638,11.695c0.013,5.222,3.494,9.799,8.522,11.206
			c-0.253,0.9-0.382,1.83-0.385,2.765c0.002,4.233,2.546,8.052,6.451,9.684c-0.229,0.836-0.347,1.699-0.35,2.566
			c-0.005,5.326,4.198,9.704,9.52,9.917h0.129h0.268H35c5.233-0.32,9.318-4.65,9.333-9.894c0-0.762-0.091-1.521-0.268-2.263
			c5.334-1.729,8.37-7.343,6.895-12.752c6.218-1.689,9.889-8.1,8.199-14.317c-1.387-5.105-6.035-8.639-11.326-8.607H45.5
			c-0.311-0.002-0.608,0.12-0.828,0.338l-3.5,3.5c-0.219,0.221-0.34,0.519-0.339,0.828v2.334c0,0.644,0.522,1.166,1.167,1.166h5.833
			c1.934,0,3.5,1.567,3.5,3.5c0,1.934-1.566,3.5-3.5,3.5H38.5v-17.5h12.833c3.448,0.002,6.384-2.508,6.919-5.915
			c3.005-0.47,5.362-2.827,5.833-5.833c3.406-0.534,5.916-3.47,5.915-6.918C70,0.522,69.478,0,68.833,0z M35,2.333
			c1.289,0,2.333,1.045,2.333,2.334c-0.001,0.664-0.285,1.296-0.781,1.738c-0.248,0.223-0.388,0.541-0.385,0.875v30.053h-2.334V7.28
			c0.003-0.334-0.137-0.652-0.385-0.875c-0.496-0.442-0.78-1.074-0.781-1.738C32.667,3.378,33.711,2.333,35,2.333z M18.667,17.5
			c-2.127-0.002-3.983-1.44-4.516-3.5h5.682C20.478,14,21,13.478,21,12.833c0-0.644-0.522-1.166-1.167-1.166h-7
			c-2.126-0.002-3.983-1.441-4.515-3.5h6.849c0.644,0,1.166-0.522,1.166-1.167s-0.522-1.167-1.166-1.167H7
			c-2.126-0.001-3.983-1.44-4.515-3.5H21c2.577,0,4.667,2.09,4.667,4.667c0.003,3.413,2.468,6.326,5.833,6.895V17.5H18.667z
			 M12.833,33.833c0-5.154,4.179-9.333,9.334-9.333h1.854l2.812,2.812V28h-4.666c-3.222,0-5.834,2.611-5.834,5.833
			s2.612,5.834,5.834,5.834h0.42c-1.098,0.883-2.006,1.978-2.672,3.22C15.756,41.853,12.835,38.119,12.833,33.833z M32.935,61.18
			c-0.019-1.553,1.225-2.827,2.777-2.846c0.012-0.001,0.022-0.001,0.035-0.001h0.42v2.812c-0.004,0.831-0.375,1.617-1.016,2.147
			l-0.77,0.642L33.588,63C33.173,62.483,32.942,61.843,32.935,61.18z M34.557,67.667h-0.198c-0.109-0.017-0.199-0.094-0.233-0.198
			c-0.052-0.121-0.014-0.262,0.094-0.339l2.438-2.03c1.171-0.979,1.847-2.428,1.844-3.955v-2.812h2.333c0.315,0,0.619,0,0.922,0
			c0.154,0.571,0.236,1.159,0.245,1.75C42.007,64.22,38.692,67.597,34.557,67.667z M40.833,56h-5.086
			c-2.849,0.007-5.151,2.32-5.146,5.168c0,0.004,0,0.008,0,0.012c0.018,1.181,0.428,2.322,1.167,3.243l0.84,1.027
			c-0.455,0.434-0.737,1.019-0.793,1.645c-3.873-1.595-5.719-6.027-4.124-9.899c1.168-2.835,3.928-4.688,6.993-4.695h6.148
			c2.578,0,4.667-2.09,4.667-4.667c-0.004-0.822-0.229-1.628-0.653-2.333h2.986c0.28,0,0.549,0,0.817,0
			c0.229,0.757,0.347,1.543,0.35,2.333C49,52.344,45.344,56,40.833,56z M29.167,50.167c-1.289,0-2.334-1.045-2.334-2.334
			c0-1.288,1.045-2.333,2.334-2.333H31.5v4.667H29.167z M33.833,50.167V45.5h2.334v4.667H33.833z M38.5,50.167V45.5h2.333
			c1.289,0,2.334,1.045,2.334,2.333c0,1.289-1.045,2.334-2.334,2.334H38.5z M47.833,39.667c3.222,0,5.834-2.612,5.834-5.834
			S51.055,28,47.833,28h-4.666v-0.688l2.812-2.812h1.854c5.155,0,9.334,4.179,9.334,9.333c0,5.155-4.179,9.334-9.334,9.334H29.167
			c-2.577,0.052-4.624,2.183-4.572,4.76c0.045,2.208,1.632,4.082,3.802,4.491c-0.983,0.814-1.803,1.809-2.415,2.929
			c-4.149-1.768-6.08-6.564-4.312-10.714c1.281-3.006,4.23-4.96,7.498-4.966H47.833L47.833,39.667z M63,5.833h-8.167
			c-0.644,0-1.166,0.522-1.166,1.167s0.522,1.167,1.166,1.167h6.849c-0.532,2.059-2.389,3.498-4.515,3.5h-7
			c-0.645,0-1.167,0.522-1.167,1.166C49,13.478,49.522,14,50.167,14h5.682c-0.532,2.06-2.389,3.498-4.516,3.5H38.5v-3.605
			c3.365-0.568,5.83-3.481,5.833-6.895c0-2.577,2.09-4.667,4.667-4.667h18.515C66.983,4.393,65.127,5.832,63,5.833z"/>
    </symbol>
    <symbol  viewBox="0 0 70 70" id="catalog-10">
        <path fill="#3C3C3B" d="M45.251,0.805C45.082,0.324,44.626,0,44.117,0H25.689c-0.662,0-1.2,0.539-1.2,1.201v5.614h-3.657V1.201
		c0-0.663-0.539-1.201-1.2-1.201H1.203c-0.51,0-0.966,0.324-1.136,0.805c-0.168,0.48-0.014,1.018,0.386,1.335l12.491,11.342v14.223
		c0,0.663,0.539,1.201,1.202,1.201c0.663,0,1.201-0.539,1.201-1.201V12.889c0-0.368-0.165-0.709-0.453-0.938L4.755,2.403H18.43
		v5.613c0,0.663,0.539,1.202,1.202,1.202h6.057c0.663,0,1.202-0.539,1.202-1.202V2.403h13.672L30.45,11.932
		c-0.31,0.248-0.475,0.59-0.475,0.958v6.748l-9.592,4.098c-0.609,0.261-0.893,0.968-0.633,1.578
		c0.189,0.443,0.623,0.729,1.105,0.729h0c0.162,0,0.32-0.033,0.471-0.097l10.321-4.408c0.443-0.189,0.73-0.624,0.73-1.105v-6.949
		L44.85,2.155C45.265,1.822,45.42,1.285,45.251,0.805z"/>
        <path fill="#3C3C3B" d="M31.838,24.844c-0.197-0.13-0.426-0.199-0.663-0.199c-0.163,0-0.321,0.033-0.472,0.097l-17.028,7.273
		c-0.444,0.189-0.73,0.623-0.73,1.105v4.997c0,0.405,0.202,0.78,0.539,1.003c0.333,0.22,0.771,0.258,1.134,0.103l17.029-7.274
		c0.444-0.189,0.73-0.623,0.73-1.105v-4.997C32.376,25.442,32.175,25.067,31.838,24.844z M29.974,30.052l-14.625,6.247v-2.384
		l14.625-6.248V30.052z"/>
        <path fill="#3C3C3B" d="M31.838,34.742c-0.197-0.13-0.426-0.199-0.663-0.199c-0.163,0-0.321,0.032-0.472,0.097l-17.028,7.274
		c-0.443,0.189-0.73,0.623-0.73,1.103v5c0,0.403,0.202,0.778,0.539,1.001c0.332,0.219,0.766,0.26,1.134,0.103l17.029-7.275
		c0.443-0.189,0.73-0.622,0.73-1.103v-4.999C32.376,35.339,32.175,34.964,31.838,34.742z M29.974,39.949l-14.625,6.247v-2.385
		l14.625-6.249V39.949z"/>
        <path fill="#3C3C3B" d="M31.175,44.925c-0.663,0-1.202,0.54-1.202,1.201V61.98l-7.343,5.356l-7.283-4.871v-8.273l8.325-3.556
		c0.609-0.26,0.893-0.968,0.633-1.577c-0.19-0.443-0.624-0.73-1.106-0.73c-0.162,0-0.321,0.032-0.472,0.098l-9.054,3.868
		c-0.443,0.189-0.73,0.622-0.73,1.104v9.709c0,0.401,0.199,0.775,0.534,0.998l8.514,5.694c0.411,0.276,0.973,0.266,1.376-0.028
		l8.514-6.208c0.308-0.227,0.493-0.589,0.493-0.971V46.126c0.001-0.321-0.124-0.623-0.349-0.849
		C31.799,45.05,31.497,44.925,31.175,44.925z"/>

        <path fill="#3C3C3B" d="M69.25,25.039l-14.941-8.591c-0.461-0.264-1.027-0.264-1.488,0l-14.941,8.591
	c-0.463,0.267-0.749,0.761-0.749,1.295v17.257c0,0.533,0.283,1.025,0.744,1.292l14.94,8.667c0.232,0.136,0.49,0.201,0.75,0.201
	c0.261,0,0.519-0.065,0.75-0.2l14.941-8.667c0.46-0.269,0.744-0.76,0.744-1.293V26.334C70,25.799,69.714,25.305,69.25,25.039z
	 M67.391,42.948l-13.826,8.019l-13.826-8.019V26.979l13.826-7.95l13.826,7.95V42.948L67.391,42.948z"/>
        <path fill="#3C3C3B" d="M45.162,34.701c0,4.634,3.769,8.402,8.402,8.402s8.402-3.769,8.402-8.402c0-4.634-3.769-8.403-8.402-8.403
	S45.162,30.068,45.162,34.701z M59.541,34.701c0,3.296-2.682,5.977-5.977,5.977s-5.978-2.681-5.978-5.977
	c0-3.295,2.683-5.976,5.978-5.976S59.541,31.406,59.541,34.701z"/>
        <path fill="#3C3C3B" d="M41.611,34.701c0,0.413,0.334,0.747,0.746,0.747c0.414,0,0.748-0.334,0.748-0.747
	c0-5.767,4.69-10.459,10.459-10.459c0.412,0,0.746-0.334,0.746-0.747c0-0.412-0.334-0.747-0.746-0.747
	C46.975,22.748,41.611,28.111,41.611,34.701z"/>
        <path fill="#3C3C3B" d="M53.564,45.16c-0.414,0-0.748,0.335-0.748,0.746c0,0.412,0.334,0.748,0.748,0.748
	c6.59,0,11.953-5.362,11.953-11.953c0-0.412-0.334-0.747-0.748-0.747c-0.412,0-0.746,0.335-0.746,0.747
	C64.023,40.469,59.332,45.16,53.564,45.16z"/>

    </symbol>
    <symbol  viewBox="0 0 70 70" id="catalog-11">
        <circle fill="#3C3C3B" cx="40.43" cy="33.099" r="1.606"/>
        <circle fill="#3C3C3B" cx="35" cy="24.954" r="1.606"/>
        <circle fill="#3C3C3B" cx="51.288" cy="60.25" r="1.605"/>
        <path fill="#3C3C3B" d="M62.15,55.469L44.751,24.534V8.332c1.631-0.654,2.715-2.245,2.715-4.011C47.466,1.938,45.527,0,43.145,0
		h-16.29c-2.382,0-4.321,1.938-4.321,4.321c0,1.767,1.084,3.356,2.715,4.011v16.202l-17.4,30.935
		c-1.717,3.053-1.687,6.68,0.081,9.703S12.845,70,16.347,70h37.307c3.503,0,6.648-1.805,8.416-4.828S63.868,58.521,62.15,55.469z
		 M53.654,66.788H16.347c-2.348,0-4.458-1.21-5.645-3.237c-1.186-2.027-1.206-4.461-0.054-6.508l5.656-10.055
		c3.171,1.08,6.474,1.546,9.813,1.382c3.824-0.188,7.518-1.194,10.979-2.985c3.41-1.765,7.034-2.66,10.772-2.66
		c1.192,0,2.397,0.096,3.588,0.279l7.896,14.039c1.151,2.047,1.133,4.48-0.055,6.508C58.109,65.579,56.001,66.788,53.654,66.788z
		 M26.855,3.211h16.29c0.612,0,1.109,0.498,1.109,1.109c0,0.611-0.497,1.11-1.109,1.11h-4.416c-0.886,0-1.605,0.72-1.605,1.605
		c0,0.885,0.721,1.606,1.605,1.606h2.812v16.313c0,0.275,0.071,0.548,0.207,0.787l7.774,13.821
		c-4.826-0.295-9.527,0.705-13.901,2.972c-3.424,1.771-7.052,2.669-10.781,2.669c-2.334,0-4.664-0.359-6.93-1.069l10.346-18.393
		c0.135-0.239,0.206-0.511,0.206-0.787V8.642h2.81c0.885,0,1.606-0.721,1.606-1.606c0-0.885-0.721-1.606-1.606-1.606h-4.416
		c-0.612,0-1.109-0.498-1.109-1.109C25.746,3.71,26.243,3.211,26.855,3.211z"/>
        <path fill="#3C3C3B" d="M25.25,35.814c0,2.383,1.938,4.319,4.32,4.319c2.383,0,4.321-1.938,4.321-4.319
		c0-2.382-1.938-4.321-4.321-4.321C27.188,31.494,25.25,33.432,25.25,35.814z M29.569,38.121c-1.272,0-2.307-1.032-2.307-2.307
		c0-1.272,1.034-2.306,2.307-2.306c1.274,0,2.308,1.036,2.308,2.306C31.877,37.089,30.843,38.121,29.569,38.121z"/>
        <path fill="#3C3C3B" d="M18.708,61.855h27.15c0.885,0,1.605-0.721,1.605-1.604c0-0.886-0.721-1.606-1.605-1.606h-27.15
		c-0.885,0-1.604,0.722-1.604,1.606C17.102,61.137,17.824,61.855,18.708,61.855z"/>
    </symbol>
    <symbol  viewBox="0 0 70 70" id="catalog-12">
        <path fill="#3C3C3B" d="M0-0.181v70h70v-70H0z M40.734,36.393h4.161v-3.146h-4.161v-5.175h4.161v-3.147h-4.161v-5.175h4.161v-3.146
		h-4.161v-5.175h4.161V8.28h-4.161V2.966h9.336v38.741h-9.336V36.393z M28.251,36.393h4.161v-3.146h-4.161v-5.175h4.161v-3.147
		h-4.161v-5.175h4.161v-3.146h-4.161v-5.175h4.161V8.28h-4.161V2.966h9.336v38.741h-9.336V36.393z M66.854,66.673H3.146V2.966
		h21.958v41.888h41.749V66.673z M66.854,41.707H53.217v-5.314h4.161v-3.146h-4.161v-5.175h4.161v-3.147h-4.161v-5.175h4.161v-3.146
		h-4.161v-5.175h4.161V8.28h-4.161V2.966h13.637V41.707z"/>
        <path fill="#3C3C3B" d="M8.322,51.095h11.469V27.143H8.322V51.095z M11.469,30.29h5.175v17.659h-5.175V30.29z"/>
        <rect x="41.749" y="50.028" fill="#3C3C3B" width="3.146" height="3.147"/>
        <rect x="41.749" y="58.351" fill="#3C3C3B" width="3.146" height="3.146"/>
        <rect x="33.427" y="50.028" fill="#3C3C3B" width="3.146" height="3.147"/>
        <rect x="33.427" y="58.351" fill="#3C3C3B" width="3.146" height="3.146"/>
        <rect x="25.104" y="50.028" fill="#3C3C3B" width="3.147" height="3.147"/>
        <rect x="25.104" y="58.351" fill="#3C3C3B" width="3.147" height="3.146"/>
        <path fill="#3C3C3B" d="M8.322,19.957h11.469V8.488H8.322V19.957z M11.469,11.635h5.175v5.175h-5.175V11.635z"/>
    </symbol>
    <symbol  viewBox="0 0 70 70" id="catalog-13">
        <path fill="#3C3C3B" d="M62.811,0H7.19C3.226,0,0,3.226,0,7.19v55.621C0,66.773,3.226,70,7.19,70h55.621
		C66.775,70,70,66.773,70,62.811V7.19C70,3.226,66.773,0,62.811,0z M66.744,62.811L66.744,62.811
		c-0.001,2.168-1.766,3.935-3.936,3.935H7.19c-2.168,0-3.933-1.767-3.933-3.935V7.19c0-2.168,1.765-3.933,3.933-3.933h55.621
		c2.168,0,3.935,1.765,3.935,3.933L66.744,62.811L66.744,62.811z"/>
        <path fill="#3C3C3B" d="M12.751,36.628h44.496c0.897,0,1.629-0.729,1.629-1.628V12.751c0-0.897-0.729-1.628-1.629-1.628H12.751
		c-0.897,0-1.628,0.73-1.628,1.628V35C11.123,35.898,11.853,36.628,12.751,36.628z M36.628,14.38h18.991v12.05l-0.615-0.246
		c-2.562-1.025-5.26-1.595-8.02-1.695l-0.176-0.006L42.825,20.5c-0.616-0.615-1.687-0.614-2.302,0
		c-0.31,0.308-0.479,0.717-0.479,1.151c0,0.435,0.17,0.844,0.479,1.152l1.938,1.938L41.63,24.9
		c-1.496,0.286-2.972,0.719-4.387,1.284l-0.615,0.247V14.38z M36.628,30.042l0.248-0.124c5.702-2.863,12.795-2.862,18.496-0.001
		l0.247,0.124v3.331H36.628V30.042z M14.38,14.38h18.992v12.051l-0.615-0.247c-1.414-0.565-2.89-0.998-4.387-1.284l-0.832-0.16
		l1.939-1.938c0.635-0.635,0.635-1.668,0-2.303c-0.614-0.614-1.688-0.614-2.303,0l-3.983,3.983l-0.176,0.006
		c-2.759,0.1-5.457,0.67-8.02,1.696l-0.615,0.247V14.38z M14.38,30.042l0.248-0.124c5.705-2.864,12.796-2.862,18.497-0.001
		l0.248,0.124v3.331h-0.001H14.38V30.042z"/>
        <path fill="#3C3C3B" d="M35,42.27H12.751c-0.897,0-1.628,0.73-1.628,1.629v11.125c0,0.897,0.73,1.627,1.628,1.627h9.496v2.822
		c0,0.897,0.73,1.627,1.628,1.627s1.628-0.729,1.628-1.627V56.65H35c0.898,0,1.628-0.729,1.628-1.627V43.898
		C36.628,43.001,35.898,42.27,35,42.27z M33.372,53.395H14.38v-7.867h18.992V53.395z"/>
        <path fill="#3C3C3B" d="M46.123,44.495c-0.428,0-0.848,0.174-1.15,0.478c-0.304,0.303-0.478,0.723-0.478,1.15
		c0,0.427,0.174,0.85,0.478,1.152c0.605,0.604,1.695,0.604,2.303,0c0.305-0.303,0.479-0.726,0.479-1.152
		c0-0.428-0.175-0.848-0.479-1.15C46.971,44.669,46.551,44.495,46.123,44.495z"/>
        <path fill="#3C3C3B" d="M46.124,55.62c-0.429,0-0.849,0.174-1.151,0.476c-0.303,0.305-0.477,0.725-0.477,1.152
		c0,0.427,0.173,0.848,0.477,1.15c0.609,0.605,1.691,0.606,2.303,0c0.305-0.303,0.479-0.724,0.479-1.15
		c0-0.428-0.174-0.85-0.479-1.152C46.973,55.794,46.553,55.62,46.124,55.62z"/>
        <path fill="#3C3C3B" d="M57.248,44.495c-0.43,0-0.85,0.174-1.152,0.478c-0.302,0.303-0.476,0.723-0.476,1.15
		c0,0.427,0.174,0.85,0.478,1.152c0.604,0.604,1.695,0.604,2.303,0c0.304-0.305,0.479-0.727,0.479-1.152
		c0-0.428-0.175-0.848-0.479-1.15C58.096,44.669,57.678,44.495,57.248,44.495z"/>
        <path fill="#3C3C3B" d="M57.248,55.62c-0.43,0-0.85,0.174-1.152,0.478c-0.302,0.303-0.476,0.723-0.476,1.15
		c0,0.427,0.174,0.848,0.476,1.15c0.606,0.605,1.697,0.605,2.305,0c0.304-0.305,0.479-0.726,0.479-1.15
		c0-0.428-0.175-0.848-0.479-1.152C58.096,55.794,57.678,55.62,57.248,55.62z"/>
    </symbol>
    <symbol  viewBox="0 0 70 70" id="catalog-14">
        <path fill="#3C3C3B" d="M68.594,0H1.407C0.631,0,0,0.631,0,1.407v67.187C0,69.369,0.631,70,1.407,70h67.187
		C69.37,70,70,69.369,70,68.594V1.407C70,0.631,69.37,0,68.594,0z M9.267,67.188H2.813V2.813h6.454V67.188z M12.08,12.081h4.561
		l41.278,41.278v4.561h-4.56L32.522,37.141L18.623,23.241l-6.543-6.6V12.081z M20.621,12.081h2.546v2.546L20.621,12.081z
		 M25.981,17.441v-5.36h4.137v9.497L25.981,17.441z M32.932,24.391v-12.31h4.138v16.447L32.932,24.391z M49.379,57.919h-2.548
		v-2.546L49.379,57.919z M38.477,50.576c-0.776,0-1.406,0.63-1.406,1.406v5.937h-4.138V41.473L44.02,52.561v5.358h-4.139v-5.937
		C39.881,51.206,39.251,50.576,38.477,50.576z M25.569,38.245c-0.265-0.267-0.619-0.412-0.995-0.412
		c-0.776,0-1.407,0.632-1.407,1.408v18.678H19.03V27.572l11.087,11.086v19.261H25.98V39.241
		C25.981,38.865,25.835,38.512,25.569,38.245z M16.218,24.758v33.161H12.08V20.621L16.218,24.758z M57.92,67.188H12.081v-6.453
		H57.92V67.188z M57.92,49.379l-4.138-4.137V15.308c0-0.776-0.632-1.407-1.406-1.407s-1.405,0.631-1.405,1.407V42.43l-11.09-11.088
		V12.081h4.139v19.837c0,0.776,0.631,1.407,1.406,1.407s1.405-0.631,1.405-1.407V12.081H57.92V49.379z M57.92,9.267H12.081V2.813
		H57.92V9.267z M67.188,67.188h-6.455V2.813h6.455V67.188z"/>
        <circle fill="#3C3C3B" cx="63.959" cy="6.603" r="1.159"/>
        <circle fill="#3C3C3B" cx="63.959" cy="63.397" r="1.159"/>
        <circle fill="#3C3C3B" cx="6.04" cy="6.603" r="1.159"/>
        <circle fill="#3C3C3B" cx="6.04" cy="63.397" r="1.159"/>
    </symbol>
    <symbol  viewBox="0 0 70 70" id="catalog-15">
        <path fill="#3C3C3B" d="M65.529,30.53c0-0.812-0.661-1.473-1.473-1.473c-6.861,0-7.425-4.363-7.468-5.238V1.473
	c0-0.812-0.66-1.473-1.472-1.473h-8.94c-0.813,0-1.475,0.661-1.475,1.473c0,5.351-4.353,9.703-9.704,9.703
	c-5.35,0-9.703-4.353-9.703-9.703C25.294,0.661,24.634,0,23.822,0h-8.939c-0.812,0-1.473,0.661-1.473,1.473v22.32
	c-0.004,0.219-0.181,5.265-7.468,5.265c-0.812,0-1.473,0.661-1.473,1.473v37.998c0,0.392,0.153,0.761,0.431,1.039
	C5.179,69.847,5.548,70,5.942,70h22.351c0.395,0,0.765-0.152,1.04-0.43l5.666-5.667l5.665,5.665C40.941,69.847,41.312,70,41.704,70
	h22.353c0.812,0,1.473-0.661,1.473-1.473V30.53z M33.525,61.213l-5.842,5.842H7.414V56.588h26.111V61.213z M33.525,53.645H7.414
	v-3.761h26.111V53.645z M33.525,46.938H7.414v-5.996h26.111V46.938z M33.526,24.587H20.114v2.945h4.47v2.235h2.945v-2.235h5.996
	v10.466H7.414v-6.042l0.665-0.085c6.455-0.841,8.239-5.46,8.275-8.057V2.945h6.064l0.107,0.636
	c0.895,5.306,5.06,9.471,10.365,10.365l0.636,0.107V24.587z M62.585,67.055H42.314l-5.843-5.842V56.59h26.113V67.055z
	 M62.585,53.645H36.472v-3.761h26.113V53.645z M62.585,46.938H36.472v-5.996h26.113V46.938z M62.585,37.998H36.472V27.532h5.995
	v2.235h2.945v-2.235h4.471v-2.945H36.472V14.052l0.635-0.107c5.306-0.894,9.472-5.059,10.366-10.365l0.107-0.636h6.063v20.879
	c0.037,2.591,1.82,7.206,8.277,8.047l0.664,0.085V37.998z"/>
    </symbol>
    <symbol  viewBox="0 0 70 70" id="catalog-16">
        <path fill="#3C3C3B" d="M9.199,45.167h7.934c0.704,0,1.28-0.575,1.28-1.278v-5.506c0-0.701-0.576-1.277-1.28-1.277H9.199
		c-0.704,0-1.28,0.576-1.28,1.277v5.506C7.919,44.592,8.495,45.167,9.199,45.167z M10.478,39.665h5.375v2.942h-5.375V39.665z"/>
        <rect x="50.238" y="21.841" fill="#3C3C3B" width="2.93" height="2.93"/>
        <rect x="39.982" y="7.924" fill="#3C3C3B" width="2.931" height="2.93"/>
        <rect x="44.379" y="7.924" fill="#3C3C3B" width="2.93" height="2.93"/>
        <path fill="#3C3C3B" d="M63.833,60.836c-1.286,0.688-2.399,1.277-4.726,1.292l8.635-25.907c0.238-0.713-0.104-1.491-0.788-1.799
		l-7.927-3.567V16.714c0-2.424-1.971-4.396-4.395-4.396h-2.197V4.994c0-0.809-0.656-1.464-1.465-1.464H38.627V2.815
		c-0.088-0.625-0.686-1.146-1.382-1.146c-0.772,0-1.401,0.629-1.401,1.401v3.964H16.208c-2.67,0.017-5.095,1.715-6.032,4.226
		L4.441,26.744v0.155l-1.6,1.495c-1.795,1.686-2.826,4.056-2.826,6.5v22.879c0,3.488,2.915,6.324,6.498,6.324h2.476
		c3.583,0,6.498-2.836,6.498-6.324v-3.467h20.356v12.777c0,0.771,0.629,1.4,1.401,1.4c0.709,0,1.296-0.527,1.389-1.211l-0.007-0.189
		v-2.111c2.121-0.236,3.424-0.926,4.596-1.551c1.301-0.693,2.424-1.293,4.805-1.293c2.38,0,3.504,0.598,4.807,1.29
		c1.053,0.56,2.243,1.19,4.048,1.474c0.621,0.112,1.322,0.166,2.147,0.166c3.111,0,4.744-0.869,6.182-1.637
		c1.303-0.693,2.426-1.293,4.807-1.293v-2.93C66.902,59.199,65.271,60.068,63.833,60.836z M12.666,57.753
		c0,1.942-1.658,3.522-3.696,3.522H6.494c-2.038,0-3.695-1.58-3.695-3.522v-4.407l0.731,0.338c0.883,0.408,1.864,0.625,2.838,0.625
		l0.117-0.002h6.182L12.666,57.753L12.666,57.753z M35.825,37.134h-6.512c-0.773,0-1.401,0.63-1.401,1.403
		c0,0.771,0.628,1.4,1.401,1.4h6.512v1.985h-6.512c-0.773,0-1.401,0.63-1.401,1.403c0,0.771,0.628,1.398,1.401,1.398h6.512v6.778
		H6.494c-2.038,0-3.695-1.597-3.695-3.562V34.875c0.021-1.704,0.737-3.333,1.965-4.478l1.87-1.766h29.191V37.134z M14.689,25.829
		l0.179-0.652c0.945-3.438,4.08-5.838,7.624-5.838c3.533,0,6.66,2.401,7.604,5.838l0.179,0.652H14.689z M35.825,25.829h-2.729
		l-0.076-0.425c-0.899-5.056-5.426-8.867-10.529-8.867c-5.114,0-9.649,3.812-10.548,8.867l-0.076,0.425h-4.12l5.046-13.607
		c0.54-1.439,1.873-2.368,3.396-2.368h19.637L35.825,25.829L35.825,25.829z M64.544,36.551l-1.05,3.153L38.627,28.276v-3.388
		L64.544,36.551z M54.634,15.248c0.808,0,1.464,0.658,1.464,1.466v12.823l-17.471-7.862v-1.299h14.541v-2.93H38.627v-2.197h12.344
		L54.634,15.248L54.634,15.248z M49.506,6.458v5.86H38.627v-5.86H49.506z M56.154,61.719c-0.711-0.23-1.301-0.543-1.947-0.888
		c-1.439-0.765-3.07-1.632-6.18-1.632c-3.114,0-4.744,0.869-6.186,1.637c-0.969,0.518-1.85,0.977-3.216,1.18V31.5l23.937,11
		L56.154,61.719z"/>
    </symbol>
    <symbol  viewBox="0 0 70 70" id="catalog-17">
        <path fill="#3C3C3B" d="M16.639,21.124c-5.027,0-9.118,4.09-9.118,9.119c0,3.69,2.208,6.87,5.369,8.303
		c-0.406-0.091-0.826-0.143-1.258-0.143c-3.188,0-5.781,2.595-5.781,5.783c0,3.187,2.594,5.78,5.781,5.78s5.78-2.594,5.78-5.78
		c0-2.253-1.297-4.204-3.181-5.158c0.769,0.211,1.573,0.333,2.408,0.333c5.028,0,9.117-4.092,9.117-9.119
		C25.756,25.214,21.667,21.124,16.639,21.124z M15.454,44.187c0,2.105-1.714,3.819-3.821,3.819s-3.821-1.714-3.821-3.819
		c0-2.108,1.714-3.823,3.821-3.823S15.454,42.078,15.454,44.187z M16.639,37.101c-3.782,0-6.857-3.077-6.857-6.858
		c0-3.78,3.076-6.857,6.857-6.857c3.78,0,6.857,3.077,6.857,6.857C23.496,34.024,20.419,37.101,16.639,37.101z"/>
        <path fill="#3C3C3B" d="M53.108,39.361c5.027,0,9.118-4.092,9.118-9.119c0-5.028-4.091-9.119-9.118-9.119
		c-5.026,0-9.117,4.09-9.117,9.119C43.991,35.27,48.082,39.361,53.108,39.361z M53.108,23.386c3.781,0,6.857,3.077,6.857,6.857
		c0,3.781-3.076,6.858-6.857,6.858s-6.856-3.077-6.856-6.858C46.252,26.462,49.327,23.386,53.108,23.386z"/>
        <path fill="#3C3C3B" d="M25.755,23.562c5.027,0,9.118-4.09,9.118-9.118c0-5.027-4.09-9.118-9.118-9.118
		c-5.027,0-9.117,4.091-9.117,9.118C16.638,19.472,20.729,23.562,25.755,23.562z M25.755,7.589c3.782,0,6.856,3.076,6.856,6.856
		c0,3.781-3.075,6.857-6.856,6.857c-3.781,0-6.857-3.076-6.857-6.857C18.898,10.665,21.974,7.589,25.755,7.589z"/>
        <path fill="#3C3C3B" d="M43.989,23.562c5.028,0,9.119-4.09,9.119-9.118c0-5.027-4.091-9.118-9.119-9.118
		c-5.026,0-9.116,4.091-9.116,9.118C34.873,19.472,38.963,23.562,43.989,23.562z M43.989,7.589c3.783,0,6.858,3.076,6.858,6.856
		c0,3.781-3.075,6.857-6.858,6.857c-3.779,0-6.855-3.076-6.855-6.857C37.134,10.665,40.21,7.589,43.989,7.589z"/>
        <path fill="#3C3C3B" d="M5.789,48.367c-3.188,0-5.781,2.594-5.781,5.782c0,3.188,2.593,5.78,5.781,5.78s5.78-2.593,5.78-5.78
		C11.569,50.961,8.976,48.367,5.789,48.367z M5.789,57.969c-2.107,0-3.821-1.714-3.821-3.819c0-2.108,1.714-3.823,3.821-3.823
		s3.822,1.715,3.822,3.823C9.61,56.255,7.896,57.969,5.789,57.969z"/>
        <path fill="#3C3C3B" d="M17.477,48.367c-3.188,0-5.781,2.594-5.781,5.782c0,3.188,2.594,5.78,5.781,5.78s5.781-2.593,5.781-5.78
		C23.257,50.961,20.664,48.367,17.477,48.367z M17.477,57.969c-2.107,0-3.821-1.714-3.821-3.819c0-2.108,1.714-3.823,3.821-3.823
		c2.106,0,3.82,1.715,3.82,3.823C21.296,56.255,19.583,57.969,17.477,57.969z"/>
        <path fill="#3C3C3B" d="M29.162,48.367c-3.187,0-5.78,2.594-5.78,5.782c0,3.188,2.593,5.78,5.78,5.78
		c3.189,0,5.783-2.593,5.783-5.78C34.945,50.961,32.351,48.367,29.162,48.367z M29.162,57.969c-2.106,0-3.82-1.714-3.82-3.819
		c0-2.108,1.714-3.823,3.82-3.823c2.107,0,3.822,1.715,3.822,3.823C32.984,56.255,31.27,57.969,29.162,57.969z"/>
        <path fill="#3C3C3B" d="M52.54,48.367c-3.186,0-5.778,2.594-5.778,5.782c0,3.188,2.593,5.78,5.778,5.78
		c3.188,0,5.782-2.593,5.782-5.78C58.322,50.961,55.729,48.367,52.54,48.367z M52.54,57.969c-2.104,0-3.818-1.714-3.818-3.819
		c0-2.108,1.714-3.822,3.818-3.822c2.107,0,3.822,1.714,3.822,3.822C56.362,56.255,54.647,57.969,52.54,57.969z"/>
        <path fill="#3C3C3B" d="M64.228,48.367c-3.187,0-5.78,2.594-5.78,5.782c0,3.188,2.594,5.78,5.78,5.78c3.188,0,5.78-2.593,5.78-5.78
		C70.008,50.961,67.415,48.367,64.228,48.367z M64.228,57.969c-2.106,0-3.82-1.714-3.82-3.819c0-2.108,1.714-3.822,3.82-3.822
		c2.105,0,3.819,1.714,3.819,3.822C68.047,56.255,66.333,57.969,64.228,57.969z"/>
        <path fill="#3C3C3B" d="M40.853,48.367c-3.188,0-5.782,2.594-5.782,5.782c0,3.188,2.594,5.78,5.782,5.78
		c3.187,0,5.779-2.593,5.779-5.78C46.632,50.961,44.039,48.367,40.853,48.367z M40.853,57.969c-2.107,0-3.823-1.714-3.823-3.819
		c0-2.108,1.716-3.822,3.823-3.822c2.106,0,3.82,1.714,3.82,3.822C44.673,56.255,42.959,57.969,40.853,57.969z"/>
        <path fill="#3C3C3B" d="M29.101,44.187c0-3.188-2.593-5.783-5.781-5.783c-3.188,0-5.781,2.595-5.781,5.783
		c0,3.187,2.593,5.78,5.781,5.78C26.508,49.967,29.101,47.373,29.101,44.187z M23.32,48.006c-2.107,0-3.821-1.714-3.821-3.819
		c0-2.108,1.714-3.823,3.821-3.823c2.106,0,3.82,1.715,3.82,3.823C27.14,46.292,25.427,48.006,23.32,48.006z"/>
        <path fill="#3C3C3B" d="M40.788,44.187c0-2.298-1.35-4.28-3.296-5.213c3.755-1.129,6.499-4.615,6.499-8.731
		c0-5.028-4.091-9.119-9.118-9.119c-5.027,0-9.117,4.09-9.117,9.119c0,4.179,2.83,7.703,6.671,8.776
		c-1.895,0.95-3.202,2.907-3.202,5.168c0,3.187,2.593,5.78,5.78,5.78C38.194,49.967,40.788,47.373,40.788,44.187z M28.016,30.243
		c0-3.78,3.077-6.857,6.857-6.857c3.781,0,6.855,3.077,6.855,6.857c0,3.781-3.074,6.858-6.855,6.858
		C31.093,37.101,28.016,34.024,28.016,30.243z M35.006,48.006c-2.106,0-3.82-1.714-3.82-3.819c0-2.108,1.714-3.823,3.82-3.823
		c2.107,0,3.822,1.715,3.822,3.823C38.828,46.292,37.113,48.006,35.006,48.006z"/>
        <path fill="#3C3C3B" d="M64.165,44.187c0-3.188-2.593-5.783-5.78-5.783c-3.187,0-5.778,2.595-5.778,5.783
		c0,3.187,2.592,5.78,5.778,5.78C61.572,49.967,64.165,47.373,64.165,44.187z M58.385,48.006c-2.106,0-3.819-1.714-3.819-3.819
		c0-2.108,1.713-3.822,3.819-3.822s3.821,1.714,3.821,3.822C62.206,46.292,60.491,48.006,58.385,48.006z"/>
        <path fill="#3C3C3B" d="M52.475,44.187c0-3.188-2.592-5.783-5.778-5.783c-3.188,0-5.781,2.595-5.781,5.783
		c0,3.187,2.593,5.78,5.781,5.78C49.883,49.967,52.475,47.373,52.475,44.187z M46.696,48.006c-2.108,0-3.823-1.714-3.823-3.819
		c0-2.108,1.715-3.822,3.823-3.822c2.105,0,3.819,1.714,3.819,3.822C50.516,46.292,48.802,48.006,46.696,48.006z"/>
    </symbol>
    <symbol  viewBox="0 0 70 70" id="catalog-18">
        <path fill="#3C3C3B" d="M60.666,49H58.84c-1.281,0.001-2.545,0.3-3.691,0.871c-1.668,0.829-3.629,0.829-5.297,0
		c-0.666-0.326-1.371-0.562-2.1-0.699L50.025,31.5H52.5c0.645,0,1.166-0.522,1.166-1.167v-4.666c0-0.645-0.521-1.167-1.166-1.167
		h-4.666V21c0-0.31-0.124-0.606-0.343-0.825L42,14.684V11.06l1.769-1.413l3.021,6.042l2.088-1.043l-3.245-6.49L47.074,7h4.259
		C51.978,7,52.5,6.478,52.5,5.833V1.167C52.5,0.522,51.978,0,51.333,0H39.666c-5.795,0.007-10.492,4.704-10.5,10.5
		c0,0.645,0.522,1.167,1.167,1.167h2.333v3.017l-3.158,3.158c-0.219,0.219-0.342,0.516-0.342,0.825V24.5h-2.333v-9.333
		c-0.002-0.145-0.031-0.288-0.085-0.422c-0.021-0.045-0.045-0.089-0.072-0.132c-0.028-0.061-0.061-0.12-0.098-0.176l-4.411-5.513
		V1.167C22.167,0.522,21.644,0,21,0h-7c-0.644,0-1.167,0.522-1.167,1.167v7.758l-4.411,5.513c-0.038,0.056-0.07,0.115-0.098,0.176
		c-0.027,0.043-0.051,0.087-0.072,0.132c-0.055,0.134-0.083,0.277-0.085,0.422V24.5H3.5c-0.644,0-1.167,0.522-1.167,1.167v4.666
		c0,0.645,0.522,1.167,1.167,1.167h2.475l4.535,35.149c0.075,0.582,0.571,1.018,1.157,1.018H39.13
		c1.323,1.482,3.216,2.331,5.204,2.333h1.826c1.281-0.001,2.545-0.3,3.691-0.871c1.668-0.83,3.629-0.83,5.297,0
		c1.146,0.571,2.41,0.87,3.691,0.871h1.826c3.865-0.004,6.996-3.136,7-7v-7C67.662,52.136,64.531,49.004,60.666,49z M47.834,2.333
		h2.332v2.334h-2.332V2.333z M51.333,26.833v2.334H35v-2.334H51.333z M31.583,9.333c0.585-4.016,4.026-6.994,8.083-7H45.5v2.94
		l-5.076,4.06H31.583z M39.666,11.667V14H35v-2.333H39.666z M31.5,19.149l2.816-2.816h6.033l5.15,5.149V24.5h-14V19.149z
		 M30.333,26.833h2.333V35c-0.002,0.444,0.248,0.852,0.645,1.05l7.001,3.5c0.341,0.169,0.6,0.468,0.717,0.83
		c0.121,0.389,0.078,0.81-0.117,1.166c-0.336,0.674-1.153,0.947-1.826,0.612c-0.002-0.001-0.003-0.002-0.004-0.002l-4.736-2.368
		c-0.579-0.283-1.278-0.043-1.561,0.536c-0.078,0.158-0.118,0.333-0.119,0.509V52.5c0,1.289-1.044,2.333-2.333,2.333v-10.5H28v10.5
		h-2.333v-10.5h-2.333v10.5H21v-10.5h-2.333v10.5c-1.289,0-2.333-1.044-2.333-2.333V26.833H30.333z M15.167,2.333h4.667v5.834
		h-4.667V2.333z M14.56,10.5h5.88l2.8,3.5H11.76L14.56,10.5z M10.5,16.333h14V24.5h-14V16.333z M4.667,29.167v-2.334H14v2.334H4.667
		z M37.334,56v7c0.002,0.795,0.139,1.584,0.408,2.333h-25.05L8.327,31.5H14v21c0,2.577,2.089,4.667,4.667,4.667h11.667
		c2.577,0,4.667-2.09,4.667-4.667v-9.779l3.047,1.524c1.842,0.908,4.071,0.152,4.98-1.689c0.004-0.007,0.008-0.015,0.011-0.022
		c0.452-0.896,0.528-1.935,0.214-2.888c-0.311-0.953-0.992-1.74-1.891-2.187L35,34.279V31.5h12.674L45.414,49h-1.08
		C40.469,49.004,37.337,52.136,37.334,56z M65.334,63c0,2.577-2.09,4.667-4.668,4.667H58.84c-0.92-0.002-1.825-0.216-2.647-0.626
		c-2.326-1.155-5.06-1.155-7.385,0c-0.822,0.41-1.729,0.624-2.647,0.626h-1.826c-2.578,0-4.668-2.09-4.668-4.667v-1.797
		C40.945,62.359,42.609,63,44.334,63h1.826c1.281-0.001,2.545-0.3,3.691-0.871c1.668-0.83,3.629-0.83,5.297,0
		c1.146,0.571,2.41,0.87,3.691,0.871h1.826c1.725,0,3.388-0.641,4.668-1.797V63z M60.666,60.667H58.84
		c-0.92-0.002-1.825-0.216-2.647-0.626c-2.326-1.155-5.06-1.155-7.385,0c-0.822,0.41-1.729,0.624-2.647,0.626h-1.826
		c-2.578,0-4.668-2.09-4.668-4.667s2.09-4.667,4.668-4.667h1.826c0.919,0.002,1.825,0.216,2.647,0.626
		c2.326,1.154,5.059,1.154,7.385,0c0.822-0.41,1.728-0.624,2.647-0.626h1.826c2.578,0,4.668,2.09,4.668,4.667
		S63.244,60.667,60.666,60.667z"/>
    </symbol>
    <symbol  viewBox="0 0 70 70" id="catalog-19">
        <path fill="#3C3C3B" d="M53.01,47.176H39.797v-8.408c0-0.662-0.538-1.201-1.201-1.201c-0.664,0-1.201,0.539-1.201,1.201v9.609
		c0,0.663,0.537,1.202,1.201,1.202H53.01c0.663,0,1.201-0.539,1.201-1.202C54.211,47.713,53.674,47.176,53.01,47.176z"/>
        <path fill="#3C3C3B" d="M31.395,47.178H18.181v-8.41c0-0.662-0.537-1.201-1.2-1.201c-0.664,0-1.201,0.539-1.201,1.201v9.609
		c0,0.663,0.537,1.202,1.201,1.202h14.415c0.662,0,1.201-0.538,1.201-1.202C32.597,47.714,32.058,47.178,31.395,47.178z"/>
        <path fill="#3C3C3B" d="M27.791,66.396h14.415c0.664,0,1.203-0.539,1.203-1.201c0-0.664-0.539-1.202-1.203-1.202H28.993v-8.408
		c0-0.663-0.538-1.2-1.202-1.2s-1.201,0.537-1.201,1.2v9.61C26.59,65.857,27.127,66.396,27.791,66.396z"/>
        <path fill="#3C3C3B" d="M49.624,66.396h14.415c0.664,0,1.203-0.539,1.203-1.201c0-0.664-0.539-1.202-1.203-1.202H50.826v-8.408
		c0-0.663-0.538-1.2-1.202-1.2s-1.201,0.537-1.201,1.2v9.61C48.423,65.857,48.96,66.396,49.624,66.396z"/>
        <path fill="#3C3C3B" d="M6.433,66.396h14.415c0.664,0,1.203-0.539,1.203-1.201c0-0.664-0.539-1.202-1.203-1.202H7.635v-8.408
		c0-0.663-0.538-1.2-1.202-1.2s-1.201,0.537-1.201,1.2v9.61C5.231,65.857,5.769,66.396,6.433,66.396z"/>
        <path fill="#3C3C3B" d="M25.775,24.863c0-5.018-4.081-9.1-9.099-9.1c-5.017,0-9.099,4.082-9.099,9.1
		c0,5.017,4.082,9.099,9.099,9.099C21.694,33.962,25.775,29.88,25.775,24.863z M16.677,31.706c-3.773,0-6.843-3.069-6.843-6.843
		c0-3.772,3.069-6.843,6.843-6.843c3.772,0,6.843,3.07,6.843,6.843C23.52,28.637,20.449,31.706,16.677,31.706z"/>
        <path fill="#3C3C3B" d="M20.061,26.443c-0.938,1.762-3.134,2.433-4.896,1.493c-0.853-0.454-1.478-1.214-1.76-2.138
		c-0.283-0.925-0.188-1.904,0.267-2.758l-1.991-1.06c-0.737,1.385-0.892,2.974-0.434,4.476c0.458,1.501,1.474,2.733,2.858,3.471
		c0.878,0.468,1.821,0.689,2.752,0.689c2.103,0,4.14-1.132,5.194-3.113L20.061,26.443z"/>
        <path fill="#3C3C3B" d="M34.873,33.962c5.018,0,9.1-4.082,9.1-9.099c0-5.018-4.082-9.1-9.1-9.1c-5.017,0-9.098,4.082-9.098,9.1
		C25.775,29.88,29.856,33.962,34.873,33.962z M34.873,18.021c3.773,0,6.842,3.07,6.842,6.843c0,3.773-3.068,6.843-6.842,6.843
		c-3.772,0-6.843-3.069-6.843-6.843C28.03,21.091,31.101,18.021,34.873,18.021z"/>
        <path fill="#3C3C3B" d="M32.301,29.928c0.878,0.468,1.821,0.689,2.752,0.689c2.101,0,4.138-1.132,5.195-3.113l-1.992-1.061
		c-0.938,1.762-3.133,2.432-4.895,1.493c-0.854-0.454-1.479-1.214-1.761-2.138c-0.281-0.925-0.188-1.904,0.268-2.758l-1.992-1.06
		c-0.737,1.385-0.891,2.974-0.433,4.476S30.916,29.19,32.301,29.928z"/>
        <path fill="#3C3C3B" d="M53.07,33.962c5.018,0,9.099-4.082,9.099-9.099c0-5.018-4.081-9.1-9.099-9.1s-9.1,4.082-9.1,9.1
		C43.973,29.88,48.055,33.962,53.07,33.962z M53.07,18.021c3.772,0,6.843,3.07,6.843,6.843c0,3.773-3.069,6.843-6.843,6.843
		c-3.774,0-6.844-3.069-6.844-6.843C46.229,21.091,49.297,18.021,53.07,18.021z"/>
        <path fill="#3C3C3B" d="M50.498,29.928c0.877,0.468,1.82,0.689,2.752,0.689c2.104,0,4.141-1.132,5.195-3.113l-1.992-1.061
		c-0.938,1.762-3.133,2.432-4.896,1.493c-0.854-0.454-1.478-1.214-1.761-2.138c-0.28-0.925-0.187-1.904,0.269-2.758l-1.992-1.06
		c-0.736,1.385-0.891,2.974-0.434,4.476C48.098,27.958,49.111,29.19,50.498,29.928z"/>
        <path fill="#3C3C3B" d="M25.774,18.197c5.017,0,9.099-4.082,9.099-9.099C34.873,4.081,30.791,0,25.774,0s-9.099,4.082-9.099,9.099
		S20.758,18.197,25.774,18.197z M25.774,2.257c3.773,0,6.842,3.069,6.842,6.842s-3.068,6.843-6.842,6.843s-6.843-3.069-6.843-6.843
		C18.932,5.326,22.001,2.257,25.774,2.257z"/>
        <path fill="#3C3C3B" d="M23.201,14.163c0.878,0.469,1.821,0.689,2.752,0.689c2.103,0,4.14-1.131,5.196-3.113l-1.992-1.061
		c-0.938,1.762-3.133,2.432-4.896,1.494c-0.854-0.454-1.478-1.215-1.761-2.139c-0.281-0.925-0.188-1.904,0.268-2.758l-1.991-1.06
		C20.04,7.6,19.885,9.19,20.343,10.691S21.816,13.426,23.201,14.163z"/>
        <path fill="#3C3C3B" d="M43.971,18.197c5.018,0,9.1-4.082,9.1-9.099c0-5.017-4.082-9.098-9.1-9.098
		c-5.017,0-9.098,4.082-9.098,9.099S38.954,18.197,43.971,18.197z M43.971,2.257c3.774,0,6.844,3.069,6.844,6.842
		s-3.068,6.843-6.844,6.843c-3.771,0-6.843-3.069-6.843-6.843C37.128,5.326,40.197,2.257,43.971,2.257z"/>
        <path fill="#3C3C3B" d="M41.398,14.163c0.877,0.469,1.82,0.689,2.752,0.689c2.103,0,4.14-1.131,5.195-3.113l-1.992-1.061
		c-0.938,1.762-3.133,2.432-4.896,1.494c-0.853-0.454-1.478-1.215-1.761-2.139c-0.28-0.925-0.188-1.904,0.269-2.758l-1.991-1.06
		C38.236,7.6,38.082,9.19,38.54,10.691S40.014,13.426,41.398,14.163z"/>
        <path fill="#3C3C3B" d="M67.436,50.779h-9.61V35.162c0-0.663-0.537-1.2-1.201-1.2H53.07H34.873H16.677h-3.299
		c-0.664,0-1.202,0.537-1.202,1.2v15.617h-9.61c-0.663,0-1.202,0.537-1.202,1.199v16.817C1.363,69.461,1.902,70,2.565,70h2.403H7.37
		h2.402v-0.002h19.221V70h2.402v-0.002h19.222V70h2.402v-0.002h14.414c0.664,0,1.203-0.537,1.203-1.201V51.979
		C68.637,51.316,68.098,50.779,67.436,50.779z M36.202,36.363h19.22v14.416h-19.22V36.363z M14.578,36.363H33.8v14.416H14.578
		V36.363z M22.986,67.596H3.767V53.182h19.22L22.986,67.596L22.986,67.596z M44.611,67.596H25.39V53.182h19.221V67.596
		L44.611,67.596z M66.232,67.596H47.014V53.182h19.221v14.414H66.232z"/>
    </symbol>
    <symbol  viewBox="0 0 70 70" id="catalog-20">
        <path fill="#3C3C3B" d="M30.625,40.179h-16.57c-0.582,0-1.111,0.348-1.342,0.885l-3.751,8.754
		c-0.317,0.738,0.026,1.596,0.769,1.914c0.187,0.082,0.381,0.119,0.574,0.119c0.564,0,1.104-0.33,1.338-0.883l3.373-7.87h15.609
		c0.807,0,1.459-0.654,1.459-1.46C32.084,40.833,31.43,40.179,30.625,40.179z"/>
        <path fill="#3C3C3B" d="M42.292,14.661H25.625c-0.586,0-1.111,0.348-1.339,0.884l-3.751,8.75c-0.318,0.741,0.023,1.599,0.764,1.914
		c0.188,0.082,0.383,0.119,0.575,0.119c0.565,0,1.103-0.329,1.339-0.884l3.371-7.866h15.708c0.806,0,1.458-0.653,1.458-1.459
		S43.098,14.661,42.292,14.661z"/>
        <path fill="#3C3C3B" d="M13.124,32.162h43.752c0.019,0,0.038-0.003,0.06,0c0.805,0,1.457-0.653,1.457-1.459
		c0-0.345-0.119-0.661-0.32-0.912l-7.09-16.542c-1.152-2.688-3.783-4.422-6.703-4.422H25.721c-2.923,0-5.551,1.734-6.701,4.419
		l-7.234,16.883c-0.192,0.449-0.146,0.966,0.123,1.378C12.175,31.916,12.633,32.162,13.124,32.162z M21.699,14.396
		c0.691-1.61,2.27-2.651,4.021-2.651h18.557c1.754,0,3.332,1.041,4.022,2.651l6.361,14.85H15.334L21.699,14.396z"/>
        <path fill="#3C3C3B" d="M53.959,43.098c0.805,0,1.459-0.654,1.459-1.46c0-0.805-0.654-1.459-1.459-1.459h-8.75
		c-0.807,0-1.459,0.654-1.459,1.459c0,0.806,0.652,1.46,1.459,1.46H53.959z"/>
        <path fill="#3C3C3B" d="M69.882,56.91l-7.233-17.454c-1.151-2.688-3.782-4.421-6.703-4.421H42.292
		c-0.806,0-1.459,0.652-1.459,1.457c0,0.807,0.653,1.459,1.459,1.459h13.653c1.752,0,3.33,1.041,4.021,2.652l6.364,15.421h-15.29
		c-0.113,0-0.222,0.016-0.327,0.04h-4.526l-6.875-16.607c-1.151-2.688-3.783-4.421-6.703-4.421H14.055
		c-2.924,0-5.552,1.734-6.703,4.417L0.118,56.906c-0.192,0.449-0.146,0.965,0.122,1.377c0.216,0.331,0.555,0.546,0.934,0.621h67.651
		c0.379-0.075,0.718-0.289,0.934-0.617C70.027,57.877,70.074,57.359,69.882,56.91z M3.667,56.023l6.364-15.421
		c0.691-1.611,2.27-2.652,4.021-2.652h18.555c1.752,0,3.33,1.041,4.021,2.652l6.364,15.421H3.667z"/>
    </symbol>
    <symbol  viewBox="0 0 70 70" id="catalog-21">
        <path fill="#3C3C3B" d="M25.775,24.863c0-5.018-4.081-9.1-9.099-9.1c-5.017,0-9.099,4.082-9.099,9.1
		c0,5.017,4.082,9.099,9.099,9.099C21.694,33.962,25.775,29.88,25.775,24.863z M16.677,31.706c-3.773,0-6.843-3.069-6.843-6.843
		c0-3.772,3.069-6.843,6.843-6.843c3.772,0,6.843,3.07,6.843,6.843C23.52,28.637,20.449,31.706,16.677,31.706z"/>
        <path fill="#3C3C3B" d="M34.873,33.962c5.011,0,9.088-4.072,9.099-9.08c0.013,5.008,4.09,9.08,9.099,9.08
		c5.018,0,9.099-4.082,9.099-9.099c0-5.018-4.081-9.1-9.099-9.1c-5.011,0-9.088,4.072-9.099,9.081
		c-0.011-5.009-4.088-9.081-9.099-9.081c-5.017,0-9.098,4.082-9.098,9.1C25.775,29.88,29.856,33.962,34.873,33.962z M53.07,18.021
		c3.772,0,6.843,3.07,6.843,6.843c0,3.773-3.069,6.843-6.843,6.843c-3.774,0-6.844-3.069-6.844-6.843
		C46.229,21.091,49.297,18.021,53.07,18.021z M34.873,18.021c3.773,0,6.842,3.07,6.842,6.843c0,3.773-3.068,6.843-6.842,6.843
		c-3.772,0-6.843-3.069-6.843-6.843C28.03,21.091,31.101,18.021,34.873,18.021z"/>
        <path fill="#3C3C3B" d="M25.774,18.197c5.017,0,9.099-4.082,9.099-9.099C34.873,4.081,30.791,0,25.774,0s-9.099,4.082-9.099,9.099
		S20.758,18.197,25.774,18.197z M25.774,2.257c3.773,0,6.842,3.069,6.842,6.842s-3.068,6.843-6.842,6.843s-6.843-3.069-6.843-6.843
		C18.932,5.326,22.001,2.257,25.774,2.257z"/>
        <path fill="#3C3C3B" d="M43.971,18.197c5.018,0,9.1-4.082,9.1-9.099c0-5.017-4.082-9.098-9.1-9.098
		c-5.017,0-9.098,4.082-9.098,9.099S38.954,18.197,43.971,18.197z M43.971,2.257c3.774,0,6.844,3.069,6.844,6.842
		s-3.068,6.843-6.844,6.843c-3.771,0-6.843-3.069-6.843-6.843C37.128,5.326,40.197,2.257,43.971,2.257z"/>
        <path fill="#3C3C3B" d="M67.436,50.779h-9.61V35.162c0-0.663-0.537-1.2-1.201-1.2H53.07H34.873H16.677h-0.001h-3.298
		c-0.664,0-1.202,0.537-1.202,1.2v15.617h-9.61c-0.663,0-1.202,0.537-1.202,1.199v16.817C1.363,69.461,1.902,70,2.565,70h2.403H7.37
		h2.402v-0.002h19.221V70h2.402v-0.002h19.222V70h2.402v-0.002h14.414c0.664,0,1.203-0.537,1.203-1.201V51.979
		C68.637,51.316,68.098,50.779,67.436,50.779z M36.202,36.363h19.22v14.416h-19.22V36.363z M14.578,36.363H33.8v14.416H14.578
		V36.363z M22.987,67.596L22.987,67.596H3.767V53.182h19.22V67.596z M44.611,67.596H25.39V53.182h19.221V67.596z M66.234,67.596
		h-0.002H47.014V53.182h19.221V67.596z"/>
    </symbol>
    <symbol  viewBox="0 0 70 70" id="catalog-22">
        <path fill="#3C3C3B" d="M12.172,0l-0.04,10.332H6.254v14.967h5.83v14.025H6.252v14.967h5.859v10.378h12.827V70h3.133v-5.268h4.08
		V70h3.135v-5.246h4.08V70h3.272v-5.268h4.078V70h3.135v-5.275h12.762V0H12.172z M8.968,22.165v-8.614h3.115v8.614H8.968z
		 M12.09,51.164H8.968v-8.619h3.122V51.164z M59.441,26.001h-5.115V8.372H20.517v47.961h33.735V38.7h5.188v22.812H15.317V3.172
		h44.125V26.001z M59.43,29.21v6.25h-4.98v-6.25H59.43z M51.5,10.89v42.886H23.26V10.89H51.5z"/>
        <path fill="#3C3C3B" d="M32.167,43.023l5.601-4.185c0.438-0.909,3.062-6.359,4.654-9.58h-5.023l0.412-0.843
		c0.584-1.196,1.881-3.792,2.182-4.393l-0.053-6.245l-7.082,14.28h5.037l-0.418,0.844C36.99,33.891,33.921,39.705,32.167,43.023z"/>
    </symbol>
    <symbol  viewBox="0 0 70 70" id="catalog-23">
        <rect x="38.387" y="42.574" fill="#3C3C3B" width="11.291" height="2.259"/>
        <rect x="38.387" y="47.091" fill="#3C3C3B" width="11.291" height="2.258"/>
        <path fill="#3C3C3B" d="M15.807,54.193h38.387V15.807H15.807V54.193z M18.064,18.064h33.871v33.871H18.064V18.064z"/>
        <rect y="29.354" fill="#3C3C3B" width="2.258" height="2.259"/>
        <rect y="20.322" fill="#3C3C3B" width="2.258" height="2.259"/>
        <rect y="38.387" fill="#3C3C3B" width="2.258" height="2.259"/>
        <rect y="47.419" fill="#3C3C3B" width="2.258" height="2.259"/>
        <rect x="29.354" y="67.742" fill="#3C3C3B" width="2.258" height="2.258"/>
        <rect x="20.323" y="67.742" fill="#3C3C3B" width="2.258" height="2.258"/>
        <rect x="38.387" y="67.742" fill="#3C3C3B" width="2.259" height="2.258"/>
        <rect x="47.419" y="67.742" fill="#3C3C3B" width="2.259" height="2.258"/>
        <path fill="#3C3C3B" d="M58.71,15.807v-0.468l-4.049-4.049h-0.468V0h-2.258v11.29h-2.258V4.517h-2.259v6.773h-2.258V0h-2.258v11.29
		h-2.258V4.517h-2.259v6.773h-2.258V0h-2.258v11.29h-2.258V4.517h-2.258v6.773h-2.258V0h-2.258v11.29h-2.258V4.517h-2.258v6.773
		h-2.258V0h-2.258v11.29h-0.468l-4.049,4.049v0.468H0v2.258h11.29v2.258H4.516v2.259h6.774v2.258H0v2.258h11.29v2.258H4.516v2.259
		h6.774v2.258H0v2.258h11.29v2.258H4.516v2.259h6.774v2.258H0v2.258h11.29v2.258H4.516v2.259h6.774v2.258H0v2.258h11.29v0.468
		l4.049,4.049h0.468V70h2.258V58.71h2.258v6.773h2.258V58.71h2.258V70h2.258V58.71h2.258v6.773h2.258V58.71h2.258V70h2.258V58.71
		h2.258v6.773h2.259V58.71h2.258V70h2.258V58.71h2.258v6.773h2.259V58.71h2.258V70h2.258V58.71h0.468l4.049-4.049v-0.468H70v-2.258
		H58.71v-2.258h6.773v-2.259H58.71v-2.258H70v-2.258H58.71v-2.258h6.773v-2.259H58.71v-2.258H70v-2.258H58.71v-2.258h6.773v-2.259
		H58.71v-2.258H70v-2.258H58.71v-2.258h6.773v-2.259H58.71v-2.258H70v-2.258H58.71z M56.452,53.726l-2.727,2.727H16.274
		l-2.726-2.727V16.274l2.726-2.727h37.452l2.727,2.727V53.726z"/>
        <rect x="67.742" y="38.387" fill="#3C3C3B" width="2.258" height="2.259"/>
        <rect x="67.742" y="47.419" fill="#3C3C3B" width="2.258" height="2.259"/>
        <rect x="67.742" y="29.354" fill="#3C3C3B" width="2.258" height="2.259"/>
        <rect x="67.742" y="20.322" fill="#3C3C3B" width="2.258" height="2.259"/>
        <rect x="38.387" fill="#3C3C3B" width="2.259" height="2.258"/>
        <rect x="47.419" fill="#3C3C3B" width="2.259" height="2.258"/>
        <rect x="29.354" fill="#3C3C3B" width="2.258" height="2.258"/>
        <rect x="20.323" fill="#3C3C3B" width="2.258" height="2.258"/>
        <path fill="#3C3C3B" d="M43.464,20.322c-2.491,0-4.517,2.025-4.517,4.517c0,2.49,2.025,4.516,4.517,4.516s4.516-2.025,4.516-4.516
		C47.979,22.348,45.955,20.322,43.464,20.322z M43.464,27.097c-1.245,0-2.258-1.013-2.258-2.258c0-1.246,1.013-2.258,2.258-2.258
		s2.258,1.012,2.258,2.258C45.722,26.084,44.709,27.097,43.464,27.097z"/>
    </symbol>
</svg>