<?xml version="1.0" encoding="utf-8"?>
<!-- Generator: Adobe Illustrator 16.0.0, SVG Export Plug-In . SVG Version: 6.00 Build 0)  -->
<!DOCTYPE svg PUBLIC "-//W3C//DTD SVG 1.1//EN" "http://www.w3.org/Graphics/SVG/1.1/DTD/svg11.dtd">
<svg version="1.1" id="Ebene_1" xmlns="http://www.w3.org/2000/svg" xmlns:xlink="http://www.w3.org/1999/xlink" x="0px" y="0px"
	 width="27px" height="27px" viewBox="0 0 27 27" enable-background="new 0 0 27 27" xml:space="preserve">
<path fill="#FFFFFF" d="M24.689,11.19c0-6.154-5.035-11.189-11.189-11.189S2.311,5.036,2.311,11.19
	c0,6.152,5.035,11.188,11.189,11.188c1.838,0,3.576-0.449,5.109-1.242l3.875,5.863l2.021-1.334l-3.879-5.867
	C23.104,17.741,24.689,14.644,24.689,11.19z M3.908,11.19c0-5.275,4.316-9.592,9.592-9.592c5.273,0,9.592,4.314,9.592,9.592
	c0,5.273-4.316,9.59-9.592,9.59S3.908,16.466,3.908,11.19z"/>
</svg>
