<?xml version="1.0" encoding="utf-8"?>
<svg xmlns="http://www.w3.org/2000/svg" xmlns:xlink="http://www.w3.org/1999/xlink">
  <symbol viewBox="0 0 21 21" id="phone">
      <path fill="#E64814" d="M13.528,21L13.528,21c-2.475,0-5.025-2.55-7.65-7.875C1.003,3.45,4.453,1.65,5.728,0.975L5.804,0.9
		c0.074,0,1.5-0.75,1.648-0.825C7.603,0,7.753,0,7.904,0c0.225,0.075,0.449,0.225,0.525,0.375l2.773,5.475
		c0.076,0.15,0.076,0.375,0.076,0.602c-0.076,0.225-0.227,0.375-0.376,0.449L9.253,7.727c-0.15,0.149-0.076,1.199,0.6,2.85
		c0.9,2.025,2.025,3.074,2.324,3.074c0.076-0.074,0.676-0.375,1.125-0.6c0.301-0.15,0.602-0.301,0.602-0.301
		c0.375-0.148,0.75,0.075,0.9,0.375l2.773,5.475c0.15,0.375,0.074,0.826-0.301,0.977c0,0-1.574,0.824-1.725,0.824l-0.074,0.076
		C15.104,20.7,14.431,21,13.528,21z M7.455,1.8C7.005,2.025,6.48,2.25,6.48,2.25c-0.975,0.525-3.451,1.8,0.75,10.2
		c2.324,4.649,4.5,7.05,6.3,7.05c0.525,0,0.975-0.225,1.35-0.375l0.074-0.075c0.076,0,0.525-0.3,0.977-0.45l-2.102-4.125
		c-0.449,0.227-0.975,0.45-0.975,0.525c-0.15,0.075-0.375,0.148-0.6,0.148l0,0c-1.951,0-3.826-3.6-4.351-5.625
		C7.38,7.574,7.98,6.749,8.58,6.449l0.975-0.525L7.455,1.8z"/>
  </symbol>

   <symbol viewBox="0 0 26 26" id="social-network">
       <path d="M21,16.001c-1.602,0-3,0.799-3.9,1.899L9.799,14.3C9.9,13.9,10,13.499,10,12.999c0-0.4-0.1-0.9-0.201-1.3
	L17.1,8.099c0.9,1.101,2.301,1.9,3.9,1.9c2.799,0,5-2.199,5-5c0-2.8-2.201-5-5-5c-2.801,0-5,2.2-5,5c0,0.4,0.1,0.9,0.199,1.301
	L8.9,9.899C8,8.8,6.6,7.999,5,7.999c-2.801,0-5,2.2-5,5c0,2.801,2.199,5,5,5c1.6,0,3-0.8,3.9-1.898l7.299,3.6
	c-0.1,0.4-0.199,0.9-0.199,1.301c0,2.799,2.199,5,5,5c2.799,0,5-2.201,5-5C26,18.2,23.799,16.001,21,16.001z M21,2.001
	c1.699,0,3,1.299,3,3c0,1.699-1.301,3-3,3c-1.701,0-3-1.301-3-3C18,3.3,19.299,2.001,21,2.001z M5,16.001c-1.701,0-3-1.301-3-3
	c0-1.701,1.299-3,3-3c1.699,0,3,1.299,3,3C8,14.7,6.699,16.001,5,16.001z M21,24.001c-1.701,0-3-1.301-3-3c0-1.701,1.299-3,3-3
	c1.699,0,3,1.299,3,3C24,22.7,22.699,24.001,21,24.001z"/>
   </symbol>
    <symbol viewBox="0 0 31 31" id="arrow">
        <polygon  points="7.51,2.236 19.336,15.5 7.51,28.764 9.748,31 23.49,15.5 9.748,0 	"/>
    </symbol>
    <symbol viewBox="0 0 15 13" id="triangle">
        <polygon points="0,13 15,13 15,0"/>
    </symbol>
    <symbol  viewBox="0 0 30 30" id = "clip">
        <path fill="#E64814" d="M27.516,15.644l-14.24-14.24l-1.498,1.5l14.238,14.239c2.25,2.248,2.355,5.675,0.43,7.708
	c-2.143,2.143-5.889,2.143-8.029,0L3.105,9.54c-1.285-1.284-1.285-3.318,0-4.604s3.318-1.285,4.604,0L23.02,20.247
	c0.215,0.213,0.322,0.535,0.322,0.855c0,0.215,0,0.43-0.322,0.75c-0.428,0.428-1.178,0.428-1.605,0L7.176,7.505l-1.5,1.5
	l14.24,14.24c1.285,1.283,3.426,1.283,4.604,0c0.643-0.643,0.963-1.393,0.963-2.25c0-0.855-0.32-1.713-0.963-2.354L9.209,3.438
	c-2.143-2.142-5.568-2.142-7.604,0c-2.141,2.142-2.141,5.567,0,7.603l15.312,15.309c1.498,1.5,3.531,2.248,5.566,2.248
	c2.033,0,4.068-0.748,5.566-2.248C30.834,23.458,30.621,18.641,27.516,15.644z"/>
    </symbol>
    <symbol viewBox="0 0 26 22" id = "github">
        <path d="M25.047,17.422C22.984,21.594,17.313,22,13.25,22c-4.125,0-10.141-0.359-12.281-4.578
		C0.172,15.844,0,13.984,0,12.25c0-2.281,0.625-4.438,2.125-6.188C1.844,5.203,1.703,4.297,1.703,3.406
		C1.703,2.234,1.969,1.063,2.5,0c2.469,0,4.047,1.078,5.922,2.547C10,2.172,11.625,2,13.25,2c1.469,0,2.953,0.156,4.375,0.5
		C19.484,1.047,21.063,0,23.5,0c0.531,1.063,0.797,2.234,0.797,3.406c0,0.891-0.141,1.781-0.422,2.625
		C25.375,7.797,26,9.969,26,12.25C26,13.984,25.828,15.828,25.047,17.422z M18.5,10.5c-1.031,0-2.016,0.188-3.047,0.328
		C14.641,10.953,13.828,11,13,11s-1.641-0.047-2.453-0.172C9.531,10.688,8.531,10.5,7.5,10.5c-2.547,0-4,2.109-4,4.5
		c0,4.781,4.375,5.516,8.188,5.516h2.625c3.813,0,8.188-0.734,8.188-5.516C22.5,12.609,21.047,10.5,18.5,10.5z M8,18
		c-1.406,0-2-1.859-2-3s0.594-3,2-3s2,1.859,2,3S9.406,18,8,18z M18,18c-1.406,0-2-1.859-2-3s0.594-3,2-3s2,1.859,2,3
		S19.406,18,18,18z"/>
    </symbol>
    <symbol viewBox="0 0 24 22.938" id="in">
        <path d="M2.875,5.344H2.844C1.109,5.344,0,4.156,0,2.672C0,1.156,1.156,0,2.906,0c1.766,0,2.859,1.156,2.875,2.672
		C5.797,4.156,4.672,5.344,2.875,5.344z M5.453,22.938H0.297V7.453h5.156V22.938z M24,22.938h-5.141v-8.281
		c0-2.078-0.75-3.5-2.609-3.5c-1.422,0-2.266,0.953-2.641,1.875c-0.125,0.344-0.172,0.797-0.172,1.266v8.641H8.297
		c0.063-14.031,0-15.484,0-15.484h5.141v2.25h-0.031c0.672-1.063,1.891-2.609,4.672-2.609c3.391,0,5.922,2.219,5.922,6.969V22.938z"
        />

    </symbol>
    <symbol viewBox="0 0 30.011 17.123" id="vk">
        <path  d="M27.625,5.832c-3.031,4.031-3.359,3.656-0.859,5.984c2.406,2.234,2.906,3.313,2.984,3.453
		c0,0,1,1.75-1.109,1.766l-4,0.063c-0.859,0.172-2-0.609-2-0.609c-1.5-1.031-2.906-3.703-4-3.359c0,0-1.125,0.359-1.094,2.766
		c0.016,0.516-0.234,0.797-0.234,0.797s-0.281,0.297-0.828,0.344h-1.797c-3.953,0.25-7.438-3.391-7.438-3.391
		S3.437,9.707,0.093,1.848c-0.219-0.516,0.016-0.766,0.016-0.766S0.343,0.785,1,0.785l4.281-0.031
		c0.406,0.063,0.688,0.281,0.688,0.281s0.25,0.172,0.375,0.5c0.703,1.75,1.609,3.344,1.609,3.344
		c1.563,3.219,2.625,3.766,3.234,3.438c0,0,0.797-0.484,0.625-4.375c-0.063-1.406-0.453-2.047-0.453-2.047
		C11,1.41,10.328,1.27,10.031,1.223c-0.234-0.031,0.156-0.594,0.672-0.844c0.766-0.375,2.125-0.391,3.734-0.375
		c1.266,0.016,1.625,0.094,2.109,0.203c1.484,0.359,0.984,1.734,0.984,5.047c0,1.063-0.203,2.547,0.563,3.031
		c0.328,0.219,1.141,0.031,3.141-3.375c0,0,0.938-1.625,1.672-3.516c0.125-0.344,0.391-0.484,0.391-0.484s0.25-0.141,0.594-0.094
		l4.5-0.031c1.359-0.172,1.578,0.453,1.578,0.453C30.203,1.879,29.468,3.379,27.625,5.832z"/>

    </symbol>
    <symbol viewBox="0 0 19.125 19.125" id="link">

        <path  d="M18.129,16.441l-1.723,1.711c-0.633,0.633-1.488,0.973-2.379,0.973c-0.902,0-1.758-0.352-2.391-0.996
		l-2.414-2.426C8.59,15.07,8.25,14.215,8.25,13.324c0-0.926,0.375-1.805,1.031-2.449L8.25,9.844
		c-0.645,0.656-1.512,1.031-2.438,1.031c-0.891,0-1.758-0.352-2.391-0.984L0.984,7.453C0.34,6.809,0,5.965,0,5.063
		c0-0.891,0.363-1.758,0.996-2.379l1.723-1.711C3.352,0.34,4.207,0,5.098,0C6,0,6.855,0.352,7.488,0.996l2.414,2.426
		c0.633,0.633,0.973,1.488,0.973,2.379c0,0.926-0.375,1.805-1.031,2.449l1.031,1.031c0.645-0.656,1.512-1.031,2.438-1.031
		c0.891,0,1.758,0.352,2.391,0.984l2.438,2.438c0.645,0.645,0.984,1.488,0.984,2.391C19.125,14.953,18.762,15.82,18.129,16.441z
		 M8.309,5.004L5.895,2.578C5.684,2.367,5.391,2.25,5.098,2.25S4.512,2.367,4.301,2.566L2.578,4.277
		C2.367,4.488,2.25,4.77,2.25,5.063c0,0.305,0.117,0.586,0.328,0.797l2.438,2.438C5.227,8.508,5.52,8.613,5.813,8.613
		c0.34,0,0.609-0.117,0.844-0.363C6.27,7.863,5.813,7.535,5.813,6.938c0-0.621,0.504-1.125,1.125-1.125
		c0.598,0,0.926,0.457,1.313,0.844c0.246-0.234,0.387-0.504,0.387-0.855C8.637,5.508,8.52,5.215,8.309,5.004z M16.547,13.266
		l-2.438-2.438c-0.211-0.211-0.504-0.328-0.797-0.328c-0.34,0-0.609,0.129-0.844,0.375c0.387,0.387,0.844,0.715,0.844,1.313
		c0,0.621-0.504,1.125-1.125,1.125c-0.598,0-0.926-0.457-1.313-0.844c-0.246,0.234-0.387,0.504-0.387,0.855
		c0,0.293,0.117,0.586,0.328,0.797l2.414,2.426c0.211,0.211,0.504,0.316,0.797,0.316s0.586-0.105,0.797-0.305l1.723-1.711
		c0.211-0.211,0.328-0.492,0.328-0.785C16.875,13.758,16.758,13.477,16.547,13.266z"/>

    </symbol>
    <symbol  viewBox="0 0 33 33" id="basket">
        <path fill="#3C3C3B" d="M11.359,28.218C11.119,28.456,11,28.695,11,29.055c0,0.358,0.119,0.598,0.359,0.838
		c0.238,0.238,0.479,0.357,0.836,0.357c0.359,0,0.6-0.119,0.838-0.357c0.238-0.24,0.357-0.6,0.357-0.838s-0.119-0.599-0.357-0.837
		C12.555,27.738,11.838,27.738,11.359,28.218z"/>
        <path fill="#3C3C3B" d="M23.314,28.218c-0.238,0.238-0.357,0.599-0.357,0.837s0.119,0.598,0.357,0.838
		c0.24,0.238,0.479,0.357,0.838,0.357c0.357,0,0.598-0.119,0.836-0.357c0.24-0.24,0.359-0.6,0.359-0.838s-0.119-0.599-0.359-0.837
		C24.512,27.738,23.793,27.738,23.314,28.218z"/>
        <path fill="#3C3C3B" d="M8.012,6.337c-0.24-1.196-0.359-1.315-0.479-1.554C7.055,3.109,5.859,2.75,5.141,2.75H0v2.391h5.141
		c0,0,0.121,0.121,0.121,0.359c0.479,1.913,4.783,20.087,4.783,20.326l0.238,0.956h16.26l0.479-2.392H12.436
		c-0.119,0-0.359-1.436-0.598-2.392h14.229c2.15,0,3.586-1.913,4.064-3.108L33,6.336L8.012,6.337L8.012,6.337z M27.979,17.936
		c-0.119,0.357-0.838,1.555-1.912,1.555H11.24c-0.838-3.588-1.914-7.174-2.631-10.762h21.523L27.979,17.936z"/>

    </symbol>
    <symbol  viewBox="0 0 33 33" id="basket-white">
        <path fill="#ffffff" d="M11.359,28.218C11.119,28.456,11,28.695,11,29.055c0,0.358,0.119,0.598,0.359,0.838
		c0.238,0.238,0.479,0.357,0.836,0.357c0.359,0,0.6-0.119,0.838-0.357c0.238-0.24,0.357-0.6,0.357-0.838s-0.119-0.599-0.357-0.837
		C12.555,27.738,11.838,27.738,11.359,28.218z"/>
        <path fill="#ffffff" d="M23.314,28.218c-0.238,0.238-0.357,0.599-0.357,0.837s0.119,0.598,0.357,0.838
		c0.24,0.238,0.479,0.357,0.838,0.357c0.357,0,0.598-0.119,0.836-0.357c0.24-0.24,0.359-0.6,0.359-0.838s-0.119-0.599-0.359-0.837
		C24.512,27.738,23.793,27.738,23.314,28.218z"/>
        <path fill="#ffffff" d="M8.012,6.337c-0.24-1.196-0.359-1.315-0.479-1.554C7.055,3.109,5.859,2.75,5.141,2.75H0v2.391h5.141
		c0,0,0.121,0.121,0.121,0.359c0.479,1.913,4.783,20.087,4.783,20.326l0.238,0.956h16.26l0.479-2.392H12.436
		c-0.119,0-0.359-1.436-0.598-2.392h14.229c2.15,0,3.586-1.913,4.064-3.108L33,6.336L8.012,6.337L8.012,6.337z M27.979,17.936
		c-0.119,0.357-0.838,1.555-1.912,1.555H11.24c-0.838-3.588-1.914-7.174-2.631-10.762h21.523L27.979,17.936z"/>

    </symbol>

    <symbol  viewBox="0 0 35 35" id="calendar">

        <path fill="#E64814" d="M32.951,19.979V3.145c0-0.565-0.46-1.025-1.025-1.025H26.73V1.025c0-0.566-0.461-1.024-1.025-1.024
		c-0.566,0-1.025,0.46-1.025,1.025V2.12h-4.102V1.025C20.578,0.459,20.117,0,19.551,0c-0.564,0-1.023,0.459-1.023,1.025v1.094
		h-4.104V1.025c0-0.566-0.457-1.024-1.025-1.024c-0.564,0-1.025,0.458-1.025,1.024v1.094H8.271V1.025
		c0-0.566-0.461-1.024-1.025-1.024S6.221,0.458,6.221,1.024v1.094H1.026C0.461,2.12,0,2.579,0,3.145v26.728
		c0,0.564,0.461,1.025,1.025,1.025h17.077C19.76,33.368,22.579,35,25.771,35C30.859,35,35,30.859,35,25.771
		C35.002,23.579,34.232,21.562,32.951,19.979z M2.055,4.171h4.168v1.025c0,0.564,0.461,1.025,1.025,1.025S8.273,5.76,8.273,5.196
		V4.171h4.102v1.025c0,0.564,0.461,1.025,1.025,1.025c0.567,0,1.026-0.461,1.026-1.025V4.171h4.104v1.025
		c0,0.564,0.459,1.025,1.025,1.025c0.564,0,1.026-0.461,1.026-1.025V4.171h4.103v1.025c0,0.564,0.459,1.025,1.024,1.025
		s1.024-0.461,1.024-1.025V4.171h4.17v4.1H2.055V4.171z M18.032,20.754c-0.139-0.07-0.294-0.111-0.462-0.111h-2.05
		c-0.565,0-1.026,0.461-1.026,1.025c0,0.566,0.461,1.027,1.026,1.027h1.553c-0.232,0.65-0.392,1.338-0.469,2.051h-1.083
		c-0.567,0-1.027,0.458-1.027,1.025c0,0.564,0.459,1.024,1.027,1.024h1.083c0.077,0.711,0.239,1.396,0.469,2.052H2.053V10.323H30.9
		v7.779c-1.467-0.983-3.23-1.558-5.127-1.558C22.533,16.543,19.68,18.223,18.032,20.754z M25.773,32.949
		c-3.959,0-7.178-3.221-7.178-7.178c0-3.959,3.221-7.178,7.178-7.178s7.178,3.219,7.178,7.178
		C32.951,29.729,29.73,32.949,25.773,32.949z"/>
        <path fill="#E64814" d="M29.875,24.746h-3.076V21.67c0-0.564-0.46-1.025-1.025-1.025c-0.563,0-1.025,0.461-1.025,1.025v4.102
		c0,0.567,0.462,1.025,1.025,1.025h4.103c0.565,0,1.024-0.458,1.024-1.025C30.9,25.206,30.441,24.746,29.875,24.746z"/>
        <path fill="#E64814" d="M9.3,12.443H7.249c-0.564,0-1.025,0.46-1.025,1.025c0,0.563,0.461,1.025,1.025,1.025H9.3
		c0.565,0,1.025-0.461,1.025-1.025C10.325,12.903,9.865,12.443,9.3,12.443z"/>
        <path fill="#E64814" d="M9.3,16.543H7.249c-0.564,0-1.025,0.458-1.025,1.025c0,0.565,0.461,1.026,1.025,1.026H9.3
		c0.565,0,1.025-0.462,1.025-1.026C10.325,17.003,9.865,16.543,9.3,16.543z"/>
        <path fill="#E64814" d="M9.3,20.645H7.249c-0.564,0-1.025,0.461-1.025,1.025s0.461,1.025,1.025,1.025H9.3
		c0.565,0,1.025-0.461,1.025-1.025S9.865,20.645,9.3,20.645z"/>
        <path fill="#E64814" d="M17.571,12.443H15.52c-0.565,0-1.026,0.46-1.026,1.025c0,0.563,0.46,1.025,1.026,1.025h2.051
		c0.566,0,1.025-0.461,1.025-1.025C18.596,12.903,18.137,12.443,17.571,12.443z"/>
        <path fill="#E64814" d="M17.571,16.543H15.52c-0.565,0-1.026,0.458-1.026,1.025c0,0.565,0.46,1.026,1.026,1.026h2.051
		c0.566,0,1.025-0.462,1.025-1.026C18.596,17.003,18.137,16.543,17.571,16.543z"/>
        <path fill="#E64814" d="M9.3,24.746H7.249c-0.564,0-1.025,0.46-1.025,1.025c0,0.566,0.461,1.024,1.025,1.024H9.3
		c0.565,0,1.025-0.458,1.025-1.024C10.325,25.206,9.865,24.746,9.3,24.746z"/>
        <path fill="#E64814" d="M23.723,14.492h2.051c0.566,0,1.025-0.461,1.025-1.025s-0.459-1.025-1.025-1.025h-2.051
		c-0.563,0-1.025,0.461-1.025,1.025S23.158,14.492,23.723,14.492z"/>
    </symbol>

    <symbol  viewBox="0 0 29 29" id="close">
        <polygon  points="29,2.07 26.93,0 14.5,12.43 2.07,0 0,2.07 12.43,14.5 0,26.93 2.07,29 14.5,16.57 26.93,29
	29,26.93 16.57,14.5 "/>
    </symbol>

    <symbol  viewBox="0 0 18.273 17.781" id="update">
        <path fill="#E64814" d="M15.597,2.19C14.57,1.166,13.365,0.436,12.078,0v2.756c0.619,0.311,1.207,0.71,1.721,1.229
		c2.574,2.572,2.574,6.759,0,9.332c-2.571,2.565-6.753,2.565-9.331,0c-2.569-2.574-2.569-6.759,0-9.332
		c0.007-0.01,0.026-0.021,0.035-0.033h0.004l2.376,2.374L6.886,0H0l2.711,2.15c-0.01,0.016-0.022,0.03-0.035,0.04
		c-3.566,3.563-3.566,9.349,0,12.916c3.57,3.567,9.352,3.567,12.922,0C19.162,11.539,19.166,5.756,15.597,2.19z"/>
    </symbol>


</svg>