<?xml version="1.0" encoding="utf-8"?>
<!-- Generator: Adobe Illustrator 16.0.0, SVG Export Plug-In . SVG Version: 6.00 Build 0)  -->
<!DOCTYPE svg PUBLIC "-//W3C//DTD SVG 1.1//EN" "http://www.w3.org/Graphics/SVG/1.1/DTD/svg11.dtd">
<svg version="1.1" id="Layer_1" xmlns="http://www.w3.org/2000/svg" xmlns:xlink="http://www.w3.org/1999/xlink" x="0px" y="0px"
	 width="120px" height="150px" viewBox="0 0 120 150" enable-background="new 0 0 120 150" xml:space="preserve">
<g>
	<g>
		<polygon fill="#FFFFFF" points="0.833,145.904 3.261,145.904 3.261,129.742 13.252,129.742 13.252,145.904 15.675,145.904 
			15.675,127.439 0.833,127.439 		"/>
		<polygon fill="#FFFFFF" points="31.635,127.52 26.367,138.355 20.542,127.602 20.5,127.52 17.699,127.525 25.108,140.848 
			22.503,145.984 25.062,145.984 34.438,127.52 		"/>
		<path fill="#FFFFFF" d="M59.638,133.449h-5.742v-6.01h-2.425v18.467h8.167c4.075,0,6.203-3.133,6.203-6.229
			C65.841,136.581,63.71,133.449,59.638,133.449z M59.638,143.579h-5.742v-7.831h5.742c2.608,0,3.797,2.029,3.797,3.915
			c0,1.044-0.342,2.003-0.955,2.71C61.798,143.161,60.814,143.579,59.638,143.579z"/>
		<path fill="#FFFFFF" d="M84.018,142.945l-1.679-1.588l-0.37,0.365c-1.328,1.305-3.171,2.053-5.059,2.053
			c-3.235,0-7.049-1.848-7.108-7.058c-0.011-2.11,0.687-3.983,1.97-5.272c1.25-1.262,3.027-1.93,5.14-1.93
			c1.922,0,3.706,0.729,5.028,2.049l0.354,0.358l1.74-1.51l-0.411-0.409c-1.783-1.779-4.165-2.766-6.714-2.766
			c-2.772,0-5.142,0.908-6.849,2.635c-1.729,1.747-2.664,4.195-2.637,6.896c0.026,4.646,2.969,9.33,9.484,9.33
			c2.544,0,4.925-0.979,6.714-2.767L84.018,142.945z"/>
		<path fill="#FFFFFF" d="M84.475,145.691l-0.103,0.215h2.634l1.889-4.27h9.674l1.916,4.27h2.633l-9.371-19.457L84.475,145.691z
			 M93.732,131.37l3.828,7.94h-7.658L93.732,131.37z"/>
		<path fill="#FFFFFF" d="M112.965,127.439h-8.169v18.467h2.429v-6.01h5.74c4.071,0,6.202-3.133,6.202-6.229
			S117.036,127.439,112.965,127.439z M112.965,137.598h-5.74v-7.832h5.74c2.605,0,3.797,2.029,3.797,3.914
			c0,1.043-0.338,2.004-0.955,2.705C115.124,137.18,114.143,137.598,112.965,137.598z"/>
		<polygon fill="#FFFFFF" points="30.929,145.904 33.565,145.904 40.29,131.527 47.042,145.904 49.676,145.904 40.301,126.471 		"/>
	</g>
	<path fill="#E64815" d="M118.354,0.567v103.859c0,8.145-5.386,13.477-13.531,13.477H1.018V14.096
		c0-8.145,5.382-13.528,13.528-13.528L118.354,0.567L118.354,0.567z"/>
	<path fill="#FFFFFF" d="M78.186,72.727c-0.231,0.031-0.531-0.01-0.693,0.114c-0.869,0.663-1.699,1.372-2.405,1.954
		c-0.276,0.562-0.448,1.042-0.729,1.459c-0.688,1.004-1.474,1.953-2.125,2.987c-0.213,0.335-0.108,0.867-0.164,1.423
		c0.24-0.256,0.416-0.448,0.595-0.637c-0.631,1.698-1.229,3.411-2.524,4.716c-0.089-0.048-0.178-0.095-0.264-0.144
		c0.453-0.812,0.904-1.623,1.355-2.439c-1.08,0.211-1.164,0.29-2.264,2.234c0.217,0.184,0.443,0.364,0.703,0.583
		c-0.958,1.275-1.934,2.494-2.812,3.778c-0.315,0.455-0.405,1.076-0.635,1.745c-0.1,0.096-0.33,0.335-0.56,0.571
		c0.347,0.151,0.69,0.304,1.135,0.498c0.007,0.085,0.032,0.371,0.062,0.696c2.25-0.188,2.475-2.22,3.399-3.726
		c0.079,2.88-4.655,6.495-8.19,5.892c0.408-0.309,0.729-0.584,1.068-0.811c0.819-0.548,0.816-0.771-0.048-1.282
		c0.147-0.246,0.289-0.491,0.46-0.775c-1.096-0.098-2.305,0.511-2.855,1.561c0.384-0.203,0.766-0.412,1.205-0.646
		c-0.985,1.862-3.235,2.331-6.721,1.781c0.49-0.427,1.359-0.918,1.779-1.354c0.217-0.223,0.303-0.568,0.453-0.858
		c-0.314-0.14-0.669-0.438-0.95-0.383c-0.915,0.188-1.808,0.475-2.697,0.775c-0.491,0.164-0.93,0.504-1.419,0.65
		c-0.515,0.149-0.15,0.535-0.677,0.617c-0.888-0.278-2.008-0.539-2.028-0.632c0.584-0.348,2.231-0.696,2.798-1.065
		c0.578-0.377,0.365-0.836-0.126-0.915c-0.722-0.11-1.483-0.042-2.216,0.062c-0.369,0.054-0.696,0.367-1.05,0.557
		c-1.115,0.586-1.79,0.67-3.544-0.155c0.603-0.683,1.491-1.847,2.16-2.462c0.667-0.625,1.276-1.227,1.158-2.245
		c-0.021-0.008-0.105-0.061-0.126-0.039c-1.005,1.033-2.541,1.338-3.393,2.604c-0.817,1.218-1.693,1.515-3.365,0.331
		c0.353-0.36,1.704-0.495,1.457-1.422c-0.055-0.201-0.428-0.319-0.765-0.555c0.211-1.646-1.641-0.906-2.399-1.577
		c-0.306,0.279-1.104,1.001-1.572,1.431c-2.094-1.439-3.652-3.501-5.12-5.587c-0.534-0.766-1.138-1.771-2.372-1.908
		c-0.037-0.006-0.073-0.096-0.108-0.146c-1.296-1.81-0.995-1.689,0.98-3.086c1.053-0.751,1.012-1.387,0.457-2.538
		c-0.677-1.409-1.909-1.715-3.177-2.034c-0.71-0.187-1.218,0.258-1.922,1.243c-0.796-1.772-1.42-3.633-1.89-5.394
		c-0.124-0.454,0.688-1.318,0.907-1.845c0.683-1.618,1.397-3.229,2.086-4.839c0.087-0.207,0.096-0.442-0.007-0.733
		c-1.856,1.401-1.924,3.759-2.854,5.646c-0.094,0.004-0.468-0.021-0.562-0.019c-0.34-1.847-0.575-3.488-0.652-5.365
		c-0.161-3.945,0.244-7.783,1.288-11.395c0.654-2.274,1.553-4.453,2.529-6.579c0.146-0.355,0.698-0.578,1.096-0.788
		c0.779-0.402,1.581-0.758,2.371-1.127c0.203,0.798,0.65,0.897,2.158,0.419c0.014,0.756,0.066,1.404-0.551,2.044
		c-1.019,1.066-2.091,2.092-2.22,3.789c-0.058,0.741-0.745,1.432-1.115,2.161c-0.126,0.265-0.2,0.575-0.217,0.866
		c-0.063,1.027-0.091,2.062,0.03,3.23c0.704-1.093,1.496-2.144,2.086-3.3c0.331-0.643,0.321-1.463,0.466-2.198
		c0.016-0.091-0.009-0.215,0.039-0.273c0.994-1.046,0.593-2.597,1.328-3.727c0.204-0.306,0.474-0.562,0.847-0.782
		c-0.116,1.208-1.086,2.289-0.296,3.49c0.26-0.31,0.567-0.671,0.868-1.04c0.102,0.087,0.203,0.171,0.302,0.252
		c-0.668,0.827-1.334,1.648-1.979,2.448c1.289,0.429,2.219-0.351,3.173-1.016c0.903-0.622,0.882-1.019-0.044-1.631
		c-0.216-0.145-0.426-0.29-0.579-0.587c0.344,0.067,0.688,0.142,0.859,0.181c0.875-0.385,1.675-0.708,2.45-1.089
		c0.261-0.127,0.538-0.35,0.664-0.603c0.424-0.871,0.718-1.812,1.19-2.661c0.373-0.679,0.474-1.226,0.146-1.983
		c-0.228-0.537-0.033-1.255-0.094-1.883c-0.051-0.528-0.108-1.097-0.333-1.559c-0.221-0.465-0.643-0.571-1.133-0.158
		c-0.382,0.315-0.962,0.427-1.287,0.782c-0.556,0.611-1.111,1.303-0.775,2.271c0.062,0.181-0.013,0.405-0.033,0.841
		c-1.112-1.897-1.102-2.013,0.191-3.445c-0.61-0.809-0.521-1.641-0.074-2.562c0.486-1.01-4.078,2.989-4.664,2.621
		c2.766-3.073,9.649-10.409,22.304-11.802c-0.435,0.604-0.752,0.995-1.02,1.421c-0.641,1.035-1.264,2.086-1.882,3.139
		c-0.089,0.15-0.126,0.351-0.141,0.528c-0.058,0.847-0.092,1.688-0.129,2.344c1.027-0.704,2.341-1.425,3.417-2.408
		c0.696-0.643,1.074-1.664,1.564-2.531c0.44-0.77,0.818-1.581,1.285-2.33c0.141-0.229,0.511-0.308,0.835-0.375
		c-0.567,1.306-1.796,2.274-1.432,3.929c0.277-0.68,0.563-1.354,0.818-2.042c0.583-1.558,1.215-2.064,2.773-1.917
		c1.876,0.043,7.27,0.77,10.613,2.229c-1.777,1.13-8.082,1.227-9.721,1.55c0.428,1.426,0.828,2.793,1.262,4.147
		c0.035,0.118,0.222,0.19,0.365,0.309c0.149-0.161,0.293-0.309,0.426-0.451c1.824,1.084,2.093,3.128,0.615,4.551
		c0.336-0.086,0.664-0.153,0.99-0.244c0.924-0.257,1.838-0.592,2.771-0.766c0.96-0.174,1.937-0.194,2.904-0.284
		c0.758-0.07,0.724-0.479,0.404-1.118c-2.015,1.237-3.898,1.269-5.502-0.638c-0.879-1.04-0.831-1.536-0.502-2.023
		c-0.134-0.498-0.242-0.905-0.354-1.326c0.113-0.027,0.227-0.059,0.336-0.085c0.039,0.786,1.152,1.248,0.553,2.231
		c-0.016,0.029,0.105,0.199,0.162,0.199c1.164,0.001,1.48,1.372,2.562,1.58c0.598,0.113,1.991-0.284,2.039-0.899
		c0.031-0.31-0.285-0.699-0.537-0.962c-0.263-0.265-0.641-0.407-0.967-0.607c0.01-0.084,0.02-0.17,0.027-0.25
		c0.893-0.188,1.783-0.435,2.686-0.536c1.141-0.132,1.4-1.716,2.143-2.582c-0.006-0.988,2.225,0.432,3.195,1.067
		c-0.266,0.521-0.729,1.362-1.017,1.926c1.079,0.323,1.396-0.299,1.563-1.589c0.812,0.489,2.131,1.36,2.808,1.982
		c-0.015,0.081-0.677,0.059-0.69,0.137c-0.588,0.109-1.174,0.307-1.763,0.316c-1.144,0.025-1.978,0.509-2.597,1.464
		c-0.598,0.935-1.336,1.797-1.801,2.792c-0.402,0.859-0.574,1.855-0.691,2.809c-0.041,0.321,0.357,0.832,0.686,1.024
		c0.818,0.477,1.1,1.163,1.131,2.051c0.006,0.223,0.108,0.442,0.396,0.702c0.636-1.27,1.182-2.591,1.934-3.784
		c0.881-1.395,1.924-2.69,2.939-3.998c0.408-0.531,0.9-1.004,1.404-1.447c0.197-0.177,0.541-0.192,0.853-0.167
		c-0.784,1.565,0.665,2.28,2.606,2.39c0.41,0.022,1.229,1.269,1.582,1.597c-1.203-0.041-3.146,0.106-4.203-0.865
		c-0.922-0.859-1.463-0.55-2.315,0.389c-1.057,1.171-1.553,2.468-1.733,3.971c-0.094,0.77,0.215,1.149,1.104,1.069
		c-0.05,0.225-0.07,0.426-0.133,0.61c-0.196,0.564-0.032,1.07,0.482,1.212c0.36,0.095,0.871-0.083,1.209-0.302
		c0.633-0.411,1.19-0.944,1.782-1.427c0.077,0.06,0.146,0.124,0.218,0.188c-0.041-0.188-0.088-0.37-0.158-0.668
		c0.271,0.058,0.484,0.058,0.652,0.144c0.684,0.361,1.326,0.225,1.877-0.232c0.745-0.634,1.18-2.116,2.072-2.937
		c0.639,0.842,1.664,2.364,2.027,3.062c-0.387,0.29-1.479,0.675-1.766,1.122c-0.264,0.407-0.371,1.085-0.229,1.534
		c0.094,0.293,0.738,0.457,1.17,0.568c0.406,0.101,0.845,0.082,1.279,0.076c0.938-0.003,1.365,0.497,1.4,1.409
		c-0.59-0.101-1.201-0.137-1.758-0.312c-1.352-0.425-2.338-0.177-3.111,0.924c0.953,0.601,1.967,0.34,2.912,0.165
		c0.67-0.124,1.289-0.536,1.932-0.818c0.412,0.513,0.656,1.011,0.072,1.599c-0.134,0.132-0.104,0.436-0.172,0.771
		c0.43-0.113,0.803-0.842,1.092-0.918c0.039,0.079,0.33,0.973,0.373,1.049c-0.336,0.188-0.986,0.317-1.334,0.364
		c-0.834,0.107-1.699,0.027-2.523,0.153c-0.512,0.076-0.99,0.396-1.48,0.609c0.077,0.06,0.152,0.122,0.235,0.183
		c-0.144,0.517-0.292,1.032-0.41,1.549c-0.048,0.188-0.034,0.395-0.048,0.591c0.195,0.014,0.396,0.027,0.6,0.023
		c0.961-0.018,1.92-0.068,2.881-0.064c0.842,0.007,1.683,0.073,2.522,0.114c0.04-0.103,0.233-0.684,0.276-0.773
		c0.146,0.574,0.354,1.697,0.49,2.601c-0.932,0.02-1.938,0.121-2.694-0.085c-1.386-0.383-2.347,0.103-3.304,1.025
		c-0.49,0.483-1.139,0.812-1.738,1.169c-0.156,0.09-0.411,0.079-0.607,0.05c-0.637-0.112-1.259-0.255-2.07-0.424
		c-0.021-0.043-0.147-0.317-0.275-0.598c-0.796,0.329-1.559,0.685-2.354,0.939c-0.186,0.062-0.578-0.133-0.684-0.317
		c-0.143-0.26-0.259-0.767-0.118-0.917c0.455-0.509,1.034-0.917,1.572-1.354c0.05-0.042,0.205,0.033,0.262-0.006
		c1.089-0.771,2.312-1.249,3.5-1.831c0.854-0.427,0.767-0.755-0.013-1.407c-0.124-0.109-0.077-0.424-0.107-0.644
		c-0.943-0.193-1.66,0.166-2.24,0.898c-0.684,0.856-1.52,1.493-2.527,1.932c-0.542,0.237-1.206,0.501-1.496,0.965
		c-0.51,0.818-0.861,1.771-1.131,2.71c-0.521,1.858-0.789,3.829-2.104,5.351c-0.604,0.701-1.391,1.243-2.093,1.862
		c-0.065,0.062-0.183,0.111-0.198,0.183c-0.25,0.959-0.49,1.917-0.697,2.881c-0.002,0.022,0.543,0.225,0.568,0.175
		c1.538-2.403,4.062-4.07,5.09-6.859c0.211-0.581,0.328-1.197,0.486-1.8c0.089,0,0.182,0.006,0.271,0.007
		c0.035,0.333,0.084,0.662,0.113,0.994c0.004,0.088-0.078,0.21-0.037,0.271c0.627,1.021,0.266,2.078,0.116,3.133
		c-0.258,1.79-0.397,3.541-2.44,4.457c-0.692,0.312-1.065,1.423-1.537,2.202c-0.344,0.568-0.608,1.191-0.948,1.871
		c0.075,0.066,0.22,0.199,0.39,0.363c-0.17,0.124-0.33,0.241-0.531,0.394c0.146,0.059,0.242,0.132,0.297,0.112
		c0.562-0.257,1.229-0.413,1.658-0.822c2.221-2.124,4.511-6.658,6.971-8.422c3.322-2.377,5.242-5.108,8.854-5.896
		c0.508-0.358,1.319-0.704,1.98-1.021c0.098,0.521,0.133,1.048,0.145,1.49c-0.385,0.344-0.89,0.604-1.406,1.062
		c0.574,0.122,0.998-0.148,1.451-0.053c-0.006,0.937,0.043,2.142-0.049,3.097c-0.127,1.249-1.422,1.039-1.632,2.08
		c-0.304-0.28-0.537-0.494-0.584-0.533c-0.728,0.359-1.325,0.631-1.89,0.958c-0.254,0.149-0.646,0.536-0.608,0.599
		c0.195,0.342,0.497,0.852,0.772,0.856c1.16,0.018,2.33-0.125,3.537-0.208c-0.08,1.561-1.252,0.328-1.349,1.213
		c0.315,0.186,0.646,0.349,1.048,0.582c-0.148,1.346-0.854,2.081-2.013,2.475c-0.115,0.874,1.171,1.109,0.665,2.196
		c-0.325-0.187-0.493-0.391-1.006-0.688c-0.207,1.769-1.324,3.098-2.085,4.603c0.661,0.385,0.893,0.022,0.86-0.472
		c-0.045-0.874,0.451-0.927,1.176-0.913c-1.149,2.918-2.973,5.403-4.748,7.624c-0.379-0.217-0.312-0.268-0.641-0.344
		c-1.127-0.265-2.272-0.442-3.404-0.691c-0.27-0.061-0.514-0.274-0.93-0.499c-1.221,1.771-0.957,3.868-1.271,5.896
		c0.712,0.146,1.731-0.475,2.438-0.33c-0.52,0.488-0.916,0.77-1.699,1.424c-0.285,0.229-0.709-0.399-1.332-0.432
		c0.054-0.76,0.146-1.646,0.192-2.533c0.027-0.575,0.058-1.165-0.043-1.723c-0.026-0.144-0.692-0.358-0.812-0.252
		c-0.842,0.74-1.668,1.521-2.397,2.368c-0.937,1.093-1.009,1.728-0.696,3.669c1.012-0.666,2.017-1.741,3.051-0.306
		c0.504-0.093,0.906-0.312,1.578-0.43c-0.442,0.387-0.621,0.514-1.094,0.846c-0.486,0.341-1.193,0.922-1.562,1.005
		c-0.247,0.053,0.557-0.617,0.391-0.759c-0.562-0.474-0.992-0.467-1.412,0.162c-0.15,0.226-0.283,0.481-0.35,0.744
		c-0.33,1.19-1.719,1.623-3.314,2.315c0.204-0.997,0.385-1.662,0.584-2.612c-0.078-0.031-0.16-0.055-0.238-0.081
		c-0.527,1.044-1.03,2.104-1.577,3.137c-0.132,0.235-0.339,0.194-0.569,0.279c-1.469,0.521-2.941,1.081-4.436,1.319
		c-0.979,0.156,2.682-1.83,3.961-3.059c0.566-0.549,0.804-1.491,1.082-2.284c0.353-1.012,0.604-2.069,1.037-3.035
		c-0.441,2.124-0.875,4.246-1.318,6.368c0.021,0.026,0.038,0.048,0.061,0.071c0.506-1.172,1.09-2.317,1.504-3.521
		c0.522-1.502,0.869-3.062,1.367-4.562c0.363-1.106,0.854-2.178,1.317-3.356c-1.304,0.292-0.886,1.354-1.115,2.203
		c-0.397-0.591,0.196-1.658-0.748-1.602c0.666-1.194,1.354-2.437,2.044-3.674c-0.107-0.071-0.215-0.147-0.318-0.221
		c-0.393,0.52-0.774,1.031-1.2,1.598c-0.277-0.536-0.425-0.959,0.104-1.474c0.41-0.396,0.68-0.948,1.012-1.435
		c-0.075-0.05-0.145-0.107-0.221-0.158c-0.766,1.035-1.527,2.072-2.291,3.109c-0.062-0.052-0.127-0.096-0.188-0.146
		c1.202-2.182,2.835-4.023,4.565-5.796c0.646-0.775,1.295-1.55,1.943-2.327c1.285-1.546,2.658-2.974,4.467-3.92
		c0.555-0.295,1.072-0.764,0.5-1.542c0.245-0.104,0.434-0.144,0.567-0.25c0.181-0.144,0.341-0.329,0.476-0.521
		c0.018-0.024-0.225-0.306-0.265-0.285c-0.203,0.099-0.394,0.232-0.562,0.394c-0.81,0.768-1.636,1.52-2.401,2.325
		c-1.438,1.512-2.829,3.058-4.253,4.576c-0.111,0.125-0.281,0.211-0.446,0.26c-0.46,0.146-0.64,0.328-0.224,0.752
		C78.109,72.31,78.123,72.542,78.186,72.727z M47.206,68.8c0.102,0.146,0.195,0.295,0.352,0.518c0.739-0.868,1.484-1.667,2.126-2.54
		c0.256-0.34,0.415-0.857,0.383-1.278c-0.111-1.625-0.891-2.79-2.552-3.217c-0.347,0.5-0.665,1.086-1.48,0.743
		c-0.478-0.196-1.018-0.254-1.485-0.468c-0.456-0.212-0.867-0.536-1.296-0.814c-0.405-0.083-1.008-0.062-1.321,0.249
		c-0.626,0.621-1.112,0.538-1.776,0.115c-0.324-0.213-0.881-0.316-1.216-0.187c-0.618,0.243-1.169,0.669-1.713,1.075
		c-0.684,0.52-1.388,1-1.123,2.104c0.092,0.385-0.195,0.949-0.675,0.415c-0.241,0.485-0.6,0.935-0.665,1.415
		c-0.096,0.728-0.181,1.365-1.2,1.598c0.326,0.213,0.508,0.428,0.632,0.397c3.396-0.864,7.111-1.204,8.652-5.434
		c0.642,0.979,0.948,1.661,0.334,2.51c-0.504,0.697-3.382,4.193-3.794,4.947c-1.426,2.575-0.399,2.412-1.802,4.996
		c-0.122,0.235-0.189,0.496-0.36,0.942c0.491-0.039,0.887,0.034,1.153-0.114c0.952-0.553,1.924-1.104,2.768-1.804
		c1.256-1.031,2.524-1.996,3.972-2.42c0.214,1.004,0.434,1.926,0.593,2.869c0.041,0.249-0.059,0.581-0.212,0.788
		c-1.073,1.442-2.146,2.888-3.281,4.274c-0.443,0.536-1.012,0.996-1.596,1.378c-1.004,0.652-1.177,1.326-0.501,2.293
		c0.307,0.44,0.603,0.884,1.005,1.478c1.216-0.648,2.587-1.264,3.836-2.062c0.945-0.604,1.705-1.509,2.617-2.177
		c0.888-0.652,0.872-2.023,2.017-2.438c0.068-0.026,0.141-0.134,0.164-0.214c0.548-1.669-0.176-3.605,0.37-5.277
		c0.029-0.171,1.949-1.273,2.13-1.423c1.526-1.281,2.657-1.248,4.145-2.58c0.343-0.312,0.485-0.854,0.761-1.372
		c0.735,0.021,1.507-0.13,1.659-1.23c0.014-0.104,0.216-0.188,0.332-0.272c0.501-0.381,1.05-0.716,1.501-1.146
		c0.838-0.796,1.465-1.808,2.658-2.205c1.369-0.459,1.562-0.945,1.197-2.076c0.789-0.571,1.555-1.031,2.205-1.63
		c0.555-0.503,0.373-1.062-0.312-1.345c-0.546-0.227-1.073-0.48-1.659-0.744c-0.682,1.146-1.378,2.379-2.131,3.567
		c-0.256,0.399-0.596,0.814-0.995,1.038c-0.873,0.494-1.405,1.094-1.455,2.169c-0.036,0.854-0.473,1.116-1.318,1.004
		c0.814-1.394,0.828-1.693,0.068-2.152c-0.549-0.333-1.267-0.082-1.726,0.578c-0.483,0.705-0.279,1.163,0.623,1.429
		c-0.638,0.239-1.146,0.362-1.588,0.609c-1.094,0.615-2.153,1.294-3.238,1.93c-0.226,0.127-0.528,0.379-0.768,0.253
		c-0.125-0.062-0.082-0.272-0.127-0.403c0.693-0.377,1.403-0.729,2.077-1.145c0.425-0.256,0.796-0.618,1.187-0.936
		c-0.121-0.156-0.232-0.314-0.352-0.479c-0.129,0.271-0.094,0.755-0.382,0.804c-0.109,0.019-0.198-0.125-0.217-0.229
		c-0.055-0.262,0.203-0.501,0.303-0.745c-0.019-0.021-0.036-0.05-0.058-0.062c-0.72-0.453-1.256-0.083-1.806,0.385
		c-0.489,0.408-1.312,0.649-1.494,1.152c-0.37,0.99-0.686,1.858-1.841,2.07c-0.075,0.016-0.133,0.132-0.195,0.191
		c-0.615,0.596-0.996,1.769-1.851,1.78c-0.66,0.016-0.494-0.437-0.336-1.418L47.206,68.8z M58.613,49.947
		c0.745,0.972,2.097,1.492,3.067,1.083c0.409-0.173,0.867-0.762,0.911-1.202c0.065-0.617,0.238-1.418-0.444-1.98
		c-0.924,1.61-0.924,1.61-1.291,1.591c0.199-0.234,0.604-0.505,0.568-0.703c-0.16-1.062,0.458-1.487,1.251-1.866
		c0.226-0.105,0.382-0.357,0.603-0.572c-0.702-0.57-1.324-1.079-1.945-1.586c0.04-0.051,0.075-0.104,0.111-0.155
		c0.216,0.048,0.426,0.092,0.803,0.166c-0.377-0.516-0.666-0.906-0.975-1.34c0.188-0.041,0.285-0.083,0.303-0.062
		c0.74,0.912,1.58,1.769,2.158,2.778c0.197,0.347-0.229,1.07-0.375,1.616c-0.043,0.147-0.16,0.271-0.198,0.413
		c-0.157,0.655,0.426,1.975,0.868,1.943c0.488-0.041,0.964-0.164,1.441-0.207c1.213-0.112,2.434-0.195,3.836-0.31
		c0.682-1.526,1.834-3.095,1.922-5.137c0.084-1.958,0.28-3.916,0.502-5.867c0.108-0.957,0.383-1.902,0.631-3.116
		c-1.158,0.349-2.037,0.807-2.93,0.845c-1.486,0.06-1.742,1.105-2.095,2.159c-0.015,0.05-0.079,0.085-0.252,0.25
		c-0.258-0.312-0.508-0.616-0.791-0.955c-0.384,0.36-1.438,1.885-1.97,2.382c-0.174-0.36,0.27-1.811,0.16-2.168
		c-0.338-1.062-1.06-1.436-2.031-0.884c-0.729,0.413-1.323,1.065-2.046,1.499c-0.725,0.432-0.893,0.974-0.599,1.688
		c0.275,0.645,0.807,0.86,1.483,0.83c0.568-0.028,1.139-0.015,2.031-0.02c-0.448,0.508-0.697,0.996-1.088,1.188
		c-0.447,0.224-1.021,0.188-1.584,0.269c0.145,0.312,0.262,0.551,0.373,0.79c-0.579-0.122-1.1-0.292-1.623-0.313
		c-0.373-0.019-0.77,0.257-1.142,0.232c-1.287-0.075-1.976,0.334-2.423,1.515c-0.17,0.434-0.558,0.87-0.52,1.27
		c0.054,0.519,0.429,1,0.666,1.496c0.065-0.028,0.136-0.056,0.203-0.083c-0.014-0.16-0.022-0.319-0.04-0.564
		c1.381,0.864,1.967,2.688,3.926,2.485c-0.032,0.081-0.063,0.159-0.092,0.239C59.557,49.697,59.131,49.805,58.613,49.947z
		 M69.098,62.396c-1.736,0.76-3.139,2.222-5.17,2.325c0.381-0.227,0.754-0.45,1.256-0.752c-0.914-0.413-1.602-0.125-2.272,0.21
		c-0.11,0.053-0.155,0.231-0.231,0.364c0.278,0.12,0.504,0.22,0.742,0.324c-0.811,0.656-1.572,1.271-2.324,1.886
		c0.047,0.065,0.09,0.134,0.139,0.203c0.316-0.1,0.645-0.447,0.938-0.301c0.092,0.045,0.071,0.191,0.104,0.291
		c-0.346,0.124-0.688,0.271-1.039,0.375c-0.467,0.145-1.063,0.131-1.4,0.42c-0.639,0.54-1.199,1.213-1.683,1.906
		c-0.513,0.738-1.189,1.525-1.291,2.354c-0.188,1.555,0.341,2.899,1.899,3.707c1.23,0.636,1.59,0.66,2.506-0.369
		c0.533-0.589,1.192-1.082,1.649-1.72c0.644-0.911,1.188-1.897,1.679-2.896c0.307-0.614,0.422-1.32,0.648-1.973
		c0.129-0.368,0.322-0.706,0.486-1.06c-0.092,0.014-0.192,0.024-0.285,0.037c-0.178-0.428-0.35-0.856-0.538-1.309
		C66.938,66.149,68.532,64.604,69.098,62.396z M41.863,34.9c0.087,0.77,0.163,2.02,0.377,3.245c0.091,0.546,0.587,0.705,1.069,0.358
		c1.436-1.037,3.066-1.804,4.207-3.242c0.841-1.055,1.825-1.992,2.626-3.072c0.747-1.009,0.587-2.183-0.388-2.646
		c-1.233-0.585-2.609-0.861-3.929-0.208C43.723,30.375,42.225,31.935,41.863,34.9z M41.569,57.058
		c0.414-0.348,0.795-0.646,1.162-0.966c1.11-0.96,2.202-1.942,3.326-2.892c0.779-0.664,1.691-3.789,1.343-4.76
		c-0.043-0.131-0.145-0.245-0.236-0.357c-0.277-0.338-0.577-0.653-0.826-1.004c-0.184-0.25-0.301-0.55-0.456-0.827
		c-0.1,0.023-0.201,0.047-0.303,0.07c0.016,0.525,0.033,1.05,0.053,1.612c-0.146-0.029-0.293-0.06-0.438-0.087
		c-0.784-0.156-1.48-0.133-1.757,0.833c-0.028,0.105-0.114,0.208-0.197,0.295c-0.653,0.671-1.315,1.332-1.963,2.011
		c-1.868,1.976-2.004,3.151-0.054,5.649C41.294,56.733,41.375,56.828,41.569,57.058z M89.812,71.634
		c0.021,0.102,0.045,0.202,0.062,0.302c0.343-0.505,1.027-1.059,0.961-1.499c-0.169-1.186,0.594-1.688,1.199-2.388
		c0.179-0.203,0.221-0.889,0.126-0.936c-1.134-0.523-2.41-1.509-3.443-1.304c-1.043,0.206-2.194,1.452-2.694,2.522
		c-0.652,1.414-0.246,3.042,0.506,4.592c0.628-0.368,1.193-0.698,1.771-1.035c0.509,0.513,0.108,0.645-0.28,0.831
		c-0.395,0.187-0.959,0.292-0.688,1.184c0.729-0.492,1.362-0.928,2.09-1.421c-0.387-0.281-0.539-0.396-0.694-0.507
		c0.008-0.103,0.018-0.2,0.024-0.302C89.105,71.662,89.457,71.647,89.812,71.634z M53.546,49.631
		c0.132-1.039,0.23-1.969,0.358-2.898c0.14-0.958,0.221-1.939,0.499-2.855c0.191-0.647,0.729-1.181,1.038-1.803
		c0.336-0.679,0.622-1.398-0.028-2.229c-0.494,0.345-0.973,0.611-1.366,0.974c-0.973,0.884-2.018,1.725-2.826,2.742
		c-0.617,0.78-1.098,1.771-1.333,2.743c-0.214,0.909-0.028,1.909-0.026,2.644c0.325,0.299,0.558,0.569,0.842,0.755
		c0.119,0.073,0.416,0.028,0.527-0.077c0.109-0.112,0.094-0.359,0.134-0.548C52.058,49.25,52.67,49.404,53.546,49.631z
		 M34.032,64.12c1.099-1.171,1.033-1.46-0.338-1.986c-0.369-0.139-0.754-0.254-1.141-0.294c-1.411-0.157-2.113,1.007-2.536,2.558
		c-0.307,1.143-0.141,2.298,0.812,3.229c1.033,1.006,1.688-0.196,2.519-0.354c1.017-0.196,1.233-0.961,1.441-1.854
		C34.954,64.708,35.049,64.202,34.032,64.12z M45.72,58.327c0.67-0.247,1.33-0.276,1.549-0.606c0.471-0.703,0.994-0.606,1.645-0.514
		c0.346,0.05,0.781-0.015,1.079-0.192c1.057-0.604,1.738-1.954,3.27-1.61c0.131,0.033,0.375-0.213,0.487-0.378
		c0.564-0.821,1.05-1.698,1.666-2.479c0.393-0.504,0.29-0.796-0.141-1.143c-1.133,0.605-2.201,1.334-3.59,1.029
		c-0.786-0.181-1.006,0.282-0.949,1.031c0.02,0.229-0.237,0.646-0.444,0.706C48.223,54.78,46.765,56.072,45.72,58.327z
		 M75.913,59.506c-0.084-0.091-0.175-0.18-0.261-0.263c-0.334,0.318-0.646,0.677-1.012,0.959c-0.35,0.275-0.738,0.618-1.148,0.689
		c-1.776,0.289-3.151,1.158-3.987,2.76c-0.707,1.345-1.438,2.597-2.694,3.547c-1.076,0.816-1.188,2.214-1.472,3.465
		c-0.015,0.053,0.087,0.132,0.162,0.236c0.608-0.33,1.373-0.506,1.757-0.985c1.153-1.461,2.166-3.041,3.239-4.573
		c0.458-0.646,0.843-1.369,1.396-1.919c1.063-1.054,2.241-1.989,3.346-3.002C75.512,60.167,75.691,59.813,75.913,59.506z
		 M35.694,63.64c0.457-0.462,0.86-0.97,1.36-1.361c0.901-0.708,1.656-1.438,2.136-2.574c0.319-0.759,0.283-1.257-0.118-1.814
		c-0.385-0.54-0.823-1.048-1.29-1.516c-0.094-0.09-0.468-0.01-0.633,0.104c-0.085,0.063-0.073,0.371-0.021,0.547
		c0.087,0.319,0.24,0.625,0.364,0.936c-0.058,0.032-0.119,0.062-0.181,0.09c-0.29-0.354-0.587-0.706-0.928-1.116
		c-0.708,0.178-1.544,0.319-1.78,1.303c-0.087,0.369-0.023,0.766-0.065,1.15c-0.076,0.689,0.092,1.22,0.73,1.607
		c0.375,0.229,0.637,0.651,1.133,1.181c-0.583-0.093-0.854-0.132-1.212-0.188C35.37,62.589,35.53,63.103,35.694,63.64z
		 M86.284,77.438c0.356-0.546,0.7-1.05,1.036-1.561c-0.067-0.066-0.146-0.132-0.217-0.19c-0.383,0.143-0.777,0.286-1.473,0.544
		c0.324-0.727,1.109-1.346,0.748-1.678c-0.617-0.553-1.361,0.788-2.05,1.18c-0.964-1.449,1.024-1.255,0.739-2.124
		c0.021-0.473,0.054-0.944,0.078-1.44c-0.965-0.312-1.15-0.229-1.484,0.828c-0.167,0.523-0.25,1.081-0.441,1.597
		c-0.38,1.012-0.826,1.911-0.035,3.034c0.793,1.142,1.815,1.601,3.066,1.678c0.346,0.021,0.784-0.32,1.061-0.613
		c0.316-0.329,1.061-1.63,1.652-2.574C89.312,75.555,86.958,77.383,86.284,77.438z M54.712,73.292
		c0.043,0.022,0.097,0.052,0.14,0.073c-0.127,0.503-0.175,1.044-0.402,1.494c-0.522,1.041-0.809,2.06-0.65,3.249
		c0.139,1.031,0.411,1.397,1.374,1.084c0.648-0.207,1.232-0.653,1.804-1.051c0.124-0.081,0.161-0.438,0.105-0.628
		c-0.254-0.854-0.681-1.671-0.822-2.542c-0.161-0.973-0.213-2.01-0.055-2.979c0.125-0.78,0.624-1.499,1.046-2.455
		c-1.391,1.433-3.27,2.194-3.477,4.28c0.063,0.062,0.133,0.122,0.203,0.185C54.224,73.764,54.469,73.53,54.712,73.292z
		 M71.201,57.266c-0.361,0.081-0.742,0.057-0.895,0.232c-0.262,0.298-0.373,0.722-0.545,1.09c0.268,0.1,0.555,0.325,0.795,0.272
		c1.641-0.354,2.965-1.269,4.272-2.656c-0.526,0.101-0.82,0.152-1.118,0.211c0.49-0.507,1.064-0.818,1.637-1.12
		c0.771-0.404,1.687-0.663,2.024-1.575c0.219-0.58,0.257-1.219,0.372-1.841c0.037-0.196,0.037-0.409,0.051-0.615
		c-0.204,0.096-0.449,0.146-0.611,0.291c-0.767,0.697-1.439,1.518-2.268,2.119c-1.032,0.75-2.131,1.454-3.291,1.94
		C70.57,56.07,70.396,56.281,71.201,57.266z M50.298,59.896c0.024,0.064,0.208,0.373,0.15,0.431
		c-0.786,0.812-0.009,1.417,0.293,1.994c0.658,1.262,2.097,1.911,2.986,1.285c0.768-0.542,1.348-1.371,1.954-2.122
		c0.44-0.542,0.122-0.938-0.421-1.104c-0.581-0.173-1.214-0.173-1.768-0.395C52.458,59.581,51.498,58.799,50.298,59.896z
		 M62.118,55.214c-0.38-0.148-0.634-0.201-0.823-0.346c-0.122-0.09-0.141-0.314-0.202-0.484c0.55-0.205,0.858-1.027,1.707-0.479
		c0.511,0.334,1.476-0.184,1.554-0.73c0.098-0.707-0.43-0.902-1.004-1.048c-1.637-0.404-3.26-0.852-4.892-1.265
		c-0.186-0.049-0.403,0.011-0.937,0.038c0.612,0.658,1.051,1.126,1.516,1.628c-0.805,1.037-0.165,1.933,0.519,2.929
		c-0.392-0.145-0.776-0.29-1.208-0.454C58.669,55.988,60.783,56.164,62.118,55.214z M52.058,36.359
		c-1.021-0.031-1.853,0.311-2.518,1.363c-1.109,1.766-2.057,3.639-3.068,5.466c-0.044,0.079-0.093,0.222-0.062,0.264
		c0.336,0.377,0.624,0.85,1.044,1.076c0.474,0.257,0.606-0.202,0.764-0.619c0.269-0.71,0.613-1.402,0.997-2.067
		c0.808-1.406,1.681-2.776,2.484-4.188C51.902,37.299,51.929,36.842,52.058,36.359z M59.294,83.408
		c-0.986-0.279-1.385-0.161-1.976,0.385c-1.151,1.05-2.317,2.086-3.471,3.132c-0.309,0.291-0.729,0.562-0.883,0.932
		c-0.542,1.264-1.567,1.8-2.787,2.09c-0.032,0.008-0.042,0.082-0.164,0.316c1.367-0.328,2.74-0.372,3.802-0.976
		c1.344-0.771,2.526-1.907,3.608-3.04C58.17,85.478,58.636,84.437,59.294,83.408z M53.725,58.155
		c1.292,1.099,2.742,1.412,4.335,1.563c1.015,0.098,1.526-0.283,2.05-0.969c0.626-0.802,0.508-1.361-0.444-1.661
		C57.524,56.417,55.485,56.49,53.725,58.155z M53.684,81.685c-0.464,0.188-0.957,0.376-1.452,0.593
		c-0.271,0.121-0.54,0.422-0.784,0.395c-0.98-0.11-1.036,0.351-0.772,1.092c0.038,0.111,0.106,0.268,0.058,0.344
		c-0.625,1.048,0.26,0.921,0.791,1.021c0.385,0.066,0.786,0.035,1.18,0.069c1.073,0.097,2.415-0.747,2.681-1.77
		c0.07-0.241-0.028-0.666-0.207-0.812C54.771,82.259,54.267,82.029,53.684,81.685z M67.303,84.978
		c-2.097-1.205-2.177-1.255-2.783-0.837c-0.609,0.427-1.177,0.919-1.297,1.821c0.592-0.039,1.07-0.072,1.305-0.089
		c-0.394,0.555-0.816,1.152-1.245,1.75c0.417,0.149,0.849,0.469,1.233,0.41c0.924-0.143,1.226-0.804,0.812-1.902
		c0.781,0.932,1.037,0.909,1.445,0.07C66.959,85.822,67.111,85.422,67.303,84.978z M40.062,80.52
		c0.53-0.279,0.806-0.471,1.106-0.586c1.381-0.521,2.279-1.582,3.007-2.805c0.16-0.271,0.211-0.872,0.044-1.033
		c-0.537-0.516-2.77,0.109-3.045,0.791c-0.27,0.687-0.55,1.366-0.777,2.07C40.256,79.4,40.201,79.87,40.062,80.52z M32.879,55.313
		c2.54-1.495,4.457-3.92,5.402-5.787c-0.89,0.398-2.028,0.851-3.115,1.399c-0.496,0.256-1.09,0.614-1.291,1.082
		C33.438,52.993,33.228,54.079,32.879,55.313z M48.677,48.599c-0.536,1.459-1.034,2.927-1.623,4.36
		c-0.241,0.576-0.689,1.057-1.031,1.59c-0.282,0.443-0.527,0.909-0.816,1.348c-0.398,0.583-0.827,1.146-1.243,1.724
		c0.068,0.049,0.132,0.1,0.199,0.149c1.215-1.263,2.144-2.849,3.922-3.646C49.476,52.573,48.729,50.561,48.677,48.599z
		 M57.338,28.066c-0.385,0.774-0.679,1.333-0.945,1.901c-0.43,0.909-0.786,1.864-1.276,2.732c-0.911,1.604-1.958,3.122-2.833,4.737
		c-0.315,0.57-0.309,1.316-0.445,1.982c0.945-1.525,1.655-3.098,2.449-4.629c0.548-1.05,1.098-2.068,2.107-2.84
		C57.756,30.916,58.009,29.686,57.338,28.066z M34.251,57.564c-1.24-0.128-1.926,0.505-2.539,1.191
		c-0.507,0.561-0.267,1.772,0.346,2.144c0.557,0.336,1.341,0.131,1.593-0.582C33.954,59.445,34.054,58.503,34.251,57.564z
		 M55.137,80.911c0.346,0.313,0.624,0.761,0.967,0.821c0.823,0.146,1.681,0.19,2.504,0.09c0.269-0.029,0.603-0.626,0.657-1.002
		c0.04-0.252-0.291-0.676-0.568-0.836C58.072,79.621,55.801,80.197,55.137,80.911z M85.736,67.415c0-0.133-0.189-0.181-0.287-0.271
		c-0.36,0.396-0.725,0.792-1.096,1.188c-0.66-1.026-1.513-0.695-2.683,1.015c0.201,0.042,0.396,0.082,0.588,0.123
		c0.021,0.072,0.048,0.144,0.068,0.215c-0.29,0.129-0.579,0.256-0.976,0.424c0.354,0.145,0.664,0.276,1.016,0.419
		c-0.303,0.559-0.604,1.079-0.875,1.628c-0.062,0.127-0.008,0.315-0.008,0.478c0.182-0.044,0.41-0.037,0.535-0.148
		c0.117-0.103,0.094-0.353,0.178-0.507c0.427-0.772,0.791-1.599,1.334-2.274C84.186,68.876,85.766,68.478,85.736,67.415z
		 M40.243,58.102c0.035,0.396-0.029,0.861,0.138,1.209c0.172,0.353,0.581,0.587,0.883,0.874c-0.029,0.059-0.052,0.109-0.076,0.163
		c-0.443-0.091-0.883-0.184-1.322-0.274c-0.056,0.083-0.115,0.167-0.172,0.243c0.4,0.472,0.769,0.971,1.235,1.362
		c0.07,0.058,0.539-0.424,0.857-0.573c0.205-0.1,0.496,0.005,0.706-0.085c0.222-0.103,0.482-0.3,0.55-0.512
		c0.048-0.146-0.154-0.434-0.313-0.585c-0.143-0.133-0.381-0.163-0.608-0.259c0.086-0.278,0.156-0.52,0.214-0.711
		C41.598,58.651,40.941,58.387,40.243,58.102z M75.021,43.047c-0.026-0.249-0.117-0.606-0.098-0.962
		c0.044-0.92-0.51-1.37-1.256-1.561c-0.309-0.082-0.904,0.066-1.008,0.287c-0.249,0.515-0.35,1.139-0.338,1.707
		c0.006,0.146,0.66,0.314,1.039,0.384C73.867,42.998,74.393,43,75.021,43.047z M82.498,44.107c-0.262,1.054,0.036,1.856,0.65,2.039
		c0.59,0.17,1.729-0.685,1.865-1.408c0.118-0.598-0.65-1.498-1.477-1.62C82.689,42.995,82.581,43.682,82.498,44.107z M69.309,77.863
		c0.049,0.156,0.139,0.569,0.336,0.915c0.051,0.086,0.556,0.061,0.69-0.078c0.649-0.676,1.295-1.377,1.858-2.129
		c0.34-0.452,0.061-1.028-0.396-1.034C70.879,75.525,69.525,76.658,69.309,77.863z M35.082,49.227
		c0.453,0.697,0.966,1.032,1.726,0.747c0.703-0.271,1.727-1.86,1.653-2.62c-0.018-0.175-0.157-0.378-0.305-0.486
		c-0.064-0.048-0.298,0.079-0.422,0.173c-0.606,0.454-1.207,0.905-1.786,1.377C35.646,48.663,35.373,48.948,35.082,49.227z
		 M78.855,50.018c1.396-0.307,2.58-0.536,3.051-2.009c-0.326-0.235-0.694-0.502-1.123-0.815c-0.117,0.319-0.196,0.534-0.276,0.75
		c-0.325-0.11-0.631-0.211-1.14-0.379C79.188,48.412,79.035,49.164,78.855,50.018z M75.368,44.59
		c-0.673-0.127-1.3,0.329-1.317,1.168c-0.01,0.389,0.534,1.146,0.635,1.115c0.637-0.201,1.312-0.484,1.77-0.94
		C76.73,45.659,75.921,44.695,75.368,44.59z M70.141,67.261c-0.088-0.054-0.179-0.104-0.266-0.159
		c-1.253,1.907-2.505,3.812-3.758,5.718C67.575,71.05,69.873,69.862,70.141,67.261z M75.402,49.414
		c-0.25,1.062,0.184,2.172,0.736,2.192c0.83,0.028,0.744-0.756,0.934-1.247c0.305-0.788-0.221-1.199-0.836-1.341
		C75.963,48.955,75.582,49.318,75.402,49.414z M49.339,87.438c0.443,0.776,0.986,1.33,1.88,1.24
		c0.192-0.014,0.505-0.418,0.489-0.617C51.614,87.001,50.362,86.646,49.339,87.438z M52.88,78.001
		c0.024-1.143,0.036-1.958,0.053-2.917c-0.42,0.664-0.845,1.195-1.115,1.794c-0.214,0.468-0.23,1.02-0.337,1.53
		C52.017,78.252,52.551,78.099,52.88,78.001z M70.378,71.221c-0.604,0.527-1.2,0.993-1.704,1.548
		c-0.078,0.083,0.307,0.594,0.489,0.92C70.859,72.359,70.924,72.243,70.378,71.221z M73.91,72.213
		c-1.186,0.497-2.205,0.931-3.232,1.363c0.022,0.131,0.047,0.262,0.075,0.395c0.326,0.008,0.845,0.147,0.938,0.006
		c0.641-0.938,1.154-0.402,1.811,0.185C73.648,73.462,73.77,72.886,73.91,72.213z M79.283,63.842
		c-1.139,0.095-1.895,1.163-1.688,2.304C79.45,65.174,79.548,65.038,79.283,63.842z M89.389,63.816
		c0.414-0.388,0.803-0.753,1.194-1.117c-0.021-0.088-0.033-0.171-0.056-0.258c-0.229-0.024-0.59-0.165-0.672-0.063
		c-0.814,0.977-1.582,1.99-2.269,2.869c0.556-0.158,1.265-0.272,1.892-0.562C89.966,64.458,89.98,64.037,89.389,63.816z
		 M33.569,73.417c1.027,0.584,1.75,0.355,2.288-0.244c0.249-0.271,0.202-0.812,0.29-1.225c-0.094-0.042-0.193-0.087-0.291-0.126
		C35.134,72.33,34.408,72.832,33.569,73.417z M72.969,46.963c-1.001-0.434-1.576-0.129-1.881,0.925
		c-0.057,0.208,0.025,0.587,0.176,0.685c0.146,0.094,0.564,0.041,0.688-0.103C72.316,48.032,72.602,47.521,72.969,46.963z
		 M34.07,79.069c0.942,0.219,1.744-0.106,2.511-0.532c0.049-0.025-0.033-0.536-0.147-0.586
		C35.585,77.625,34.548,78.106,34.07,79.069z M48.316,59.873c1.273-0.103,2.377-1.304,2.093-2.235
		C49.594,58.248,48.525,58.564,48.316,59.873z M61.79,58.771c0.595-0.615,1.169-1.212,1.756-1.828
		c-0.174-0.125-0.228-0.196-0.269-0.188c-0.295,0.062-0.578,0.136-0.864,0.218C61.257,57.286,61.133,57.597,61.79,58.771z
		 M45.757,84.689c0.706,0.721,1.479,0.501,1.776-0.521c0.063-0.224-0.075-0.502-0.114-0.746c-0.248,0.078-0.545,0.103-0.729,0.261
		C46.363,83.957,46.096,84.319,45.757,84.689z M77.953,77.85c1.133-0.564,1.283-0.938,0.791-1.892
		C77.635,76.29,77.352,76.909,77.953,77.85z M72.355,64.947c-0.187,0.055-0.354,0.046-0.41,0.121
		c-0.332,0.426-0.637,0.868-0.946,1.311c0.159,0.095,0.367,0.307,0.483,0.265c0.633-0.222,1.119-0.593,0.992-1.386
		C72.458,65.166,72.412,65.087,72.355,64.947z M57.137,76.297c0.483,0.488,0.722,0.858,1.052,1.019
		c0.194,0.087,0.544-0.165,0.824-0.261c-0.237-0.35-0.419-0.772-0.738-1.012C58.127,75.929,57.721,76.153,57.137,76.297z
		 M65.327,53.87c-0.693,0.421-0.796,0.929-0.331,1.41c0.148,0.155,0.788,0.126,0.91-0.038C66.48,54.507,65.641,54.314,65.327,53.87z
		 M65.951,52.811c0.805-0.042,1.438-0.938,1.154-1.511c-0.068-0.14-0.262-0.288-0.412-0.312c-0.133-0.01-0.364,0.131-0.397,0.249
		C66.15,51.747,66.066,52.27,65.951,52.811z M33.483,55.983c0.045,0.1,0.091,0.203,0.141,0.31c0.414-0.001,0.959,0.156,1.21-0.048
		c0.282-0.231,0.297-0.792,0.428-1.213c-0.097-0.061-0.197-0.118-0.298-0.181C34.47,55.23,33.973,55.605,33.483,55.983z
		 M31.594,41.977c-0.898,0.284-1.575,0.494-2.422,0.76c0.754,0.278,1.28,0.472,1.932,0.716
		C31.269,42.965,31.424,42.504,31.594,41.977z M78.195,81.193c0.109,0.101,0.223,0.199,0.345,0.296
		c0.423-0.338,0.874-0.65,1.254-1.036c0.104-0.104,0.063-0.506-0.052-0.628c-0.1-0.106-0.51-0.104-0.604,0.003
		C78.781,80.252,78.501,80.737,78.195,81.193z M51.271,81.401c-1.169-0.031-2.164,0.8-2.251,1.812
		C49.84,82.557,50.553,81.978,51.271,81.401z M69.008,55.789c-0.326,0.276-0.566,0.478-0.812,0.687
		c0.185,0.212,0.365,0.593,0.552,0.599c0.248,0,0.614-0.235,0.722-0.467C69.532,56.452,69.209,56.132,69.008,55.789z M40.781,31.49
		c-1.275,0.387-1.718,1.139-1.718,2.23C39.586,33.04,40.112,32.361,40.781,31.49z M67.48,75.646
		c-0.244,0.692-0.443,1.261-0.695,1.942C67.968,77.188,68.178,76.646,67.48,75.646z M47.647,36.882
		c-0.447,0.896-0.798,1.613-1.212,2.444C47.279,38.738,48.083,38.274,47.647,36.882z M47.765,36.641
		c0.109,0.089,0.203,0.178,0.305,0.271c0.672-0.908,1.339-1.824,2.01-2.732c-0.059-0.056-0.123-0.104-0.189-0.159
		C49.189,34.894,48.473,35.762,47.765,36.641z M53.112,51.165c0.065,0.089,0.132,0.177,0.202,0.261
		c0.269-0.207,0.613-0.358,0.79-0.627c0.126-0.195,0.036-0.54,0.04-0.821c-0.123-0.02-0.243-0.04-0.365-0.061
		C53.555,50.333,53.333,50.749,53.112,51.165z M80.236,44.549c-0.033-0.187-0.068-0.366-0.1-0.547
		c-0.345,0.045-0.697,0.06-1.019,0.169c-0.06,0.021,0.024,0.449,0.041,0.688C79.518,44.757,79.876,44.652,80.236,44.549z
		 M87.293,43.519c-0.832,0.046-1.174,0.316-0.893,0.883c0.066,0.143,0.361,0.169,0.549,0.251
		C87.068,44.273,87.18,43.893,87.293,43.519z M73.204,44.576c-0.825,0.261-0.886,1.03-0.138,1.748
		C73.111,45.755,73.154,45.213,73.204,44.576z M92.512,59.811c-0.102,0.003-0.207,0.003-0.303,0.004
		c-0.059,0.277-0.234,0.748-0.154,0.807c0.256,0.16,0.617,0.167,0.938,0.232c0.043-0.11,0.084-0.222,0.124-0.33
		C92.912,60.287,92.712,60.044,92.512,59.811z M62.092,87.34c0.029,0.185,0.299,0.213,0.442,0.318
		c0.225-0.342,0.752-0.623,0.678-1.026c-0.028-0.148-0.25-0.172-0.371-0.261C62.593,86.692,62.035,86.934,62.092,87.34z"/>
	<path fill="#FFFFFF" d="M96.432,76.593c-0.024,0.065-0.048,0.137-0.086,0.204c0,0,0.229-0.283,0.592-0.839
		c3.252-6.285,5.092-13.416,5.092-20.98c0-8.75-2.459-16.923-6.715-23.874c-0.006-0.006-0.019-0.024-0.019-0.024l23.05-30.5
		L84.84,27.476c9.327,7.561,15.299,19.104,15.299,32.045C100.139,65.611,98.805,71.39,96.432,76.593z"/>
	<path fill="#FFFFFF" d="M22.928,41.888c0.03-0.065,0.051-0.136,0.087-0.202c0,0-0.23,0.285-0.592,0.834
		c-3.25,6.289-5.091,13.42-5.091,20.985c0,8.75,2.458,16.925,6.718,23.874c0.003,0.009,0.016,0.022,0.016,0.022L1.015,117.9
		L34.52,91.005c-9.327-7.559-15.295-19.101-15.295-32.045C19.225,52.868,20.557,47.086,22.928,41.888z"/>
</g>
</svg>
