<?xml version="1.0" encoding="utf-8"?>
<!-- Generator: Adobe Illustrator 16.0.0, SVG Export Plug-In . SVG Version: 6.00 Build 0)  -->
<!DOCTYPE svg PUBLIC "-//W3C//DTD SVG 1.1//EN" "http://www.w3.org/Graphics/SVG/1.1/DTD/svg11.dtd">
<svg version="1.1" id="Layer_1" xmlns="http://www.w3.org/2000/svg" xmlns:xlink="http://www.w3.org/1999/xlink" x="0px" y="0px"
	 width="157.719px" height="50px" viewBox="0 0 157.719 50" enable-background="new 0 0 157.719 50" xml:space="preserve">
<g>
	<g>
		<polygon fill="#EDEBE9" points="57.545,33.141 59.578,33.141 59.578,19.607 67.94,19.607 67.94,33.141 69.969,33.141 
			69.969,17.684 57.545,17.684 		"/>
		<polygon fill="#EDEBE9" points="83.328,17.751 78.918,26.82 74.043,17.814 74.008,17.751 71.664,17.757 77.867,28.904 
			75.684,33.208 77.824,33.208 85.674,17.751 		"/>
		<path fill="#EDEBE9" d="M106.768,22.714h-4.809v-5.03h-2.027v15.457h6.836c3.41,0,5.191-2.625,5.191-5.216
			C111.959,25.335,110.178,22.714,106.768,22.714z M106.768,31.191h-4.809v-6.555h4.809c2.187,0,3.181,1.699,3.181,3.273
			c0,0.875-0.285,1.68-0.802,2.27C108.576,30.846,107.752,31.191,106.768,31.191z"/>
		<path fill="#EDEBE9" d="M127.176,30.661l-1.406-1.326l-0.309,0.308c-1.113,1.092-2.654,1.719-4.236,1.719
			c-2.711,0-5.896-1.549-5.949-5.91c-0.012-1.766,0.572-3.334,1.646-4.416c1.049-1.055,2.535-1.611,4.303-1.611
			c1.609,0,3.104,0.609,4.209,1.715l0.301,0.301l1.457-1.264l-0.346-0.342c-1.494-1.492-3.49-2.314-5.621-2.314
			c-2.317,0-4.303,0.76-5.729,2.203c-1.449,1.463-2.232,3.514-2.209,5.777c0.021,3.889,2.485,7.809,7.938,7.809
			c2.129,0,4.125-0.824,5.621-2.315L127.176,30.661z"/>
		<path fill="#EDEBE9" d="M127.557,32.962l-0.086,0.179h2.207l1.578-3.576h8.1l1.603,3.576h2.207l-7.851-16.287L127.557,32.962z
			 M135.305,20.975l3.207,6.645H132.1L135.305,20.975z"/>
		<path fill="#EDEBE9" d="M151.406,17.684h-6.839v15.457h2.029v-5.031h4.81c3.405,0,5.188-2.623,5.188-5.211
			C156.596,20.307,154.813,17.684,151.406,17.684z M151.406,26.186h-4.81V19.63h4.81c2.184,0,3.176,1.697,3.176,3.274
			c0,0.871-0.283,1.677-0.797,2.269C153.213,25.835,152.391,26.186,151.406,26.186z"/>
		<polygon fill="#EDEBE9" points="82.739,33.141 84.944,33.141 90.574,21.105 96.225,33.141 98.43,33.141 90.582,16.872 		"/>
	</g>
	<g>
		<path fill="#E64815" d="M49.998-0.001v44.256c0,3.474-2.295,5.746-5.765,5.746H0V5.767c0-3.473,2.295-5.768,5.766-5.768H49.998z"
			/>
		<path fill="#EEECE9" d="M32.883,30.749c-0.102,0.015-0.227-0.004-0.297,0.051c-0.369,0.281-0.726,0.584-1.025,0.832
			c-0.117,0.238-0.188,0.445-0.309,0.621c-0.295,0.431-0.629,0.832-0.906,1.271c-0.09,0.146-0.047,0.371-0.07,0.607
			c0.103-0.109,0.179-0.189,0.254-0.271c-0.271,0.726-0.524,1.453-1.075,2.011c-0.039-0.021-0.078-0.043-0.113-0.062
			c0.193-0.344,0.385-0.69,0.578-1.041c-0.459,0.092-0.496,0.125-0.965,0.955c0.094,0.074,0.188,0.154,0.299,0.246
			c-0.408,0.545-0.824,1.062-1.197,1.611c-0.135,0.193-0.172,0.459-0.27,0.744c-0.043,0.039-0.144,0.141-0.238,0.242
			c0.146,0.063,0.293,0.129,0.482,0.213c0.004,0.037,0.014,0.156,0.026,0.297c0.959-0.082,1.053-0.945,1.447-1.59
			c0.035,1.229-1.984,2.77-3.49,2.514c0.174-0.135,0.312-0.248,0.455-0.348c0.35-0.232,0.35-0.328-0.02-0.545
			c0.062-0.107,0.125-0.211,0.194-0.33c-0.467-0.043-0.979,0.215-1.217,0.664c0.164-0.088,0.326-0.176,0.514-0.275
			c-0.42,0.793-1.379,0.994-2.862,0.758c0.207-0.18,0.58-0.391,0.758-0.576c0.094-0.094,0.131-0.24,0.192-0.363
			c-0.135-0.061-0.284-0.186-0.403-0.162c-0.39,0.078-0.772,0.199-1.149,0.328c-0.209,0.072-0.396,0.215-0.604,0.277
			c-0.22,0.062-0.064,0.229-0.289,0.262c-0.377-0.117-0.857-0.229-0.863-0.268c0.248-0.146,0.951-0.295,1.191-0.453
			c0.246-0.16,0.155-0.357-0.054-0.393c-0.309-0.047-0.633-0.02-0.944,0.025c-0.158,0.022-0.297,0.157-0.449,0.237
			c-0.473,0.25-0.76,0.287-1.508-0.065c0.256-0.289,0.637-0.785,0.92-1.049c0.285-0.269,0.545-0.523,0.496-0.957
			c-0.011-0.002-0.047-0.025-0.056-0.019c-0.428,0.438-1.084,0.567-1.446,1.108c-0.349,0.521-0.722,0.646-1.435,0.144
			c0.15-0.153,0.728-0.213,0.621-0.606c-0.022-0.086-0.182-0.136-0.326-0.236c0.091-0.699-0.698-0.387-1.021-0.672
			c-0.129,0.119-0.469,0.428-0.668,0.611c-0.894-0.617-1.558-1.49-2.183-2.384c-0.229-0.323-0.485-0.754-1.012-0.812
			c-0.018-0.002-0.031-0.039-0.045-0.062c-0.553-0.771-0.426-0.721,0.416-1.315c0.449-0.318,0.434-0.59,0.195-1.08
			c-0.289-0.602-0.812-0.73-1.354-0.865c-0.303-0.08-0.518,0.107-0.817,0.527c-0.341-0.756-0.604-1.549-0.806-2.299
			c-0.053-0.193,0.293-0.562,0.388-0.785c0.291-0.688,0.596-1.377,0.889-2.062c0.035-0.09,0.041-0.188-0.004-0.312
			c-0.791,0.599-0.82,1.603-1.217,2.404c-0.039,0.002-0.199-0.008-0.238-0.006c-0.146-0.787-0.246-1.486-0.277-2.287
			c-0.069-1.68,0.104-3.316,0.547-4.854c0.279-0.971,0.662-1.896,1.076-2.805c0.064-0.152,0.299-0.248,0.469-0.334
			c0.334-0.172,0.675-0.324,1.011-0.482c0.086,0.34,0.278,0.385,0.92,0.182c0.006,0.318,0.028,0.598-0.234,0.869
			c-0.432,0.455-0.891,0.893-0.945,1.613c-0.022,0.316-0.317,0.611-0.475,0.922c-0.055,0.111-0.086,0.244-0.092,0.367
			c-0.029,0.439-0.041,0.879,0.012,1.377c0.303-0.465,0.64-0.912,0.892-1.404c0.139-0.273,0.135-0.623,0.194-0.938
			c0.01-0.039-0.002-0.092,0.019-0.117c0.424-0.445,0.256-1.105,0.565-1.588c0.086-0.129,0.201-0.238,0.359-0.332
			c-0.047,0.516-0.461,0.977-0.125,1.488c0.108-0.134,0.242-0.287,0.371-0.443c0.043,0.035,0.086,0.072,0.127,0.107
			c-0.283,0.352-0.566,0.7-0.844,1.043c0.551,0.182,0.944-0.15,1.354-0.435c0.385-0.267,0.375-0.437-0.02-0.694
			c-0.093-0.062-0.181-0.123-0.246-0.25c0.146,0.028,0.293,0.061,0.366,0.075c0.373-0.164,0.716-0.303,1.044-0.465
			c0.108-0.056,0.229-0.147,0.282-0.259c0.183-0.368,0.308-0.771,0.508-1.133c0.156-0.291,0.201-0.521,0.062-0.846
			c-0.098-0.23-0.016-0.535-0.041-0.801c-0.021-0.227-0.047-0.469-0.143-0.666c-0.095-0.199-0.273-0.244-0.482-0.068
			c-0.164,0.135-0.41,0.182-0.547,0.334c-0.238,0.26-0.476,0.555-0.33,0.967c0.025,0.076-0.006,0.174-0.016,0.359
			c-0.476-0.811-0.47-0.857,0.084-1.469c-0.263-0.346-0.224-0.699-0.033-1.094c0.207-0.428-1.736,1.273-1.988,1.117
			c1.18-1.31,4.113-4.437,9.506-5.027c-0.188,0.258-0.32,0.424-0.436,0.605c-0.273,0.438-0.539,0.889-0.804,1.338
			c-0.036,0.063-0.053,0.147-0.059,0.225c-0.025,0.359-0.043,0.719-0.057,0.998c0.438-0.299,0.998-0.605,1.456-1.025
			c0.299-0.273,0.459-0.709,0.668-1.078c0.186-0.328,0.348-0.674,0.547-0.994c0.061-0.098,0.217-0.131,0.356-0.158
			c-0.241,0.558-0.766,0.972-0.61,1.677c0.117-0.289,0.239-0.576,0.348-0.869c0.25-0.666,0.521-0.883,1.182-0.817
			c0.802,0.02,3.101,0.328,4.521,0.951c-0.756,0.479-3.443,0.52-4.141,0.657c0.182,0.606,0.354,1.19,0.534,1.771
			c0.019,0.051,0.097,0.08,0.158,0.131c0.062-0.068,0.123-0.131,0.181-0.191c0.776,0.463,0.893,1.334,0.264,1.939
			c0.143-0.037,0.283-0.064,0.422-0.104c0.395-0.11,0.783-0.252,1.18-0.325c0.408-0.074,0.826-0.084,1.238-0.119
			c0.324-0.033,0.309-0.205,0.172-0.479c-0.856,0.524-1.66,0.541-2.344-0.271c-0.375-0.445-0.354-0.654-0.213-0.863
			c-0.06-0.211-0.105-0.387-0.154-0.564c0.049-0.012,0.1-0.025,0.146-0.035c0.016,0.334,0.489,0.531,0.231,0.949
			c-0.004,0.01,0.047,0.084,0.07,0.084c0.496,0,0.631,0.584,1.092,0.674c0.256,0.049,0.85-0.121,0.871-0.385
			c0.012-0.133-0.123-0.299-0.229-0.408c-0.11-0.113-0.272-0.176-0.411-0.26c0.002-0.035,0.006-0.072,0.01-0.107
			c0.381-0.078,0.76-0.184,1.145-0.229c0.486-0.057,0.599-0.73,0.91-1.102c0-0.42,0.951,0.186,1.365,0.455
			c-0.113,0.223-0.312,0.582-0.435,0.819c0.459,0.142,0.597-0.127,0.666-0.676c0.349,0.209,0.908,0.58,1.195,0.847
			c-0.008,0.034-0.289,0.022-0.295,0.057c-0.248,0.049-0.5,0.133-0.75,0.139c-0.488,0.008-0.844,0.217-1.104,0.621
			c-0.255,0.398-0.57,0.766-0.769,1.191c-0.172,0.364-0.246,0.791-0.297,1.194c-0.014,0.138,0.154,0.354,0.293,0.438
			c0.35,0.201,0.471,0.494,0.482,0.871c0.002,0.096,0.045,0.188,0.168,0.301c0.271-0.541,0.504-1.104,0.825-1.611
			c0.375-0.596,0.818-1.148,1.252-1.703c0.175-0.227,0.382-0.428,0.599-0.617c0.084-0.074,0.229-0.082,0.363-0.07
			c-0.334,0.666,0.278,0.972,1.108,1.019c0.176,0.011,0.523,0.539,0.674,0.681c-0.512-0.019-1.34,0.047-1.789-0.369
			c-0.395-0.365-0.625-0.232-0.987,0.166c-0.449,0.498-0.662,1.051-0.738,1.69c-0.037,0.328,0.092,0.49,0.473,0.457
			c-0.022,0.097-0.032,0.183-0.059,0.261c-0.084,0.239-0.012,0.457,0.205,0.518c0.154,0.039,0.371-0.035,0.516-0.129
			c0.271-0.176,0.51-0.4,0.762-0.607c0.031,0.023,0.06,0.053,0.093,0.08c-0.021-0.08-0.039-0.158-0.07-0.285
			c0.115,0.023,0.209,0.023,0.279,0.061c0.291,0.154,0.563,0.099,0.797-0.1c0.322-0.27,0.504-0.902,0.887-1.25
			c0.271,0.357,0.707,1.006,0.861,1.303c-0.164,0.123-0.629,0.287-0.752,0.48c-0.109,0.174-0.156,0.461-0.099,0.652
			c0.041,0.125,0.316,0.195,0.5,0.24c0.173,0.045,0.359,0.035,0.543,0.035c0.4-0.002,0.584,0.211,0.599,0.6
			c-0.252-0.043-0.513-0.059-0.75-0.133c-0.572-0.18-0.994-0.074-1.322,0.393c0.404,0.258,0.836,0.146,1.24,0.072
			c0.285-0.053,0.549-0.229,0.822-0.35c0.174,0.219,0.278,0.43,0.028,0.68c-0.055,0.059-0.043,0.188-0.071,0.33
			c0.184-0.049,0.342-0.359,0.465-0.394c0.018,0.033,0.141,0.414,0.157,0.445c-0.143,0.079-0.418,0.139-0.565,0.155
			c-0.355,0.045-0.723,0.013-1.076,0.064c-0.219,0.033-0.422,0.17-0.631,0.26c0.033,0.025,0.065,0.053,0.102,0.08
			c-0.062,0.219-0.125,0.438-0.176,0.658c-0.02,0.082-0.016,0.168-0.021,0.252c0.086,0.006,0.17,0.012,0.256,0.012
			c0.408-0.01,0.817-0.031,1.227-0.027c0.361,0.003,0.719,0.029,1.078,0.048c0.016-0.043,0.103-0.289,0.117-0.328
			c0.062,0.244,0.149,0.724,0.209,1.104c-0.396,0.01-0.828,0.054-1.148-0.035c-0.59-0.161-0.998,0.043-1.405,0.439
			c-0.209,0.205-0.484,0.344-0.742,0.496c-0.068,0.039-0.174,0.033-0.26,0.02c-0.271-0.047-0.535-0.106-0.884-0.182
			c-0.008-0.018-0.062-0.133-0.114-0.252c-0.341,0.139-0.664,0.291-1.004,0.398c-0.078,0.025-0.246-0.057-0.289-0.135
			c-0.062-0.111-0.111-0.326-0.054-0.394c0.195-0.217,0.441-0.392,0.67-0.575c0.023-0.021,0.088,0.014,0.113-0.003
			c0.461-0.327,0.984-0.532,1.49-0.78c0.365-0.183,0.326-0.322-0.004-0.601c-0.054-0.047-0.037-0.185-0.049-0.272
			c-0.4-0.082-0.707,0.069-0.955,0.383c-0.291,0.365-0.646,0.637-1.076,0.824c-0.232,0.102-0.517,0.213-0.64,0.41
			c-0.219,0.348-0.368,0.754-0.481,1.153c-0.223,0.791-0.334,1.631-0.896,2.278c-0.258,0.302-0.594,0.531-0.895,0.795
			c-0.025,0.023-0.076,0.046-0.084,0.076c-0.104,0.408-0.207,0.816-0.295,1.229c-0.002,0.011,0.229,0.097,0.242,0.074
			c0.655-1.024,1.729-1.733,2.168-2.927c0.088-0.246,0.139-0.508,0.207-0.766c0.037,0,0.078,0.002,0.114,0.002
			c0.015,0.146,0.037,0.283,0.05,0.426c0.002,0.035-0.035,0.088-0.019,0.113c0.271,0.436,0.113,0.885,0.053,1.336
			c-0.108,0.762-0.172,1.51-1.041,1.898c-0.295,0.133-0.454,0.607-0.655,0.938c-0.148,0.242-0.258,0.51-0.404,0.799
			c0.031,0.027,0.092,0.084,0.166,0.154c-0.07,0.053-0.141,0.104-0.225,0.168c0.059,0.023,0.104,0.057,0.125,0.047
			c0.239-0.106,0.522-0.178,0.709-0.35c0.944-0.906,1.92-2.836,2.969-3.588c1.416-1.016,2.234-2.18,3.772-2.514
			c0.218-0.152,0.562-0.301,0.845-0.437c0.043,0.224,0.055,0.444,0.061,0.636c-0.164,0.146-0.377,0.258-0.6,0.45
			c0.246,0.054,0.426-0.062,0.619-0.021c-0.002,0.397,0.018,0.912-0.021,1.318c-0.055,0.53-0.604,0.442-0.693,0.887
			c-0.133-0.119-0.229-0.211-0.25-0.229c-0.311,0.151-0.565,0.271-0.805,0.41c-0.106,0.062-0.274,0.228-0.26,0.254
			c0.082,0.146,0.211,0.36,0.33,0.364c0.494,0.009,0.992-0.053,1.508-0.092c-0.035,0.668-0.535,0.144-0.574,0.521
			c0.138,0.078,0.275,0.146,0.447,0.246c-0.064,0.572-0.367,0.887-0.857,1.055c-0.051,0.373,0.498,0.475,0.281,0.936
			c-0.137-0.075-0.207-0.166-0.428-0.293c-0.088,0.757-0.562,1.32-0.889,1.966c0.282,0.159,0.379,0.008,0.366-0.201
			c-0.02-0.373,0.191-0.396,0.502-0.392c-0.489,1.242-1.268,2.306-2.024,3.248c-0.16-0.09-0.131-0.112-0.271-0.145
			c-0.479-0.111-0.969-0.189-1.45-0.295c-0.117-0.027-0.222-0.117-0.398-0.215c-0.518,0.756-0.408,1.65-0.541,2.514
			c0.303,0.062,0.74-0.203,1.039-0.139c-0.221,0.205-0.389,0.326-0.723,0.604c-0.121,0.098-0.302-0.17-0.568-0.184
			c0.025-0.322,0.062-0.701,0.084-1.08c0.01-0.244,0.023-0.496-0.021-0.734c-0.012-0.059-0.295-0.149-0.348-0.106
			c-0.356,0.315-0.709,0.647-1.02,1.015c-0.398,0.463-0.431,0.733-0.297,1.561c0.43-0.281,0.856-0.738,1.299-0.129
			c0.213-0.037,0.385-0.133,0.672-0.182c-0.188,0.161-0.267,0.217-0.465,0.354c-0.209,0.146-0.511,0.396-0.668,0.433
			c-0.105,0.021,0.237-0.265,0.168-0.321c-0.24-0.203-0.425-0.199-0.603,0.067c-0.062,0.099-0.121,0.205-0.147,0.313
			c-0.142,0.513-0.732,0.693-1.412,0.99c0.086-0.428,0.162-0.711,0.248-1.115c-0.033-0.014-0.068-0.021-0.103-0.035
			c-0.225,0.445-0.44,0.896-0.674,1.336c-0.055,0.105-0.143,0.087-0.24,0.121c-0.625,0.222-1.256,0.459-1.893,0.562
			c-0.416,0.064,1.143-0.779,1.688-1.303c0.24-0.232,0.343-0.635,0.459-0.975c0.152-0.433,0.259-0.879,0.443-1.293
			c-0.188,0.903-0.375,1.811-0.561,2.715c0.008,0.012,0.016,0.02,0.021,0.029c0.219-0.498,0.467-0.986,0.646-1.5
			c0.221-0.642,0.368-1.304,0.58-1.945c0.155-0.471,0.364-0.926,0.562-1.432c-0.555,0.125-0.377,0.577-0.477,0.938
			c-0.168-0.25,0.084-0.707-0.318-0.683c0.283-0.508,0.578-1.039,0.871-1.563c-0.045-0.031-0.092-0.062-0.135-0.095
			c-0.166,0.222-0.332,0.441-0.513,0.683c-0.116-0.229-0.182-0.41,0.045-0.627c0.177-0.17,0.289-0.403,0.429-0.612
			c-0.031-0.021-0.062-0.046-0.093-0.066c-0.325,0.441-0.649,0.885-0.979,1.326c-0.023-0.021-0.053-0.043-0.082-0.062
			c0.514-0.932,1.211-1.715,1.949-2.471c0.272-0.328,0.551-0.66,0.828-0.99c0.545-0.66,1.133-1.27,1.901-1.672
			c0.236-0.125,0.457-0.324,0.213-0.656c0.104-0.045,0.185-0.061,0.242-0.105c0.078-0.062,0.146-0.141,0.203-0.223
			c0.008-0.012-0.096-0.131-0.111-0.123c-0.086,0.043-0.17,0.1-0.239,0.168c-0.345,0.328-0.695,0.646-1.023,0.99
			c-0.611,0.645-1.207,1.305-1.812,1.951c-0.047,0.051-0.119,0.088-0.189,0.107c-0.195,0.062-0.272,0.143-0.096,0.321
			C32.85,30.57,32.856,30.671,32.883,30.749z M19.681,29.075c0.043,0.062,0.084,0.129,0.15,0.223
			c0.313-0.37,0.631-0.709,0.905-1.082c0.107-0.146,0.177-0.364,0.162-0.543c-0.047-0.694-0.379-1.188-1.088-1.37
			c-0.145,0.213-0.281,0.461-0.629,0.313c-0.205-0.085-0.434-0.106-0.635-0.199c-0.191-0.092-0.369-0.229-0.551-0.349
			c-0.172-0.034-0.433-0.024-0.562,0.105c-0.268,0.266-0.475,0.23-0.758,0.049c-0.137-0.088-0.375-0.133-0.518-0.076
			c-0.265,0.104-0.5,0.285-0.732,0.459c-0.291,0.22-0.592,0.424-0.479,0.896c0.041,0.164-0.081,0.404-0.286,0.176
			c-0.104,0.205-0.257,0.396-0.285,0.604c-0.039,0.312-0.076,0.582-0.51,0.683c0.139,0.091,0.217,0.183,0.27,0.168
			c1.447-0.368,3.029-0.514,3.688-2.315c0.271,0.418,0.403,0.707,0.143,1.07c-0.215,0.297-1.441,1.786-1.617,2.106
			c-0.606,1.101-0.17,1.028-0.768,2.131c-0.054,0.101-0.082,0.211-0.156,0.399c0.209-0.018,0.379,0.019,0.494-0.049
			c0.404-0.234,0.817-0.471,1.18-0.77c0.535-0.439,1.074-0.852,1.691-1.029c0.092,0.426,0.186,0.82,0.252,1.221
			c0.018,0.105-0.025,0.248-0.09,0.338c-0.457,0.613-0.914,1.229-1.398,1.82c-0.188,0.229-0.43,0.424-0.68,0.588
			c-0.426,0.275-0.5,0.562-0.213,0.979c0.129,0.187,0.256,0.375,0.428,0.625c0.52-0.272,1.102-0.535,1.635-0.877
			c0.402-0.259,0.728-0.644,1.117-0.929c0.377-0.276,0.371-0.86,0.857-1.039c0.028-0.012,0.059-0.057,0.069-0.09
			c0.232-0.713-0.076-1.535,0.156-2.248c0.012-0.074,0.832-0.545,0.908-0.606c0.649-0.547,1.133-0.528,1.768-1.101
			c0.146-0.133,0.205-0.364,0.324-0.586c0.312,0.01,0.643-0.055,0.709-0.522c0.006-0.043,0.09-0.078,0.141-0.115
			c0.215-0.161,0.447-0.305,0.642-0.487c0.356-0.342,0.625-0.771,1.133-0.938c0.584-0.194,0.666-0.405,0.512-0.886
			c0.334-0.245,0.662-0.44,0.938-0.694c0.237-0.217,0.16-0.453-0.133-0.571c-0.23-0.099-0.455-0.205-0.705-0.318
			c-0.291,0.49-0.589,1.016-0.908,1.521c-0.109,0.172-0.254,0.348-0.426,0.44c-0.371,0.211-0.599,0.467-0.617,0.928
			c-0.017,0.36-0.203,0.474-0.562,0.427c0.349-0.595,0.354-0.724,0.029-0.918c-0.232-0.144-0.541-0.033-0.734,0.248
			c-0.205,0.299-0.118,0.491,0.267,0.606c-0.273,0.103-0.488,0.153-0.679,0.26c-0.467,0.263-0.918,0.552-1.379,0.819
			c-0.096,0.058-0.227,0.164-0.327,0.109c-0.056-0.027-0.035-0.115-0.056-0.172c0.295-0.16,0.601-0.311,0.885-0.486
			c0.183-0.106,0.341-0.264,0.509-0.397c-0.052-0.065-0.103-0.136-0.151-0.205c-0.055,0.112-0.039,0.322-0.162,0.345
			c-0.047,0.008-0.086-0.056-0.094-0.097c-0.021-0.112,0.086-0.215,0.131-0.317c-0.01-0.011-0.016-0.021-0.025-0.027
			c-0.305-0.191-0.534-0.035-0.77,0.164c-0.207,0.174-0.559,0.275-0.637,0.492c-0.156,0.422-0.293,0.791-0.785,0.881
			c-0.033,0.008-0.058,0.057-0.084,0.082c-0.263,0.254-0.422,0.752-0.787,0.76c-0.281,0.006-0.211-0.188-0.144-0.604L19.681,29.075z
			 M24.543,21.042c0.317,0.414,0.895,0.638,1.307,0.463c0.178-0.073,0.371-0.325,0.392-0.517c0.026-0.262,0.102-0.604-0.189-0.844
			c-0.396,0.688-0.396,0.688-0.551,0.678c0.084-0.1,0.256-0.215,0.242-0.299c-0.068-0.453,0.194-0.635,0.532-0.797
			c0.097-0.045,0.164-0.151,0.259-0.244c-0.3-0.241-0.566-0.459-0.832-0.676c0.018-0.021,0.03-0.045,0.049-0.065
			c0.09,0.021,0.18,0.038,0.342,0.069c-0.162-0.219-0.283-0.385-0.414-0.567c0.078-0.019,0.121-0.035,0.127-0.024
			c0.314,0.389,0.672,0.754,0.918,1.184c0.086,0.146-0.096,0.455-0.158,0.688c-0.018,0.062-0.065,0.115-0.084,0.178
			c-0.065,0.279,0.183,0.84,0.373,0.826c0.205-0.018,0.408-0.068,0.613-0.088c0.518-0.047,1.035-0.082,1.635-0.131
			c0.289-0.65,0.781-1.318,0.818-2.188c0.035-0.836,0.119-1.67,0.213-2.5c0.047-0.408,0.164-0.812,0.271-1.33
			c-0.495,0.149-0.868,0.346-1.25,0.358c-0.635,0.025-0.741,0.474-0.893,0.923c-0.006,0.02-0.033,0.034-0.104,0.104
			c-0.111-0.134-0.22-0.265-0.339-0.406c-0.164,0.154-0.614,0.804-0.84,1.017c-0.071-0.154,0.117-0.771,0.068-0.924
			c-0.144-0.451-0.451-0.613-0.865-0.377c-0.309,0.176-0.562,0.454-0.873,0.639c-0.307,0.184-0.379,0.414-0.254,0.721
			c0.117,0.273,0.346,0.367,0.631,0.352c0.244-0.012,0.486-0.004,0.863-0.008c-0.189,0.219-0.295,0.426-0.461,0.508
			c-0.191,0.096-0.437,0.08-0.676,0.113c0.062,0.131,0.112,0.234,0.162,0.336c-0.248-0.053-0.472-0.125-0.693-0.135
			c-0.158-0.006-0.328,0.109-0.486,0.102c-0.549-0.031-0.842,0.141-1.033,0.646c-0.071,0.184-0.237,0.369-0.223,0.539
			c0.023,0.221,0.187,0.426,0.285,0.639c0.027-0.014,0.057-0.023,0.086-0.035c-0.006-0.068-0.008-0.137-0.016-0.24
			c0.588,0.367,0.838,1.146,1.672,1.06c-0.013,0.034-0.027,0.067-0.039,0.104C24.946,20.936,24.762,20.982,24.543,21.042z
			 M29.012,26.348c-0.742,0.323-1.34,0.946-2.205,0.991c0.162-0.101,0.322-0.192,0.535-0.321c-0.389-0.177-0.682-0.054-0.969,0.09
			c-0.045,0.021-0.066,0.102-0.099,0.154c0.117,0.053,0.216,0.096,0.316,0.137c-0.346,0.281-0.67,0.545-0.992,0.807
			c0.021,0.027,0.039,0.059,0.062,0.086c0.133-0.043,0.274-0.189,0.397-0.129c0.041,0.02,0.031,0.082,0.045,0.125
			c-0.146,0.053-0.293,0.115-0.442,0.158c-0.199,0.062-0.453,0.057-0.599,0.18c-0.271,0.23-0.51,0.518-0.717,0.812
			c-0.219,0.312-0.506,0.649-0.549,1c-0.08,0.664,0.146,1.235,0.809,1.58c0.523,0.271,0.679,0.28,1.068-0.156
			c0.229-0.25,0.51-0.461,0.705-0.732c0.272-0.389,0.506-0.809,0.717-1.234c0.129-0.262,0.176-0.561,0.273-0.84
			c0.055-0.154,0.139-0.301,0.209-0.453c-0.039,0.008-0.082,0.015-0.123,0.019c-0.074-0.181-0.148-0.363-0.229-0.558
			C28.09,27.947,28.77,27.288,29.012,26.348z M17.406,14.632c0.034,0.326,0.067,0.859,0.159,1.384
			c0.039,0.229,0.25,0.301,0.455,0.153c0.611-0.442,1.308-0.771,1.793-1.383c0.355-0.449,0.777-0.851,1.119-1.312
			c0.318-0.43,0.25-0.93-0.164-1.129c-0.524-0.248-1.11-0.365-1.676-0.088C18.199,12.702,17.558,13.368,17.406,14.632z
			 M17.279,24.072c0.179-0.145,0.341-0.274,0.496-0.411c0.474-0.408,0.938-0.828,1.418-1.229c0.33-0.283,0.72-1.615,0.57-2.027
			c-0.02-0.057-0.061-0.105-0.1-0.152c-0.119-0.146-0.248-0.279-0.355-0.43c-0.076-0.105-0.127-0.232-0.19-0.352
			c-0.043,0.01-0.086,0.02-0.13,0.03c0.009,0.224,0.015,0.444,0.021,0.688c-0.062-0.015-0.125-0.027-0.186-0.039
			c-0.334-0.064-0.632-0.057-0.748,0.354c-0.015,0.045-0.05,0.089-0.084,0.125c-0.279,0.285-0.562,0.567-0.837,0.856
			c-0.797,0.841-0.854,1.341-0.022,2.406C17.164,23.936,17.197,23.975,17.279,24.072z M37.836,30.284
			c0.01,0.043,0.02,0.086,0.029,0.131c0.145-0.218,0.438-0.451,0.407-0.644c-0.071-0.504,0.252-0.719,0.513-1.016
			c0.077-0.088,0.094-0.379,0.055-0.398c-0.486-0.223-1.027-0.645-1.469-0.555c-0.443,0.086-0.937,0.617-1.148,1.074
			c-0.277,0.602-0.104,1.293,0.215,1.955c0.271-0.156,0.511-0.299,0.758-0.441c0.216,0.219,0.046,0.273-0.122,0.355
			c-0.166,0.078-0.408,0.125-0.291,0.504c0.311-0.209,0.579-0.396,0.889-0.605c-0.166-0.119-0.23-0.168-0.295-0.215
			c0.002-0.041,0.008-0.086,0.01-0.131C37.537,30.296,37.686,30.29,37.836,30.284z M22.383,20.909
			c0.059-0.443,0.098-0.841,0.154-1.234c0.059-0.407,0.092-0.827,0.211-1.219c0.084-0.274,0.311-0.502,0.443-0.769
			c0.144-0.289,0.265-0.598-0.012-0.951c-0.211,0.146-0.415,0.265-0.584,0.416c-0.414,0.375-0.857,0.734-1.203,1.168
			c-0.264,0.332-0.469,0.755-0.565,1.168c-0.093,0.39-0.015,0.816-0.013,1.127c0.138,0.128,0.236,0.242,0.359,0.322
			c0.049,0.033,0.176,0.013,0.223-0.033c0.049-0.049,0.041-0.151,0.058-0.231C21.75,20.745,22.01,20.812,22.383,20.909z
			 M14.068,27.083c0.47-0.5,0.439-0.625-0.145-0.849c-0.158-0.061-0.322-0.104-0.486-0.125c-0.6-0.065-0.899,0.429-1.08,1.088
			c-0.131,0.486-0.061,0.98,0.347,1.378c0.438,0.43,0.719-0.084,1.073-0.15c0.433-0.084,0.525-0.411,0.613-0.788
			C14.461,27.333,14.502,27.116,14.068,27.083z M19.049,24.613c0.285-0.104,0.566-0.116,0.66-0.26
			c0.201-0.301,0.424-0.258,0.701-0.219c0.146,0.021,0.334-0.006,0.459-0.082c0.45-0.258,0.741-0.834,1.393-0.688
			c0.059,0.016,0.162-0.09,0.207-0.16c0.24-0.352,0.449-0.725,0.713-1.059c0.166-0.215,0.121-0.338-0.061-0.486
			c-0.485,0.26-0.94,0.568-1.532,0.439c-0.334-0.076-0.43,0.119-0.404,0.438c0.008,0.099-0.1,0.274-0.188,0.301
			C20.115,23.104,19.494,23.652,19.049,24.613z M31.916,25.116c-0.037-0.039-0.076-0.076-0.113-0.111
			c-0.141,0.138-0.273,0.289-0.43,0.41c-0.148,0.114-0.316,0.265-0.49,0.291c-0.758,0.127-1.342,0.494-1.699,1.181
			c-0.301,0.571-0.613,1.104-1.147,1.51c-0.457,0.35-0.507,0.942-0.625,1.477c-0.007,0.021,0.034,0.059,0.067,0.1
			c0.263-0.139,0.584-0.213,0.75-0.42c0.49-0.623,0.922-1.293,1.379-1.947c0.193-0.272,0.357-0.584,0.595-0.817
			c0.455-0.447,0.955-0.849,1.426-1.276C31.744,25.396,31.822,25.247,31.916,25.116z M14.777,26.878
			c0.195-0.198,0.365-0.416,0.578-0.58c0.386-0.305,0.707-0.612,0.91-1.101c0.137-0.321,0.121-0.534-0.049-0.77
			c-0.166-0.23-0.35-0.447-0.549-0.646c-0.041-0.041-0.199-0.004-0.271,0.045c-0.037,0.027-0.03,0.158-0.01,0.234
			c0.037,0.135,0.102,0.266,0.154,0.396c-0.025,0.015-0.051,0.024-0.076,0.039c-0.125-0.151-0.25-0.302-0.396-0.478
			c-0.303,0.076-0.655,0.137-0.76,0.555c-0.035,0.156-0.01,0.326-0.026,0.49c-0.031,0.293,0.038,0.521,0.311,0.687
			c0.16,0.099,0.273,0.276,0.484,0.506c-0.25-0.041-0.365-0.06-0.519-0.082C14.64,26.432,14.707,26.646,14.777,26.878z
			 M36.334,32.757c0.153-0.229,0.301-0.446,0.44-0.663c-0.028-0.029-0.061-0.058-0.09-0.082c-0.166,0.061-0.334,0.12-0.629,0.231
			c0.141-0.312,0.476-0.574,0.32-0.718c-0.265-0.233-0.582,0.336-0.871,0.502c-0.412-0.616,0.436-0.532,0.313-0.901
			c0.011-0.203,0.021-0.401,0.031-0.612c-0.41-0.136-0.488-0.097-0.633,0.354c-0.072,0.223-0.105,0.461-0.188,0.68
			c-0.159,0.432-0.352,0.812-0.016,1.293c0.338,0.484,0.775,0.68,1.307,0.713c0.146,0.01,0.334-0.135,0.453-0.26
			c0.134-0.143,0.451-0.695,0.703-1.1C37.625,31.956,36.621,32.73,36.334,32.757z M22.881,30.991c0.02,0.01,0.039,0.021,0.061,0.03
			c-0.055,0.213-0.073,0.445-0.172,0.638c-0.221,0.442-0.346,0.879-0.276,1.385c0.061,0.438,0.176,0.597,0.586,0.461
			c0.274-0.088,0.522-0.276,0.768-0.446c0.053-0.033,0.07-0.187,0.045-0.269c-0.106-0.362-0.289-0.709-0.35-1.082
			c-0.068-0.414-0.088-0.856-0.023-1.271c0.053-0.33,0.267-0.638,0.447-1.047c-0.594,0.61-1.396,0.936-1.483,1.823
			c0.027,0.024,0.058,0.054,0.086,0.078C22.672,31.191,22.777,31.094,22.881,30.991z M29.906,24.161
			c-0.152,0.034-0.316,0.022-0.38,0.101c-0.11,0.127-0.159,0.309-0.231,0.465c0.113,0.043,0.236,0.139,0.336,0.117
			c0.701-0.15,1.266-0.541,1.824-1.134c-0.226,0.043-0.353,0.063-0.479,0.093c0.209-0.218,0.455-0.353,0.697-0.48
			c0.328-0.174,0.719-0.28,0.863-0.674c0.092-0.246,0.11-0.518,0.159-0.783c0.015-0.084,0.013-0.176,0.021-0.264
			c-0.088,0.041-0.193,0.062-0.26,0.125c-0.326,0.297-0.615,0.646-0.968,0.904c-0.438,0.316-0.907,0.619-1.401,0.826
			C29.637,23.652,29.565,23.741,29.906,24.161z M20.998,25.279c0.012,0.029,0.09,0.16,0.063,0.189
			c-0.334,0.344-0.004,0.602,0.125,0.848c0.279,0.539,0.896,0.813,1.271,0.549c0.328-0.23,0.577-0.584,0.834-0.904
			c0.186-0.23,0.053-0.4-0.181-0.471c-0.249-0.072-0.518-0.072-0.752-0.168C21.92,25.146,21.511,24.814,20.998,25.279z
			 M26.035,23.288c-0.158-0.063-0.271-0.086-0.353-0.146c-0.051-0.039-0.059-0.136-0.084-0.207c0.232-0.088,0.365-0.438,0.728-0.203
			c0.217,0.143,0.629-0.08,0.661-0.312c0.041-0.303-0.184-0.387-0.428-0.447c-0.694-0.172-1.389-0.363-2.084-0.537
			c-0.08-0.021-0.174,0.004-0.397,0.015c0.262,0.28,0.446,0.479,0.645,0.694c-0.344,0.441-0.068,0.822,0.223,1.248
			c-0.168-0.062-0.332-0.123-0.518-0.192C24.569,23.618,25.467,23.689,26.035,23.288z M21.75,15.253
			c-0.437-0.015-0.791,0.131-1.074,0.58c-0.473,0.754-0.877,1.554-1.307,2.328c-0.021,0.034-0.041,0.098-0.027,0.112
			c0.145,0.16,0.268,0.363,0.445,0.459c0.203,0.109,0.258-0.086,0.328-0.264c0.11-0.303,0.26-0.6,0.422-0.881
			c0.346-0.6,0.717-1.184,1.061-1.785C21.681,15.65,21.695,15.458,21.75,15.253z M24.834,35.303c-0.42-0.121-0.59-0.068-0.842,0.163
			c-0.49,0.447-0.989,0.89-1.479,1.337c-0.133,0.122-0.311,0.235-0.377,0.395c-0.229,0.541-0.668,0.768-1.188,0.893
			c-0.015,0.002-0.021,0.033-0.07,0.135c0.584-0.141,1.168-0.158,1.621-0.416c0.572-0.328,1.077-0.812,1.538-1.295
			C24.354,36.184,24.553,35.738,24.834,35.303z M22.461,24.54c0.551,0.47,1.168,0.603,1.846,0.664
			c0.435,0.043,0.652-0.119,0.875-0.41c0.269-0.344,0.217-0.582-0.188-0.707C24.078,23.8,23.211,23.831,22.461,24.54z
			 M22.443,34.564c-0.196,0.082-0.407,0.16-0.616,0.252c-0.117,0.054-0.23,0.185-0.336,0.17c-0.419-0.049-0.441,0.15-0.33,0.466
			c0.018,0.049,0.047,0.112,0.024,0.146c-0.268,0.445,0.109,0.393,0.336,0.437c0.164,0.028,0.336,0.016,0.506,0.03
			c0.455,0.037,1.026-0.319,1.142-0.756c0.028-0.104-0.012-0.285-0.088-0.348C22.904,34.812,22.691,34.712,22.443,34.564z
			 M28.244,35.971c-0.894-0.515-0.927-0.535-1.185-0.355c-0.26,0.18-0.502,0.391-0.555,0.777c0.254-0.019,0.457-0.031,0.561-0.039
			c-0.17,0.235-0.352,0.492-0.532,0.746c0.178,0.061,0.36,0.2,0.524,0.176c0.396-0.062,0.521-0.344,0.351-0.812
			c0.332,0.396,0.438,0.388,0.612,0.029C28.1,36.331,28.164,36.159,28.244,35.971z M16.638,34.07c0.228-0.12,0.344-0.198,0.471-0.25
			c0.591-0.221,0.974-0.676,1.281-1.192c0.068-0.114,0.092-0.373,0.021-0.44c-0.229-0.224-1.183,0.047-1.298,0.338
			c-0.114,0.291-0.233,0.582-0.329,0.881C16.72,33.594,16.697,33.794,16.638,34.07z M13.576,23.329
			c1.084-0.64,1.899-1.673,2.303-2.468c-0.379,0.17-0.863,0.361-1.328,0.599c-0.211,0.106-0.463,0.263-0.549,0.461
			C13.814,22.339,13.724,22.805,13.576,23.329z M20.308,20.469c-0.229,0.62-0.438,1.247-0.688,1.856
			c-0.104,0.245-0.295,0.448-0.439,0.678c-0.121,0.188-0.225,0.39-0.348,0.574c-0.17,0.245-0.354,0.487-0.531,0.733
			c0.031,0.021,0.059,0.041,0.086,0.062c0.518-0.537,0.914-1.213,1.67-1.555C20.65,22.161,20.332,21.305,20.308,20.469z M24,11.721
			c-0.166,0.329-0.289,0.565-0.404,0.809c-0.182,0.391-0.334,0.795-0.543,1.166c-0.387,0.684-0.834,1.328-1.208,2.02
			c-0.133,0.242-0.131,0.561-0.188,0.844c0.399-0.647,0.704-1.317,1.041-1.971c0.231-0.447,0.469-0.883,0.896-1.211
			C24.178,12.934,24.285,12.409,24,11.721z M14.162,24.29c-0.529-0.056-0.82,0.215-1.082,0.51c-0.218,0.238-0.113,0.755,0.146,0.91
			c0.238,0.144,0.572,0.058,0.681-0.246C14.035,25.091,14.078,24.689,14.162,24.29z M23.063,34.236
			c0.146,0.134,0.267,0.324,0.412,0.353c0.351,0.062,0.715,0.082,1.066,0.035c0.115-0.013,0.258-0.265,0.278-0.427
			c0.017-0.104-0.123-0.286-0.239-0.354C24.313,33.686,23.344,33.938,23.063,34.236z M36.102,28.484
			c-0.002-0.055-0.082-0.075-0.125-0.112c-0.153,0.168-0.309,0.336-0.465,0.508c-0.283-0.438-0.646-0.297-1.143,0.433
			c0.084,0.02,0.166,0.035,0.25,0.051c0.01,0.029,0.02,0.062,0.028,0.094c-0.123,0.055-0.246,0.107-0.416,0.18
			c0.15,0.062,0.283,0.119,0.435,0.18c-0.129,0.238-0.26,0.461-0.375,0.693c-0.027,0.055-0.002,0.135-0.002,0.203
			c0.078-0.02,0.174-0.016,0.227-0.062c0.053-0.045,0.041-0.149,0.078-0.217c0.182-0.328,0.336-0.68,0.566-0.969
			C35.44,29.107,36.114,28.938,36.102,28.484z M16.715,24.52c0.016,0.166-0.012,0.367,0.061,0.516
			c0.073,0.148,0.246,0.248,0.375,0.371c-0.012,0.023-0.022,0.047-0.032,0.068c-0.188-0.037-0.377-0.076-0.564-0.117
			c-0.021,0.037-0.047,0.072-0.074,0.104c0.172,0.201,0.33,0.412,0.529,0.58c0.029,0.024,0.229-0.183,0.365-0.244
			c0.088-0.043,0.211,0.005,0.301-0.034c0.094-0.045,0.205-0.13,0.234-0.22c0.02-0.062-0.066-0.187-0.136-0.25
			c-0.061-0.058-0.16-0.069-0.26-0.108c0.037-0.119,0.068-0.222,0.092-0.304C17.293,24.751,17.011,24.641,16.715,24.52z
			 M31.537,18.104c-0.013-0.105-0.054-0.258-0.043-0.41c0.02-0.394-0.218-0.584-0.535-0.666c-0.131-0.033-0.388,0.031-0.431,0.125
			c-0.104,0.221-0.147,0.484-0.143,0.729c0.002,0.061,0.279,0.133,0.443,0.162C31.043,18.081,31.268,18.081,31.537,18.104z
			 M34.721,18.557c-0.111,0.446,0.016,0.791,0.275,0.868c0.252,0.07,0.737-0.291,0.795-0.603c0.049-0.256-0.277-0.639-0.627-0.688
			C34.801,18.081,34.756,18.374,34.721,18.557z M29.1,32.938c0.023,0.068,0.062,0.244,0.146,0.392
			c0.02,0.034,0.231,0.022,0.291-0.035c0.276-0.285,0.553-0.584,0.791-0.905c0.146-0.191,0.028-0.438-0.166-0.439
			C29.77,31.943,29.194,32.425,29.1,32.938z M14.515,20.734c0.193,0.3,0.412,0.439,0.736,0.318c0.301-0.115,0.737-0.793,0.705-1.117
			c-0.008-0.074-0.068-0.16-0.131-0.207c-0.027-0.021-0.127,0.033-0.181,0.072c-0.258,0.193-0.516,0.389-0.762,0.588
			C14.756,20.495,14.64,20.616,14.515,20.734z M33.168,21.072c0.594-0.131,1.1-0.229,1.299-0.854
			c-0.139-0.103-0.295-0.214-0.479-0.351c-0.051,0.137-0.081,0.229-0.116,0.319c-0.14-0.047-0.271-0.09-0.486-0.16
			C33.311,20.389,33.244,20.708,33.168,21.072z M31.682,18.762c-0.287-0.056-0.553,0.141-0.561,0.498
			c-0.006,0.165,0.227,0.485,0.27,0.475c0.271-0.086,0.56-0.205,0.754-0.398C32.264,19.216,31.918,18.805,31.682,18.762z
			 M29.457,28.421c-0.039-0.022-0.078-0.045-0.115-0.067c-0.533,0.812-1.066,1.625-1.6,2.438
			C28.362,30.034,29.34,29.527,29.457,28.421z M31.696,20.814c-0.104,0.451,0.08,0.926,0.316,0.937
			c0.354,0.013,0.316-0.321,0.396-0.53c0.131-0.336-0.097-0.511-0.354-0.572C31.934,20.618,31.774,20.773,31.696,20.814z
			 M20.59,37.02c0.188,0.332,0.422,0.567,0.803,0.528c0.08-0.006,0.213-0.18,0.207-0.264C21.56,36.833,21.027,36.682,20.59,37.02z
			 M22.101,32.997c0.01-0.483,0.017-0.836,0.023-1.24c-0.183,0.279-0.361,0.509-0.479,0.765c-0.09,0.197-0.098,0.434-0.143,0.651
			C21.732,33.104,21.961,33.036,22.101,32.997z M29.555,30.107c-0.256,0.226-0.512,0.422-0.725,0.66
			c-0.033,0.035,0.131,0.252,0.207,0.394C29.762,30.594,29.787,30.544,29.555,30.107z M31.061,30.531
			c-0.506,0.21-0.938,0.396-1.377,0.58c0.012,0.06,0.021,0.111,0.033,0.168c0.139,0.005,0.359,0.064,0.4,0.002
			c0.272-0.396,0.491-0.17,0.771,0.078C30.949,31.062,31.002,30.816,31.061,30.531z M33.352,26.964
			c-0.483,0.041-0.807,0.496-0.721,0.979C33.422,27.529,33.463,27.475,33.352,26.964z M37.656,26.952
			c0.178-0.166,0.342-0.32,0.51-0.478c-0.008-0.035-0.015-0.07-0.023-0.109c-0.098-0.012-0.252-0.067-0.285-0.024
			c-0.35,0.416-0.674,0.851-0.967,1.222c0.234-0.064,0.537-0.113,0.808-0.238C37.903,27.227,37.91,27.046,37.656,26.952z
			 M13.873,31.042c0.436,0.252,0.746,0.151,0.975-0.104c0.105-0.115,0.086-0.348,0.123-0.52c-0.039-0.02-0.082-0.037-0.125-0.057
			C14.539,30.581,14.228,30.792,13.873,31.042z M30.66,19.771c-0.427-0.185-0.67-0.056-0.804,0.395
			c-0.022,0.088,0.013,0.25,0.074,0.291c0.064,0.041,0.24,0.018,0.293-0.041C30.383,20.227,30.504,20.009,30.66,19.771z
			 M14.086,33.454c0.399,0.092,0.742-0.048,1.07-0.229c0.02-0.012-0.017-0.229-0.062-0.25C14.73,32.837,14.289,33.042,14.086,33.454
			z M20.154,25.271c0.543-0.045,1.015-0.557,0.894-0.953C20.699,24.581,20.244,24.716,20.154,25.271z M25.895,24.805
			c0.258-0.265,0.5-0.521,0.75-0.781c-0.074-0.053-0.096-0.082-0.112-0.078c-0.125,0.025-0.246,0.059-0.369,0.092
			C25.668,24.169,25.617,24.305,25.895,24.805z M19.064,35.85c0.304,0.303,0.629,0.215,0.758-0.224
			c0.023-0.097-0.032-0.215-0.051-0.319c-0.104,0.032-0.229,0.045-0.309,0.11C19.322,35.536,19.209,35.688,19.064,35.85z
			 M32.783,32.934c0.481-0.24,0.545-0.398,0.338-0.808C32.651,32.268,32.53,32.534,32.783,32.934z M30.399,27.434
			c-0.082,0.024-0.151,0.021-0.174,0.055c-0.141,0.182-0.271,0.367-0.404,0.559c0.07,0.039,0.156,0.129,0.207,0.109
			c0.271-0.094,0.478-0.252,0.423-0.59C30.444,27.525,30.424,27.495,30.399,27.434z M23.914,32.271
			c0.207,0.207,0.307,0.367,0.448,0.436c0.084,0.033,0.23-0.07,0.351-0.113c-0.101-0.148-0.176-0.328-0.312-0.43
			C24.336,32.111,24.162,32.212,23.914,32.271z M27.405,22.714c-0.295,0.181-0.34,0.396-0.143,0.603
			c0.064,0.065,0.336,0.053,0.389-0.017C27.897,22.984,27.537,22.902,27.405,22.714z M27.67,22.264
			c0.342-0.019,0.613-0.398,0.49-0.646c-0.027-0.062-0.111-0.121-0.175-0.132c-0.057-0.006-0.155,0.056-0.17,0.105
			C27.754,21.809,27.717,22.031,27.67,22.264z M13.834,23.613c0.02,0.043,0.039,0.089,0.059,0.134c0.178,0,0.41,0.067,0.519-0.021
			c0.121-0.1,0.127-0.338,0.182-0.52c-0.041-0.023-0.084-0.049-0.125-0.076C14.254,23.294,14.043,23.454,13.834,23.613z
			 M13.029,17.646c-0.383,0.121-0.67,0.211-1.032,0.324c0.323,0.116,0.545,0.2,0.823,0.303C12.89,18.066,12.957,17.87,13.029,17.646
			z M32.887,34.357c0.047,0.043,0.096,0.084,0.146,0.127c0.182-0.145,0.375-0.274,0.534-0.438c0.043-0.047,0.029-0.219-0.021-0.271
			c-0.043-0.045-0.219-0.045-0.258,0.002C33.137,33.956,33.018,34.165,32.887,34.357z M21.414,34.445
			c-0.498-0.014-0.922,0.341-0.959,0.771C20.804,34.938,21.109,34.689,21.414,34.445z M28.973,23.531
			c-0.141,0.117-0.244,0.203-0.346,0.291c0.08,0.093,0.154,0.253,0.233,0.255c0.105,0.002,0.263-0.101,0.308-0.197
			C29.196,23.814,29.059,23.68,28.973,23.531z M16.943,13.178c-0.541,0.166-0.729,0.483-0.729,0.948
			C16.433,13.839,16.66,13.548,16.943,13.178z M28.322,31.993c-0.104,0.297-0.19,0.538-0.297,0.827
			C28.53,32.648,28.619,32.419,28.322,31.993z M19.871,15.477c-0.191,0.383-0.34,0.688-0.519,1.041
			C19.713,16.268,20.054,16.068,19.871,15.477z M19.92,15.372c0.047,0.037,0.086,0.075,0.129,0.112
			c0.287-0.387,0.57-0.774,0.857-1.164c-0.027-0.021-0.056-0.045-0.08-0.065C20.527,14.628,20.222,14.999,19.92,15.372z
			 M22.199,21.562c0.026,0.037,0.057,0.074,0.086,0.11c0.112-0.088,0.26-0.151,0.336-0.269c0.053-0.086,0.014-0.229,0.018-0.352
			c-0.053-0.008-0.104-0.018-0.156-0.023C22.386,21.206,22.293,21.384,22.199,21.562z M33.758,18.743
			c-0.018-0.078-0.029-0.156-0.043-0.231c-0.146,0.02-0.297,0.022-0.434,0.071c-0.025,0.008,0.01,0.188,0.018,0.293
			C33.451,18.831,33.604,18.786,33.758,18.743z M36.764,18.305c-0.354,0.02-0.5,0.135-0.379,0.375
			c0.029,0.061,0.154,0.073,0.234,0.104C36.668,18.624,36.715,18.462,36.764,18.305z M30.762,18.753
			c-0.354,0.11-0.377,0.438-0.061,0.748C30.721,19.257,30.74,19.025,30.762,18.753z M38.987,25.245
			c-0.043,0.002-0.086,0.004-0.129,0.004c-0.024,0.117-0.1,0.317-0.063,0.342c0.106,0.07,0.262,0.074,0.397,0.101
			c0.021-0.047,0.035-0.094,0.054-0.142C39.16,25.447,39.072,25.348,38.987,25.245z M26.028,36.979
			c0.011,0.076,0.127,0.088,0.187,0.135c0.098-0.146,0.322-0.266,0.291-0.438c-0.012-0.063-0.107-0.073-0.16-0.11
			C26.239,36.702,26.002,36.805,26.028,36.979z"/>
		<path fill="#EEECE9" d="M40.658,32.398c-0.013,0.025-0.021,0.058-0.037,0.084c0,0,0.098-0.121,0.252-0.354
			c1.385-2.678,2.17-5.717,2.17-8.94c0-3.729-1.049-7.211-2.861-10.174c-0.002-0.002-0.01-0.011-0.01-0.011l9.824-12.998
			L35.717,11.469c3.977,3.221,6.52,8.139,6.52,13.651C42.237,27.719,41.668,30.182,40.658,32.398z"/>
		<path fill="#EEECE9" d="M9.336,17.607c0.014-0.028,0.021-0.059,0.037-0.086c0,0-0.099,0.119-0.252,0.355
			c-1.386,2.678-2.168,5.717-2.168,8.939c0,3.729,1.045,7.213,2.86,10.174c0.002,0.004,0.008,0.012,0.008,0.012L0,50l14.276-11.463
			c-3.977-3.221-6.52-8.139-6.52-13.654C7.758,22.286,8.326,19.825,9.336,17.607z"/>
	</g>
</g>
</svg>
