<?xml version="1.0" encoding="utf-8"?>
<!-- Generator: Adobe Illustrator 16.0.0, SVG Export Plug-In . SVG Version: 6.00 Build 0)  -->
<!DOCTYPE svg PUBLIC "-//W3C//DTD SVG 1.1//EN" "http://www.w3.org/Graphics/SVG/1.1/DTD/svg11.dtd">
<svg version="1.1" id="Layer_1" xmlns="http://www.w3.org/2000/svg" xmlns:xlink="http://www.w3.org/1999/xlink" x="0px" y="0px"
	 width="120px" height="150px" viewBox="0 0 120 150" enable-background="new 0 0 120 150" xml:space="preserve">
<g>
	<g>
		<polygon fill="#3C3C3B" points="0.833,146.232 3.262,146.232 3.262,130.07 13.252,130.07 13.252,146.232 15.676,146.232 
			15.676,127.77 0.833,127.77 		"/>
		<polygon fill="#3C3C3B" points="31.636,127.85 26.368,138.686 20.542,127.932 20.5,127.85 17.7,127.854 25.108,141.178 
			22.503,146.312 25.062,146.312 34.438,127.85 		"/>
		<path fill="#3C3C3B" d="M59.639,133.777h-5.742v-6.01h-2.425v18.467h8.167c4.074,0,6.203-3.133,6.203-6.229
			C65.842,136.908,63.711,133.777,59.639,133.777z M59.639,143.906h-5.742v-7.83h5.742c2.607,0,3.798,2.029,3.798,3.914
			c0,1.045-0.342,2.004-0.955,2.711C61.799,143.488,60.814,143.906,59.639,143.906z"/>
		<path fill="#3C3C3B" d="M84.019,143.273l-1.679-1.588l-0.37,0.365c-1.328,1.305-3.171,2.053-5.06,2.053
			c-3.234,0-7.047-1.848-7.107-7.057c-0.012-2.111,0.688-3.984,1.969-5.273c1.251-1.262,3.028-1.93,5.141-1.93
			c1.922,0,3.705,0.729,5.027,2.049l0.354,0.359l1.74-1.51l-0.41-0.41c-1.783-1.779-4.166-2.764-6.715-2.764
			c-2.772,0-5.141,0.908-6.849,2.633c-1.729,1.748-2.663,4.197-2.636,6.898c0.025,4.645,2.969,9.328,9.484,9.328
			c2.543,0,4.924-0.98,6.713-2.771L84.019,143.273z"/>
		<path fill="#3C3C3B" d="M84.476,146.02l-0.103,0.215h2.634l1.889-4.27h9.674l1.916,4.27h2.635l-9.371-19.457L84.476,146.02z
			 M93.733,131.697l3.828,7.939h-7.658L93.733,131.697z"/>
		<path fill="#3C3C3B" d="M112.966,127.77h-8.17v18.467h2.43v-6.01h5.74c4.07,0,6.201-3.133,6.201-6.23
			C119.167,130.902,117.038,127.77,112.966,127.77z M112.966,137.928h-5.74v-7.832h5.74c2.605,0,3.797,2.027,3.797,3.914
			c0,1.043-0.338,2.004-0.955,2.703C115.124,137.51,114.144,137.928,112.966,137.928z"/>
		<polygon fill="#3C3C3B" points="30.93,146.232 33.565,146.232 40.291,131.855 47.042,146.232 49.677,146.232 40.302,126.801 		"/>
	</g>
	<path fill="#E64815" d="M118.354,0.898v103.855c0,8.146-5.386,13.479-13.531,13.479H1.019V14.426
		C1.019,6.28,6.4,0.898,14.546,0.898H118.354z"/>
	<path fill="#FFFFFF" d="M78.186,73.057c-0.23,0.03-0.529-0.011-0.693,0.113c-0.869,0.663-1.699,1.372-2.404,1.954
		c-0.276,0.561-0.448,1.042-0.729,1.459c-0.688,1.004-1.474,1.953-2.125,2.986c-0.214,0.334-0.108,0.867-0.163,1.424
		c0.238-0.258,0.416-0.449,0.594-0.637c-0.631,1.697-1.23,3.41-2.524,4.715c-0.089-0.047-0.179-0.094-0.265-0.145
		c0.453-0.811,0.904-1.623,1.356-2.438c-1.081,0.211-1.165,0.289-2.264,2.234c0.217,0.184,0.442,0.363,0.702,0.582
		c-0.957,1.275-1.932,2.494-2.812,3.777c-0.315,0.455-0.405,1.076-0.635,1.746c-0.101,0.096-0.331,0.334-0.56,0.57
		c0.347,0.15,0.689,0.305,1.135,0.498c0.006,0.086,0.031,0.371,0.062,0.695c2.248-0.188,2.473-2.219,3.398-3.725
		c0.078,2.879-4.655,6.496-8.189,5.893c0.406-0.311,0.727-0.584,1.066-0.812c0.82-0.549,0.816-0.771-0.047-1.281
		c0.148-0.246,0.289-0.492,0.46-0.775c-1.097-0.098-2.306,0.51-2.854,1.561c0.383-0.203,0.764-0.412,1.204-0.646
		c-0.985,1.863-3.236,2.332-6.722,1.781c0.49-0.428,1.359-0.918,1.779-1.355c0.217-0.223,0.303-0.566,0.453-0.855
		c-0.314-0.141-0.669-0.438-0.95-0.383c-0.915,0.188-1.808,0.475-2.697,0.775c-0.491,0.164-0.93,0.504-1.419,0.65
		c-0.515,0.146-0.15,0.533-0.677,0.615c-0.888-0.277-2.008-0.539-2.028-0.633c0.584-0.348,2.231-0.695,2.798-1.064
		c0.578-0.375,0.365-0.834-0.126-0.914c-0.722-0.109-1.483-0.043-2.216,0.061c-0.369,0.055-0.696,0.369-1.05,0.559
		c-1.115,0.586-1.79,0.67-3.544-0.156c0.603-0.682,1.491-1.846,2.16-2.461c0.667-0.625,1.276-1.227,1.158-2.246
		c-0.021-0.008-0.105-0.061-0.126-0.037c-1.005,1.031-2.541,1.338-3.393,2.604c-0.817,1.219-1.693,1.516-3.365,0.332
		c0.353-0.361,1.704-0.496,1.457-1.424c-0.055-0.199-0.428-0.318-0.765-0.553c0.211-1.646-1.641-0.908-2.399-1.578
		c-0.306,0.279-1.104,1.002-1.572,1.432c-2.094-1.439-3.652-3.502-5.12-5.588c-0.534-0.766-1.138-1.771-2.372-1.908
		c-0.037-0.006-0.073-0.096-0.108-0.146c-1.296-1.809-0.995-1.689,0.98-3.086c1.053-0.75,1.012-1.387,0.457-2.537
		c-0.677-1.41-1.909-1.715-3.177-2.036c-0.71-0.187-1.218,0.258-1.922,1.245c-0.796-1.773-1.42-3.633-1.89-5.395
		c-0.124-0.455,0.688-1.318,0.907-1.846c0.683-1.618,1.397-3.229,2.086-4.839c0.087-0.207,0.096-0.441-0.007-0.732
		c-1.856,1.4-1.924,3.758-2.854,5.646c-0.094,0.003-0.468-0.021-0.562-0.02c-0.34-1.847-0.575-3.487-0.652-5.364
		c-0.161-3.946,0.244-7.783,1.288-11.396c0.654-2.274,1.553-4.453,2.529-6.579c0.146-0.353,0.698-0.576,1.096-0.785
		c0.779-0.402,1.581-0.759,2.371-1.128c0.203,0.798,0.65,0.898,2.158,0.42c0.014,0.755,0.066,1.403-0.551,2.043
		c-1.019,1.066-2.091,2.093-2.22,3.79c-0.058,0.74-0.745,1.432-1.115,2.16c-0.126,0.266-0.2,0.575-0.217,0.866
		c-0.063,1.028-0.091,2.062,0.03,3.231c0.704-1.093,1.496-2.146,2.086-3.3c0.331-0.644,0.321-1.464,0.466-2.198
		c0.016-0.092-0.009-0.216,0.039-0.274c0.994-1.046,0.593-2.596,1.328-3.726c0.204-0.307,0.474-0.563,0.847-0.782
		c-0.116,1.208-1.086,2.289-0.296,3.49c0.26-0.311,0.567-0.672,0.868-1.04c0.102,0.092,0.203,0.176,0.302,0.257
		c-0.668,0.826-1.334,1.647-1.979,2.447c1.289,0.43,2.219-0.351,3.173-1.016c0.903-0.622,0.882-1.018-0.044-1.631
		c-0.216-0.145-0.426-0.29-0.579-0.586c0.344,0.066,0.688,0.141,0.859,0.18c0.875-0.385,1.675-0.708,2.45-1.089
		c0.261-0.127,0.538-0.349,0.664-0.602c0.424-0.871,0.718-1.813,1.19-2.661c0.373-0.68,0.474-1.226,0.146-1.984
		c-0.228-0.537-0.033-1.255-0.094-1.883c-0.051-0.528-0.108-1.096-0.333-1.559c-0.221-0.469-0.643-0.573-1.133-0.16
		c-0.382,0.314-0.962,0.426-1.287,0.781c-0.556,0.611-1.111,1.304-0.775,2.271c0.062,0.182-0.013,0.406-0.033,0.841
		c-1.112-1.896-1.102-2.012,0.191-3.445c-0.61-0.809-0.521-1.641-0.074-2.562c0.486-1.009-4.078,2.99-4.664,2.621
		c2.766-3.071,9.649-10.407,22.304-11.798c-0.435,0.604-0.752,0.995-1.02,1.421c-0.641,1.035-1.264,2.086-1.882,3.138
		c-0.089,0.151-0.126,0.351-0.141,0.529c-0.058,0.846-0.092,1.688-0.129,2.343c1.027-0.704,2.341-1.424,3.417-2.408
		c0.696-0.642,1.074-1.664,1.564-2.531c0.44-0.77,0.818-1.58,1.285-2.329c0.141-0.229,0.511-0.309,0.835-0.375
		c-0.567,1.306-1.796,2.273-1.432,3.929c0.277-0.68,0.563-1.354,0.818-2.042c0.583-1.559,1.215-2.065,2.772-1.917
		c1.877,0.043,7.271,0.769,10.613,2.229c-1.777,1.129-8.082,1.227-9.721,1.55c0.43,1.426,0.829,2.793,1.262,4.146
		c0.035,0.118,0.223,0.191,0.365,0.309c0.15-0.16,0.293-0.309,0.426-0.45c1.825,1.084,2.094,3.128,0.616,4.551
		c0.335-0.086,0.664-0.154,0.99-0.245c0.924-0.256,1.837-0.591,2.771-0.765c0.961-0.175,1.938-0.195,2.904-0.284
		c0.758-0.071,0.725-0.479,0.405-1.119c-2.015,1.238-3.899,1.269-5.503-0.637c-0.879-1.04-0.83-1.536-0.502-2.024
		c-0.133-0.498-0.241-0.905-0.354-1.326c0.113-0.026,0.227-0.058,0.338-0.085c0.037,0.786,1.15,1.248,0.551,2.232
		c-0.015,0.028,0.106,0.199,0.162,0.199c1.164,0.001,1.481,1.371,2.562,1.579c0.6,0.113,1.992-0.283,2.04-0.899
		c0.03-0.31-0.285-0.699-0.537-0.961c-0.263-0.266-0.642-0.408-0.968-0.608c0.011-0.084,0.02-0.17,0.027-0.25
		c0.894-0.187,1.784-0.434,2.687-0.536c1.142-0.132,1.399-1.716,2.144-2.582c-0.008-0.987,2.223,0.433,3.194,1.067
		c-0.267,0.521-0.729,1.363-1.017,1.926c1.078,0.323,1.396-0.299,1.562-1.589c0.812,0.49,2.131,1.361,2.809,1.983
		c-0.016,0.081-0.678,0.058-0.69,0.136c-0.588,0.11-1.175,0.308-1.763,0.317c-1.145,0.024-1.978,0.509-2.598,1.464
		c-0.597,0.934-1.335,1.797-1.801,2.792c-0.402,0.859-0.574,1.854-0.691,2.808c-0.041,0.322,0.357,0.832,0.687,1.025
		c0.817,0.476,1.101,1.163,1.131,2.05c0.006,0.223,0.108,0.443,0.396,0.703c0.637-1.27,1.182-2.591,1.934-3.785
		c0.881-1.395,1.924-2.69,2.939-3.998c0.408-0.531,0.9-1.004,1.404-1.447c0.197-0.177,0.541-0.191,0.854-0.167
		c-0.784,1.566,0.664,2.28,2.605,2.391c0.41,0.021,1.229,1.268,1.583,1.596c-1.204-0.041-3.146,0.106-4.204-0.865
		c-0.922-0.858-1.463-0.55-2.314,0.389c-1.057,1.172-1.553,2.469-1.734,3.972c-0.094,0.769,0.215,1.148,1.104,1.068
		c-0.049,0.226-0.069,0.427-0.133,0.61c-0.195,0.565-0.031,1.071,0.482,1.212c0.359,0.095,0.871-0.083,1.209-0.302
		c0.633-0.411,1.189-0.944,1.782-1.426c0.077,0.059,0.146,0.124,0.218,0.187c-0.041-0.187-0.088-0.37-0.158-0.668
		c0.271,0.059,0.483,0.059,0.652,0.145c0.684,0.36,1.326,0.224,1.877-0.233c0.745-0.633,1.18-2.116,2.071-2.936
		c0.641,0.842,1.664,2.363,2.027,3.061c-0.388,0.29-1.479,0.675-1.767,1.122c-0.265,0.408-0.371,1.085-0.229,1.535
		c0.094,0.293,0.737,0.457,1.17,0.567c0.405,0.102,0.846,0.082,1.278,0.076c0.938-0.003,1.365,0.497,1.399,1.409
		c-0.59-0.1-1.2-0.136-1.758-0.312c-1.354-0.426-2.338-0.178-3.111,0.924c0.953,0.6,1.967,0.34,2.912,0.165
		c0.671-0.124,1.289-0.536,1.933-0.819c0.412,0.512,0.656,1.011,0.072,1.599c-0.136,0.133-0.104,0.437-0.173,0.771
		c0.431-0.114,0.804-0.842,1.093-0.918c0.039,0.079,0.33,0.972,0.373,1.048c-0.336,0.188-0.985,0.318-1.334,0.365
		c-0.834,0.105-1.699,0.026-2.522,0.152c-0.513,0.076-0.99,0.396-1.479,0.609c0.076,0.061,0.15,0.122,0.234,0.183
		c-0.146,0.518-0.293,1.032-0.41,1.55c-0.049,0.188-0.034,0.394-0.049,0.591c0.194,0.013,0.396,0.026,0.602,0.022
		c0.961-0.018,1.92-0.067,2.881-0.063c0.842,0.006,1.684,0.073,2.521,0.114c0.039-0.104,0.231-0.685,0.274-0.774
		c0.146,0.575,0.354,1.698,0.49,2.601c-0.933,0.021-1.938,0.12-2.694-0.085c-1.386-0.383-2.347,0.104-3.304,1.025
		c-0.49,0.484-1.141,0.812-1.738,1.169c-0.156,0.09-0.41,0.079-0.607,0.05c-0.637-0.111-1.258-0.255-2.069-0.424
		c-0.021-0.043-0.147-0.317-0.274-0.597c-0.797,0.329-1.56,0.684-2.354,0.938c-0.187,0.062-0.578-0.133-0.685-0.316
		c-0.143-0.261-0.258-0.768-0.117-0.917c0.455-0.51,1.033-0.917,1.572-1.354c0.049-0.042,0.205,0.033,0.262-0.006
		c1.089-0.771,2.312-1.249,3.5-1.831c0.854-0.426,0.767-0.755-0.014-1.407c-0.123-0.108-0.076-0.424-0.106-0.643
		c-0.943-0.194-1.66,0.166-2.24,0.897c-0.685,0.856-1.521,1.493-2.526,1.933c-0.543,0.236-1.207,0.501-1.496,0.964
		c-0.51,0.819-0.862,1.771-1.131,2.71c-0.522,1.859-0.789,3.83-2.104,5.351c-0.603,0.701-1.39,1.243-2.093,1.862
		c-0.064,0.062-0.182,0.112-0.198,0.183c-0.249,0.959-0.489,1.917-0.696,2.882c-0.003,0.021,0.543,0.224,0.568,0.175
		c1.537-2.404,4.062-4.071,5.09-6.86c0.21-0.581,0.328-1.197,0.486-1.8c0.089,0,0.181,0.006,0.271,0.007
		c0.035,0.333,0.084,0.662,0.113,0.994c0.004,0.088-0.078,0.21-0.037,0.271c0.627,1.02,0.267,2.076,0.116,3.133
		c-0.258,1.79-0.399,3.541-2.44,4.457c-0.692,0.312-1.065,1.423-1.538,2.202c-0.343,0.567-0.607,1.19-0.947,1.87
		c0.074,0.066,0.219,0.199,0.389,0.363c-0.17,0.124-0.33,0.242-0.531,0.395c0.146,0.058,0.243,0.132,0.297,0.111
		c0.562-0.257,1.229-0.414,1.659-0.821c2.22-2.124,4.511-6.658,6.97-8.423c3.321-2.378,5.242-5.107,8.855-5.896
		c0.508-0.359,1.317-0.705,1.979-1.023c0.098,0.523,0.133,1.05,0.146,1.491c-0.386,0.343-0.892,0.605-1.406,1.062
		c0.574,0.122,0.998-0.149,1.451-0.055c-0.007,0.938,0.043,2.144-0.05,3.099c-0.127,1.249-1.422,1.039-1.633,2.08
		c-0.305-0.28-0.537-0.494-0.584-0.533c-0.729,0.358-1.324,0.631-1.891,0.958c-0.254,0.147-0.646,0.536-0.607,0.598
		c0.193,0.341,0.498,0.853,0.771,0.857c1.16,0.017,2.33-0.125,3.537-0.208c-0.08,1.56-1.252,0.328-1.35,1.213
		c0.313,0.185,0.646,0.348,1.048,0.582c-0.147,1.345-0.854,2.081-2.013,2.474c-0.115,0.874,1.17,1.11,0.664,2.197
		c-0.324-0.188-0.492-0.391-1.006-0.688c-0.207,1.771-1.324,3.099-2.085,4.604c0.66,0.383,0.894,0.02,0.859-0.474
		c-0.046-0.873,0.45-0.929,1.176-0.912c-1.147,2.917-2.974,5.402-4.749,7.623c-0.378-0.219-0.312-0.268-0.642-0.346
		c-1.127-0.264-2.272-0.439-3.404-0.689c-0.27-0.061-0.514-0.273-0.93-0.498c-1.221,1.77-0.957,3.867-1.271,5.896
		c0.713,0.146,1.73-0.475,2.438-0.332c-0.52,0.49-0.916,0.771-1.698,1.426c-0.285,0.23-0.709-0.398-1.332-0.432
		c0.054-0.76,0.146-1.646,0.192-2.535c0.026-0.572,0.058-1.164-0.043-1.721c-0.026-0.145-0.694-0.359-0.812-0.252
		c-0.841,0.74-1.668,1.52-2.396,2.369c-0.937,1.092-1.01,1.727-0.696,3.668c1.012-0.666,2.016-1.742,3.051-0.307
		c0.503-0.094,0.906-0.311,1.578-0.43c-0.442,0.387-0.621,0.514-1.095,0.846c-0.486,0.342-1.192,0.922-1.562,1.006
		c-0.247,0.053,0.558-0.617,0.392-0.76c-0.562-0.475-0.992-0.467-1.412,0.162c-0.15,0.227-0.283,0.482-0.35,0.744
		c-0.33,1.189-1.719,1.623-3.314,2.314c0.203-0.996,0.385-1.66,0.584-2.611c-0.078-0.031-0.16-0.055-0.238-0.082
		c-0.527,1.045-1.031,2.104-1.578,3.137c-0.131,0.236-0.338,0.195-0.568,0.279c-1.47,0.521-2.941,1.082-4.437,1.32
		c-0.978,0.156,2.683-1.83,3.962-3.062c0.564-0.547,0.803-1.488,1.081-2.281c0.353-1.014,0.604-2.068,1.038-3.035
		c-0.441,2.123-0.876,4.246-1.318,6.367c0.021,0.025,0.037,0.049,0.059,0.07c0.507-1.172,1.091-2.316,1.505-3.521
		c0.522-1.502,0.87-3.061,1.366-4.562c0.365-1.105,0.854-2.178,1.318-3.355c-1.303,0.293-0.886,1.355-1.115,2.203
		c-0.397-0.592,0.196-1.658-0.748-1.602c0.666-1.195,1.354-2.438,2.045-3.674c-0.108-0.072-0.215-0.148-0.319-0.221
		c-0.392,0.52-0.774,1.029-1.2,1.598c-0.277-0.537-0.424-0.959,0.104-1.475c0.412-0.395,0.681-0.947,1.014-1.436
		c-0.076-0.049-0.145-0.105-0.223-0.158c-0.764,1.035-1.525,2.072-2.291,3.109c-0.062-0.051-0.127-0.096-0.188-0.146
		c1.202-2.182,2.835-4.023,4.564-5.796c0.646-0.775,1.297-1.551,1.945-2.327c1.284-1.547,2.657-2.975,4.467-3.921
		c0.555-0.295,1.072-0.764,0.5-1.542c0.244-0.104,0.434-0.144,0.566-0.25c0.182-0.144,0.342-0.328,0.477-0.521
		c0.018-0.024-0.226-0.305-0.266-0.285c-0.203,0.099-0.394,0.233-0.562,0.395c-0.81,0.767-1.636,1.519-2.401,2.324
		c-1.438,1.513-2.828,3.059-4.252,4.576c-0.111,0.125-0.281,0.211-0.447,0.26c-0.459,0.146-0.64,0.328-0.223,0.752
		C78.111,72.64,78.123,72.872,78.186,73.057z M47.207,69.129c0.102,0.146,0.195,0.295,0.352,0.519
		c0.739-0.868,1.484-1.667,2.126-2.54c0.256-0.34,0.415-0.858,0.383-1.279c-0.111-1.625-0.891-2.79-2.552-3.216
		c-0.347,0.5-0.665,1.085-1.48,0.743c-0.478-0.197-1.018-0.254-1.485-0.469c-0.456-0.212-0.867-0.535-1.296-0.814
		c-0.405-0.083-1.008-0.062-1.321,0.249c-0.626,0.622-1.112,0.539-1.776,0.116c-0.324-0.213-0.881-0.317-1.216-0.188
		c-0.618,0.243-1.169,0.669-1.713,1.075c-0.684,0.52-1.388,1-1.123,2.104c0.092,0.386-0.195,0.95-0.675,0.415
		c-0.241,0.485-0.6,0.935-0.665,1.415c-0.096,0.728-0.181,1.365-1.2,1.599c0.326,0.212,0.508,0.427,0.632,0.397
		c3.396-0.864,7.111-1.205,8.652-5.435c0.642,0.979,0.948,1.662,0.334,2.51c-0.504,0.697-3.382,4.194-3.794,4.947
		c-1.426,2.577-0.399,2.413-1.802,4.996c-0.122,0.234-0.189,0.496-0.36,0.941c0.491-0.039,0.887,0.035,1.153-0.113
		c0.952-0.553,1.924-1.104,2.768-1.804c1.256-1.031,2.524-1.996,3.972-2.42c0.214,1.003,0.434,1.926,0.593,2.869
		c0.041,0.248-0.059,0.58-0.212,0.787c-1.073,1.443-2.146,2.889-3.281,4.275c-0.443,0.535-1.012,0.994-1.596,1.377
		c-1.004,0.652-1.177,1.326-0.501,2.293c0.307,0.441,0.603,0.883,1.005,1.479c1.216-0.648,2.587-1.266,3.836-2.062
		c0.945-0.604,1.705-1.51,2.617-2.178c0.888-0.65,0.872-2.023,2.017-2.438c0.068-0.025,0.141-0.133,0.164-0.213
		c0.548-1.67-0.176-3.604,0.37-5.278c0.029-0.171,1.949-1.271,2.13-1.423c1.526-1.281,2.657-1.248,4.145-2.58
		c0.343-0.312,0.485-0.854,0.761-1.372c0.735,0.021,1.507-0.13,1.659-1.229c0.014-0.104,0.216-0.188,0.332-0.273
		c0.501-0.381,1.05-0.716,1.5-1.146c0.838-0.797,1.465-1.809,2.66-2.205c1.367-0.459,1.561-0.946,1.196-2.076
		c0.789-0.572,1.556-1.032,2.205-1.63c0.555-0.503,0.373-1.062-0.312-1.346c-0.545-0.227-1.074-0.48-1.66-0.743
		c-0.682,1.146-1.377,2.379-2.131,3.566c-0.254,0.4-0.595,0.815-0.994,1.038c-0.873,0.494-1.405,1.094-1.456,2.169
		c-0.036,0.854-0.473,1.116-1.318,1.004c0.814-1.393,0.828-1.692,0.068-2.151c-0.549-0.333-1.267-0.082-1.726,0.577
		c-0.483,0.705-0.279,1.163,0.623,1.43c-0.638,0.238-1.146,0.361-1.588,0.608c-1.094,0.615-2.153,1.294-3.238,1.931
		c-0.226,0.127-0.528,0.379-0.768,0.253c-0.125-0.063-0.082-0.273-0.127-0.404c0.693-0.377,1.403-0.729,2.077-1.144
		c0.425-0.257,0.796-0.618,1.187-0.937c-0.121-0.156-0.232-0.313-0.352-0.478c-0.129,0.27-0.094,0.755-0.382,0.803
		c-0.109,0.02-0.198-0.125-0.217-0.229c-0.055-0.262,0.203-0.501,0.303-0.744c-0.019-0.021-0.036-0.051-0.058-0.063
		c-0.72-0.453-1.256-0.083-1.806,0.385c-0.489,0.408-1.312,0.649-1.494,1.152c-0.37,0.991-0.686,1.859-1.841,2.071
		c-0.075,0.015-0.133,0.131-0.195,0.191c-0.615,0.596-0.996,1.769-1.851,1.779c-0.66,0.016-0.494-0.437-0.336-1.418L47.207,69.129z
		 M58.614,50.276c0.745,0.971,2.097,1.492,3.066,1.083c0.41-0.173,0.867-0.763,0.912-1.203c0.064-0.617,0.238-1.418-0.444-1.98
		c-0.924,1.61-0.924,1.61-1.291,1.592c0.198-0.235,0.603-0.506,0.568-0.703c-0.16-1.062,0.458-1.488,1.251-1.867
		c0.226-0.105,0.382-0.358,0.602-0.572c-0.701-0.57-1.324-1.079-1.945-1.586c0.041-0.051,0.076-0.103,0.113-0.155
		c0.215,0.049,0.424,0.093,0.801,0.166c-0.377-0.516-0.666-0.905-0.974-1.34c0.188-0.041,0.284-0.083,0.302-0.062
		c0.74,0.912,1.58,1.768,2.158,2.777c0.197,0.348-0.229,1.07-0.375,1.616c-0.042,0.148-0.16,0.271-0.197,0.413
		c-0.158,0.656,0.426,1.975,0.867,1.944c0.488-0.041,0.965-0.164,1.442-0.207c1.212-0.113,2.433-0.196,3.836-0.311
		c0.683-1.525,1.834-3.095,1.921-5.137c0.084-1.958,0.281-3.916,0.502-5.867c0.109-0.956,0.385-1.901,0.631-3.116
		c-1.158,0.35-2.035,0.808-2.929,0.846c-1.487,0.059-1.742,1.104-2.095,2.159c-0.014,0.05-0.079,0.085-0.252,0.25
		c-0.258-0.312-0.508-0.616-0.791-0.955c-0.385,0.36-1.439,1.884-1.969,2.382c-0.175-0.361,0.269-1.812,0.159-2.168
		c-0.339-1.062-1.06-1.437-2.032-0.884c-0.728,0.412-1.322,1.064-2.045,1.499c-0.725,0.431-0.893,0.973-0.599,1.688
		c0.275,0.646,0.807,0.861,1.482,0.83c0.569-0.027,1.14-0.014,2.031-0.02c-0.447,0.509-0.697,0.996-1.088,1.188
		c-0.447,0.224-1.02,0.188-1.584,0.269c0.145,0.312,0.262,0.552,0.373,0.79c-0.578-0.122-1.099-0.292-1.622-0.313
		c-0.373-0.019-0.77,0.257-1.142,0.232c-1.287-0.074-1.976,0.334-2.423,1.516c-0.17,0.433-0.558,0.87-0.52,1.269
		c0.054,0.52,0.429,1,0.666,1.496c0.065-0.028,0.136-0.055,0.203-0.083c-0.014-0.16-0.022-0.318-0.04-0.563
		c1.381,0.863,1.967,2.688,3.926,2.484c-0.032,0.081-0.063,0.159-0.092,0.239C59.558,50.026,59.132,50.135,58.614,50.276z
		 M69.099,62.727c-1.737,0.76-3.14,2.221-5.171,2.324c0.381-0.227,0.755-0.449,1.257-0.752c-0.915-0.413-1.603-0.125-2.272,0.21
		c-0.11,0.054-0.155,0.231-0.232,0.364c0.279,0.12,0.505,0.22,0.742,0.324c-0.811,0.657-1.571,1.271-2.324,1.886
		c0.048,0.066,0.09,0.134,0.141,0.203c0.314-0.099,0.644-0.446,0.937-0.3c0.092,0.044,0.071,0.19,0.104,0.291
		c-0.348,0.124-0.688,0.27-1.041,0.375c-0.466,0.144-1.062,0.13-1.4,0.419c-0.639,0.541-1.199,1.213-1.683,1.907
		c-0.513,0.737-1.189,1.524-1.291,2.353c-0.188,1.555,0.341,2.9,1.899,3.707c1.23,0.637,1.59,0.66,2.506-0.367
		c0.534-0.59,1.193-1.083,1.65-1.721c0.643-0.911,1.188-1.897,1.679-2.896c0.306-0.613,0.422-1.319,0.647-1.973
		c0.129-0.368,0.324-0.706,0.486-1.059c-0.092,0.013-0.191,0.024-0.285,0.037c-0.178-0.428-0.349-0.857-0.537-1.31
		C66.938,66.48,68.533,64.935,69.099,62.727z M41.864,35.231c0.087,0.769,0.163,2.019,0.377,3.245
		c0.091,0.546,0.587,0.704,1.069,0.357c1.436-1.037,3.066-1.804,4.207-3.242c0.841-1.055,1.825-1.991,2.626-3.071
		c0.747-1.01,0.587-2.184-0.388-2.647c-1.233-0.585-2.609-0.861-3.929-0.208C43.724,30.705,42.226,32.265,41.864,35.231z
		 M41.57,57.388c0.414-0.348,0.795-0.646,1.162-0.966c1.11-0.96,2.202-1.941,3.326-2.892c0.779-0.664,1.691-3.789,1.343-4.759
		c-0.043-0.132-0.145-0.245-0.236-0.358c-0.277-0.338-0.577-0.653-0.826-1.004c-0.184-0.25-0.301-0.549-0.456-0.827
		c-0.1,0.024-0.201,0.047-0.303,0.071c0.016,0.524,0.033,1.049,0.053,1.611c-0.146-0.028-0.293-0.06-0.438-0.087
		c-0.784-0.155-1.48-0.133-1.757,0.833c-0.028,0.105-0.114,0.208-0.197,0.295c-0.653,0.672-1.315,1.332-1.963,2.012
		c-1.868,1.975-2.004,3.15-0.054,5.648C41.294,57.064,41.375,57.157,41.57,57.388z M89.813,71.963
		c0.021,0.103,0.045,0.202,0.062,0.303c0.343-0.506,1.027-1.06,0.961-1.499c-0.17-1.188,0.594-1.688,1.199-2.389
		c0.178-0.203,0.221-0.889,0.125-0.935c-1.133-0.524-2.41-1.509-3.442-1.305c-1.043,0.206-2.195,1.452-2.695,2.522
		c-0.65,1.414-0.246,3.042,0.506,4.592c0.629-0.367,1.194-0.698,1.771-1.035c0.509,0.513,0.108,0.644-0.28,0.831
		c-0.396,0.188-0.959,0.292-0.688,1.185c0.729-0.492,1.362-0.928,2.089-1.42c-0.387-0.283-0.538-0.396-0.693-0.508
		c0.008-0.103,0.02-0.199,0.023-0.302C89.106,71.991,89.458,71.978,89.813,71.963z M53.546,49.96
		c0.132-1.039,0.23-1.969,0.358-2.897c0.14-0.958,0.221-1.94,0.499-2.856c0.191-0.646,0.729-1.18,1.038-1.802
		c0.336-0.679,0.622-1.399-0.028-2.229c-0.494,0.346-0.973,0.611-1.366,0.975c-0.973,0.883-2.018,1.724-2.826,2.742
		c-0.617,0.779-1.098,1.77-1.333,2.742c-0.214,0.909-0.028,1.909-0.026,2.645c0.325,0.298,0.558,0.568,0.842,0.754
		c0.119,0.074,0.416,0.029,0.527-0.077c0.109-0.112,0.094-0.359,0.134-0.548C52.059,49.579,52.67,49.735,53.546,49.96z
		 M34.033,64.449c1.099-1.17,1.033-1.46-0.338-1.986c-0.369-0.139-0.754-0.254-1.141-0.294c-1.411-0.157-2.113,1.007-2.536,2.559
		c-0.307,1.142-0.141,2.298,0.812,3.229c1.033,1.006,1.688-0.196,2.519-0.354c1.017-0.196,1.233-0.961,1.441-1.854
		C34.955,65.037,35.05,64.53,34.033,64.449z M45.721,58.655c0.67-0.247,1.33-0.276,1.549-0.605c0.471-0.703,0.994-0.605,1.645-0.514
		c0.346,0.05,0.781-0.014,1.079-0.192c1.057-0.604,1.738-1.954,3.27-1.609c0.131,0.033,0.375-0.213,0.487-0.378
		c0.564-0.822,1.05-1.699,1.666-2.48c0.393-0.504,0.29-0.796-0.141-1.142c-1.133,0.604-2.201,1.334-3.59,1.028
		c-0.786-0.181-1.006,0.282-0.949,1.031c0.02,0.229-0.237,0.646-0.444,0.706C48.224,55.11,46.766,56.402,45.721,58.655z
		 M75.914,59.835c-0.084-0.091-0.174-0.18-0.26-0.263c-0.334,0.319-0.647,0.677-1.014,0.959c-0.35,0.276-0.738,0.619-1.148,0.689
		c-1.775,0.289-3.15,1.159-3.986,2.761c-0.707,1.344-1.439,2.596-2.695,3.547c-1.076,0.815-1.188,2.213-1.471,3.464
		c-0.016,0.053,0.087,0.132,0.162,0.237c0.607-0.33,1.373-0.507,1.757-0.986c1.153-1.461,2.166-3.041,3.239-4.573
		c0.457-0.646,0.843-1.369,1.396-1.919c1.063-1.054,2.241-1.989,3.345-3.002C75.512,60.497,75.692,60.144,75.914,59.835z
		 M35.695,63.97c0.457-0.462,0.86-0.97,1.36-1.36c0.901-0.708,1.656-1.438,2.136-2.575c0.319-0.758,0.283-1.256-0.118-1.814
		c-0.385-0.54-0.823-1.048-1.29-1.516c-0.094-0.09-0.468-0.009-0.633,0.105c-0.085,0.062-0.073,0.37-0.021,0.547
		c0.087,0.318,0.24,0.625,0.364,0.935c-0.058,0.032-0.119,0.062-0.181,0.09c-0.29-0.354-0.587-0.706-0.928-1.116
		c-0.708,0.179-1.544,0.319-1.78,1.304c-0.087,0.368-0.023,0.763-0.065,1.148c-0.076,0.689,0.092,1.221,0.73,1.607
		c0.375,0.229,0.637,0.652,1.133,1.181c-0.583-0.093-0.854-0.132-1.212-0.188C35.371,62.918,35.531,63.434,35.695,63.97z
		 M86.285,77.77c0.355-0.547,0.699-1.051,1.035-1.562c-0.066-0.064-0.146-0.131-0.217-0.189c-0.383,0.143-0.777,0.285-1.475,0.545
		c0.324-0.729,1.109-1.347,0.748-1.679c-0.617-0.554-1.361,0.789-2.051,1.181c-0.963-1.45,1.024-1.255,0.739-2.125
		c0.021-0.473,0.054-0.944,0.078-1.44c-0.965-0.311-1.149-0.228-1.483,0.828c-0.168,0.524-0.25,1.081-0.441,1.599
		c-0.381,1.011-0.826,1.91-0.035,3.033c0.793,1.143,1.814,1.602,3.066,1.678c0.346,0.021,0.783-0.318,1.062-0.611
		c0.313-0.33,1.061-1.631,1.65-2.574C89.313,75.885,86.959,77.713,86.285,77.77z M54.712,73.621c0.043,0.022,0.097,0.053,0.14,0.073
		c-0.127,0.502-0.175,1.045-0.402,1.494c-0.522,1.041-0.809,2.06-0.65,3.25c0.139,1.029,0.411,1.396,1.374,1.084
		c0.648-0.207,1.232-0.654,1.804-1.053c0.124-0.08,0.161-0.438,0.105-0.627c-0.254-0.855-0.681-1.67-0.822-2.541
		c-0.161-0.975-0.213-2.012-0.055-2.981c0.125-0.78,0.624-1.499,1.046-2.455c-1.391,1.433-3.27,2.195-3.477,4.281
		c0.063,0.061,0.133,0.121,0.203,0.184C54.225,74.094,54.47,73.86,54.712,73.621z M71.201,57.596
		c-0.36,0.081-0.742,0.058-0.895,0.232c-0.262,0.298-0.373,0.722-0.544,1.09c0.269,0.101,0.555,0.325,0.794,0.273
		c1.641-0.354,2.965-1.269,4.273-2.657c-0.527,0.101-0.82,0.153-1.119,0.211c0.49-0.507,1.065-0.818,1.637-1.12
		c0.771-0.404,1.688-0.663,2.025-1.575c0.219-0.58,0.256-1.219,0.371-1.841c0.037-0.196,0.037-0.409,0.051-0.615
		c-0.203,0.097-0.449,0.146-0.61,0.291c-0.767,0.697-1.44,1.519-2.269,2.119c-1.031,0.75-2.131,1.454-3.291,1.941
		C70.572,56.401,70.397,56.61,71.201,57.596z M50.299,60.227c0.024,0.063,0.208,0.373,0.15,0.43
		c-0.786,0.812-0.009,1.417,0.293,1.995c0.658,1.261,2.097,1.911,2.986,1.285c0.768-0.542,1.348-1.371,1.954-2.122
		c0.44-0.542,0.122-0.939-0.421-1.105c-0.581-0.173-1.214-0.173-1.768-0.394C52.458,59.91,51.499,59.128,50.299,60.227z
		 M62.119,55.543c-0.379-0.147-0.633-0.201-0.824-0.346c-0.121-0.089-0.139-0.314-0.201-0.484c0.549-0.205,0.857-1.026,1.707-0.479
		c0.51,0.334,1.476-0.185,1.553-0.731c0.098-0.707-0.429-0.901-1.004-1.048c-1.637-0.404-3.259-0.851-4.891-1.264
		c-0.186-0.049-0.403,0.01-0.937,0.038c0.612,0.657,1.051,1.126,1.516,1.628c-0.805,1.037-0.165,1.932,0.519,2.928
		c-0.392-0.144-0.776-0.29-1.208-0.454C58.669,56.318,60.783,56.493,62.119,55.543z M52.059,36.69
		c-1.021-0.032-1.853,0.31-2.518,1.362c-1.109,1.767-2.057,3.64-3.068,5.467c-0.044,0.078-0.093,0.221-0.062,0.263
		c0.336,0.377,0.624,0.851,1.044,1.077c0.474,0.256,0.606-0.203,0.764-0.62c0.269-0.709,0.613-1.402,0.997-2.067
		c0.808-1.405,1.681-2.775,2.484-4.187C51.903,37.628,51.93,37.171,52.059,36.69z M59.294,83.736
		c-0.986-0.277-1.385-0.16-1.976,0.387c-1.151,1.051-2.317,2.086-3.471,3.131c-0.309,0.291-0.729,0.562-0.883,0.934
		c-0.542,1.264-1.567,1.799-2.787,2.09c-0.032,0.008-0.042,0.082-0.164,0.314c1.367-0.328,2.74-0.371,3.802-0.975
		c1.344-0.771,2.526-1.908,3.608-3.041C58.17,85.809,58.637,84.768,59.294,83.736z M53.726,58.485
		c1.292,1.098,2.742,1.412,4.335,1.563c1.015,0.098,1.526-0.283,2.05-0.97c0.625-0.801,0.508-1.361-0.444-1.661
		C57.524,56.746,55.486,56.819,53.726,58.485z M53.685,82.014c-0.464,0.189-0.957,0.377-1.452,0.594
		c-0.271,0.121-0.54,0.422-0.784,0.395c-0.98-0.109-1.036,0.352-0.772,1.092c0.038,0.111,0.106,0.27,0.058,0.346
		c-0.625,1.047,0.26,0.92,0.791,1.021c0.385,0.066,0.786,0.035,1.18,0.068c1.073,0.098,2.415-0.746,2.681-1.77
		c0.07-0.24-0.028-0.666-0.207-0.812C54.771,82.588,54.268,82.359,53.685,82.014z M67.303,85.309
		c-2.096-1.205-2.176-1.256-2.783-0.838c-0.609,0.428-1.176,0.918-1.296,1.82c0.591-0.039,1.069-0.072,1.306-0.088
		c-0.395,0.555-0.818,1.152-1.246,1.75c0.416,0.148,0.849,0.469,1.233,0.408c0.923-0.143,1.226-0.803,0.812-1.9
		c0.783,0.932,1.037,0.908,1.446,0.068C66.959,86.152,67.111,85.752,67.303,85.309z M40.062,80.85
		c0.53-0.279,0.806-0.471,1.106-0.586c1.381-0.521,2.279-1.582,3.007-2.805c0.16-0.271,0.211-0.873,0.044-1.033
		c-0.537-0.516-2.77,0.109-3.045,0.791c-0.27,0.688-0.55,1.365-0.777,2.07C40.257,79.732,40.202,80.199,40.062,80.85z
		 M32.879,55.644c2.54-1.495,4.457-3.921,5.402-5.787c-0.89,0.397-2.028,0.85-3.115,1.398c-0.496,0.256-1.09,0.614-1.291,1.082
		C33.438,53.321,33.229,54.408,32.879,55.644z M48.678,48.929c-0.536,1.459-1.034,2.928-1.623,4.36
		c-0.241,0.576-0.689,1.057-1.031,1.59c-0.282,0.443-0.527,0.909-0.816,1.349c-0.398,0.583-0.827,1.146-1.243,1.723
		c0.068,0.049,0.132,0.1,0.199,0.15c1.215-1.264,2.144-2.85,3.922-3.647C49.477,52.902,48.729,50.892,48.678,48.929z M57.338,28.397
		c-0.385,0.773-0.679,1.333-0.945,1.901c-0.43,0.908-0.786,1.863-1.276,2.731c-0.911,1.604-1.958,3.123-2.833,4.738
		c-0.315,0.569-0.309,1.315-0.445,1.981c0.945-1.524,1.655-3.097,2.449-4.629c0.548-1.05,1.098-2.068,2.107-2.84
		C57.757,31.245,58.01,30.017,57.338,28.397z M34.251,57.896c-1.24-0.128-1.926,0.505-2.539,1.19
		c-0.507,0.562-0.267,1.773,0.346,2.145c0.557,0.336,1.341,0.131,1.593-0.582C33.955,59.776,34.055,58.833,34.251,57.896z
		 M55.138,81.24c0.346,0.312,0.624,0.762,0.967,0.822c0.823,0.146,1.681,0.189,2.504,0.09c0.269-0.029,0.603-0.627,0.657-1.002
		c0.04-0.252-0.291-0.676-0.568-0.836C58.073,79.951,55.802,80.527,55.138,81.24z M85.736,67.744c0-0.132-0.189-0.18-0.287-0.271
		c-0.359,0.396-0.725,0.792-1.096,1.188c-0.66-1.026-1.513-0.695-2.684,1.015c0.201,0.042,0.396,0.082,0.589,0.123
		c0.021,0.072,0.048,0.145,0.067,0.215c-0.289,0.13-0.578,0.257-0.976,0.425c0.354,0.144,0.664,0.276,1.017,0.419
		c-0.304,0.558-0.604,1.079-0.875,1.628c-0.062,0.127-0.009,0.314-0.009,0.477c0.183-0.044,0.41-0.036,0.535-0.147
		c0.117-0.104,0.095-0.354,0.179-0.507c0.426-0.772,0.791-1.599,1.334-2.274C84.187,69.206,85.767,68.809,85.736,67.744z
		 M40.244,58.432c0.035,0.396-0.029,0.861,0.138,1.21c0.172,0.352,0.581,0.587,0.883,0.873c-0.029,0.059-0.052,0.109-0.076,0.163
		c-0.443-0.091-0.883-0.184-1.322-0.273c-0.056,0.083-0.115,0.167-0.172,0.243c0.4,0.471,0.769,0.97,1.235,1.361
		c0.07,0.059,0.539-0.424,0.857-0.572c0.205-0.101,0.496,0.005,0.706-0.085c0.222-0.104,0.482-0.301,0.55-0.513
		c0.048-0.146-0.154-0.434-0.313-0.585c-0.143-0.133-0.381-0.163-0.608-0.259c0.086-0.278,0.156-0.519,0.214-0.711
		C41.599,58.982,40.941,58.717,40.244,58.432z M75.022,43.376c-0.026-0.249-0.118-0.605-0.098-0.962
		c0.044-0.92-0.511-1.37-1.257-1.56c-0.309-0.082-0.904,0.065-1.008,0.287c-0.248,0.514-0.349,1.138-0.336,1.706
		c0.004,0.146,0.659,0.314,1.039,0.385C73.867,43.327,74.393,43.329,75.022,43.376z M82.498,44.438
		c-0.262,1.053,0.037,1.855,0.65,2.039c0.59,0.17,1.729-0.686,1.865-1.408c0.118-0.599-0.65-1.498-1.477-1.621
		C82.689,43.324,82.582,44.012,82.498,44.438z M69.309,78.193c0.05,0.156,0.139,0.568,0.337,0.914
		c0.05,0.086,0.556,0.061,0.69-0.078c0.65-0.676,1.295-1.377,1.857-2.129c0.34-0.451,0.061-1.027-0.395-1.033
		C70.879,75.857,69.526,76.986,69.309,78.193z M35.083,49.557c0.453,0.697,0.966,1.032,1.726,0.747
		c0.703-0.271,1.727-1.859,1.653-2.619c-0.018-0.176-0.157-0.379-0.305-0.487c-0.064-0.047-0.298,0.08-0.422,0.173
		c-0.606,0.454-1.207,0.906-1.786,1.377C35.646,48.992,35.374,49.277,35.083,49.557z M78.856,50.348
		c1.396-0.307,2.58-0.535,3.05-2.009c-0.326-0.234-0.693-0.502-1.123-0.814c-0.117,0.318-0.195,0.534-0.275,0.75
		c-0.325-0.111-0.631-0.211-1.141-0.379C79.188,48.741,79.035,49.493,78.856,50.348z M75.369,44.919
		c-0.672-0.127-1.301,0.329-1.317,1.168c-0.011,0.39,0.534,1.146,0.634,1.115c0.639-0.201,1.312-0.484,1.77-0.94
		C76.73,45.987,75.922,45.026,75.369,44.919z M70.142,67.59c-0.089-0.054-0.179-0.104-0.267-0.159
		c-1.252,1.907-2.504,3.812-3.758,5.719C67.576,71.379,69.873,70.193,70.142,67.59z M75.402,49.743
		c-0.248,1.062,0.184,2.172,0.737,2.193c0.83,0.028,0.744-0.757,0.935-1.247c0.303-0.788-0.223-1.2-0.838-1.342
		C75.963,49.284,75.582,49.649,75.402,49.743z M49.339,87.77c0.443,0.775,0.986,1.33,1.88,1.24c0.192-0.014,0.505-0.418,0.489-0.617
		C51.615,87.33,50.363,86.977,49.339,87.77z M52.88,78.33c0.024-1.143,0.036-1.957,0.053-2.917c-0.42,0.663-0.845,1.194-1.115,1.793
		c-0.214,0.469-0.23,1.021-0.337,1.529C52.018,78.582,52.552,78.428,52.88,78.33z M70.379,71.551
		c-0.605,0.527-1.201,0.993-1.704,1.547c-0.078,0.084,0.306,0.596,0.489,0.922C70.861,72.69,70.925,72.571,70.379,71.551z
		 M73.91,72.542c-1.186,0.497-2.205,0.931-3.232,1.362c0.023,0.132,0.047,0.263,0.076,0.396c0.326,0.008,0.845,0.146,0.938,0.006
		c0.641-0.938,1.155-0.402,1.811,0.185C73.649,73.792,73.771,73.215,73.91,72.542z M79.283,64.171
		c-1.139,0.096-1.894,1.163-1.688,2.305C79.451,65.503,79.549,65.367,79.283,64.171z M89.39,64.147
		c0.414-0.389,0.803-0.753,1.193-1.117c-0.021-0.088-0.032-0.171-0.055-0.258c-0.229-0.025-0.591-0.165-0.673-0.064
		c-0.813,0.978-1.582,1.99-2.271,2.869c0.559-0.158,1.268-0.272,1.895-0.562C89.967,64.788,89.981,64.366,89.39,64.147z
		 M33.57,73.747c1.027,0.584,1.75,0.355,2.288-0.244c0.249-0.271,0.202-0.812,0.29-1.224c-0.094-0.042-0.193-0.087-0.291-0.126
		C35.135,72.659,34.409,73.161,33.57,73.747z M72.97,47.292c-1.001-0.433-1.577-0.129-1.882,0.925
		c-0.057,0.208,0.027,0.587,0.177,0.686c0.146,0.093,0.563,0.041,0.687-0.104C72.317,48.361,72.603,47.852,72.97,47.292z
		 M34.071,79.4c0.942,0.219,1.744-0.105,2.511-0.531c0.049-0.025-0.033-0.537-0.147-0.586C35.585,77.955,34.549,78.438,34.071,79.4z
		 M48.316,60.202c1.273-0.102,2.377-1.303,2.093-2.235C49.595,58.577,48.525,58.896,48.316,60.202z M61.791,59.102
		c0.595-0.615,1.168-1.213,1.756-1.828c-0.174-0.125-0.227-0.197-0.268-0.188c-0.297,0.063-0.58,0.136-0.865,0.218
		C61.258,57.615,61.134,57.927,61.791,59.102z M45.758,85.021c0.706,0.721,1.479,0.5,1.776-0.521
		c0.063-0.223-0.075-0.502-0.114-0.746c-0.248,0.078-0.545,0.104-0.729,0.262C46.364,84.287,46.097,84.65,45.758,85.021z
		 M77.953,78.18c1.133-0.564,1.283-0.938,0.791-1.893C77.636,76.619,77.353,77.238,77.953,78.18z M72.356,65.276
		c-0.187,0.054-0.354,0.045-0.409,0.121c-0.334,0.425-0.639,0.868-0.947,1.31c0.158,0.095,0.367,0.307,0.482,0.265
		c0.633-0.222,1.119-0.593,0.992-1.386C72.459,65.495,72.412,65.417,72.356,65.276z M57.138,76.627
		c0.483,0.488,0.722,0.857,1.052,1.02c0.194,0.086,0.544-0.166,0.824-0.262c-0.237-0.35-0.419-0.771-0.738-1.012
		C58.127,76.258,57.722,76.484,57.138,76.627z M65.328,54.199c-0.693,0.421-0.797,0.929-0.332,1.411
		c0.148,0.154,0.789,0.126,0.91-0.039C66.48,54.836,65.642,54.645,65.328,54.199z M65.951,53.142
		c0.806-0.043,1.438-0.938,1.154-1.512c-0.068-0.14-0.261-0.288-0.412-0.311c-0.133-0.01-0.363,0.13-0.396,0.249
		C66.15,52.076,66.066,52.601,65.951,53.142z M33.483,56.314c0.045,0.099,0.091,0.203,0.141,0.309
		c0.414-0.001,0.959,0.157,1.21-0.048c0.282-0.231,0.297-0.792,0.428-1.212c-0.097-0.062-0.197-0.119-0.298-0.182
		C34.471,55.561,33.974,55.936,33.483,56.314z M31.595,42.307c-0.898,0.284-1.575,0.494-2.422,0.761
		c0.754,0.277,1.28,0.471,1.932,0.715C31.27,43.294,31.425,42.833,31.595,42.307z M78.195,81.525c0.11,0.1,0.223,0.199,0.346,0.295
		c0.422-0.338,0.873-0.65,1.254-1.035c0.104-0.105,0.062-0.506-0.053-0.629c-0.1-0.105-0.509-0.104-0.604,0.004
		C78.781,80.582,78.502,81.068,78.195,81.525z M51.271,81.732c-1.169-0.031-2.164,0.801-2.251,1.812
		C49.841,82.887,50.554,82.309,51.271,81.732z M69.009,56.118c-0.326,0.277-0.566,0.478-0.812,0.687
		c0.184,0.213,0.363,0.594,0.551,0.6c0.248,0,0.615-0.236,0.722-0.467C69.533,56.78,69.209,56.461,69.009,56.118z M40.782,31.819
		c-1.275,0.386-1.718,1.138-1.718,2.229C39.586,33.369,40.113,32.692,40.782,31.819z M67.481,75.977
		c-0.245,0.691-0.444,1.262-0.696,1.941C67.969,77.518,68.179,76.977,67.481,75.977z M47.647,37.211
		c-0.447,0.896-0.798,1.613-1.212,2.444C47.28,39.068,48.083,38.605,47.647,37.211z M47.766,36.971
		c0.109,0.09,0.203,0.179,0.305,0.271c0.672-0.908,1.339-1.824,2.01-2.732c-0.059-0.056-0.123-0.104-0.189-0.158
		C49.189,35.224,48.474,36.092,47.766,36.971z M53.113,51.494c0.065,0.089,0.132,0.177,0.202,0.261
		c0.269-0.206,0.613-0.357,0.79-0.627c0.126-0.194,0.036-0.54,0.04-0.821c-0.123-0.021-0.243-0.039-0.365-0.062
		C53.556,50.663,53.333,51.078,53.113,51.494z M80.236,44.878c-0.033-0.186-0.068-0.366-0.1-0.547
		c-0.346,0.045-0.697,0.061-1.02,0.169c-0.059,0.021,0.024,0.449,0.041,0.688C79.519,45.086,79.877,44.983,80.236,44.878z
		 M87.293,43.849c-0.832,0.047-1.174,0.316-0.893,0.884c0.066,0.142,0.361,0.169,0.549,0.251
		C87.068,44.604,87.181,44.223,87.293,43.849z M73.205,44.904c-0.826,0.261-0.885,1.031-0.138,1.749
		C73.111,46.084,73.154,45.542,73.205,44.904z M92.513,60.142c-0.102,0.003-0.207,0.003-0.303,0.004
		c-0.06,0.276-0.234,0.748-0.154,0.806c0.256,0.161,0.617,0.167,0.938,0.233c0.043-0.111,0.084-0.223,0.125-0.33
		C92.913,60.616,92.712,60.374,92.513,60.142z M62.093,87.67c0.028,0.186,0.298,0.213,0.442,0.316
		c0.225-0.34,0.752-0.621,0.678-1.025c-0.029-0.146-0.25-0.172-0.371-0.26C62.594,87.023,62.035,87.264,62.093,87.67z"/>
	<path fill="#FFFFFF" d="M96.433,76.924c-0.023,0.062-0.048,0.137-0.086,0.203c0,0,0.229-0.283,0.592-0.84
		c3.252-6.285,5.092-13.416,5.092-20.979c0-8.75-2.459-16.924-6.715-23.874c-0.006-0.007-0.02-0.025-0.02-0.025l23.051-30.5
		L84.841,27.806c9.328,7.561,15.299,19.104,15.299,32.046C100.14,65.942,98.806,71.72,96.433,76.924z"/>
	<path fill="#FFFFFF" d="M22.929,42.218c0.03-0.064,0.051-0.136,0.087-0.201c0,0-0.23,0.284-0.592,0.834
		c-3.25,6.288-5.091,13.42-5.091,20.984c0,8.75,2.458,16.925,6.718,23.875c0.003,0.008,0.016,0.021,0.016,0.021L1.016,118.229
		l33.505-26.895c-9.327-7.559-15.295-19.1-15.295-32.045C19.226,53.196,20.558,47.416,22.929,42.218z"/>
</g>
</svg>
